<?xml version="1.0"?>
<svg xmlns="http://www.w3.org/2000/svg" xmlns:lc="http://www.librecad.org" xmlns:xlink="http://www.w3.org/1999/xlink" width="59mm" height="117mm" viewBox="0 0 59 117">
    <defs>
        <g id="5" lc:blockname="PCB outline">
            <g lc:layername="0" lc:is_locked="false" lc:is_construction="false" fill="none" stroke="black" stroke-width="1">
                <circle cx="-3" cy="51" r="1"/>
                <circle cx="-3" cy="66" r="1"/>
                <circle cx="62" cy="66" r="1"/>
                <circle cx="62" cy="51" r="1"/>
                <circle cx="62" cy="11" r="1"/>
                <circle cx="-3" cy="11" r="1"/>
                <circle cx="-3" cy="106" r="1"/>
                <circle cx="62" cy="106" r="1"/>
                <line x1="59.5" y1="53.5" x2="67" y2="53.5"/>
                <line x1="67" y1="53.5" x2="67" y2="8.5"/>
                <line x1="67" y1="8.5" x2="59.5" y2="8.5"/>
                <line x1="54.5" y1="3.5" x2="54.5" y2="-8"/>
                <line x1="54.5" y1="-8" x2="4.5" y2="-8"/>
                <line x1="4.5" y1="-8" x2="4.5" y2="3.5"/>
                <line x1="-0.5" y1="8.5" x2="-8" y2="8.5"/>
                <line x1="-8" y1="8.5" x2="-8" y2="53.5"/>
                <line x1="-8" y1="53.5" x2="-0.5" y2="53.5"/>
                <line x1="-0.5" y1="63.5" x2="-8" y2="63.5"/>
                <line x1="-8" y1="63.5" x2="-8" y2="108.5"/>
                <line x1="-8" y1="108.5" x2="-0.5" y2="108.5"/>
                <line x1="4.5" y1="113.5" x2="4.5" y2="125"/>
                <line x1="4.5" y1="125" x2="54.5" y2="125"/>
                <line x1="54.5" y1="125" x2="54.5" y2="113.5"/>
                <line x1="59.5" y1="108.5" x2="67" y2="108.5"/>
                <line x1="67" y1="108.5" x2="67" y2="63.5"/>
                <line x1="67" y1="63.5" x2="59.5" y2="63.5"/>
                <path d="M-0.5,8.5 A5,5 0 0,0 4.5,3.5 "/>
                <path d="M54.5,3.5 A5,5 0 0,0 59.5,8.5 "/>
                <path d="M59.5,53.5 A5,5 0 0,0 59.5,63.5 "/>
                <path d="M59.5,108.5 A5,5 0 0,0 54.5,113.5 "/>
                <path d="M4.5,113.5 A5,5 0 0,0 -0.5,108.5 "/>
                <path d="M-0.5,63.5 A5,5 0 0,0 -0.5,53.5 "/>
            </g>
        </g>
    </defs>
    <g lc:layername="0" lc:is_locked="false" lc:is_construction="false" fill="none" stroke="black" stroke-width="1">
        <path d="M11.51921693,15 A2,2 0 0,1 13.39054523,18.70578353 L11.88191945,22.70578353 A2,2 0 0,1 10.01059149,24 L2,24 A2,2 0 0,1 0,22 L0,18.00000028 A2,2 0 0,1 1.99999911,16 L11.51921693,16 "/>
        <path d="M7.5,-1 L15.5,0 A2,2 0 0,1 17.5,2 L17.5,7 A2,2 0 0,1 15.50000071,9 L7.5,9 A2,2 0 0,1 5.5,7 L5.5,2.00000036 A2,2 0 0,1 7.5,0 Z "/>
        <path d="M25.5,-1 L33.5,0 A2,2 0 0,1 35.5,2 L35.5,7 A2,2 0 0,1 33.50000091,9 L25.500001,9 A2,2 0 0,1 23.5,7 L23.5,2.00000046 A2,2 0 0,1 25.5,0 Z "/>
        <path d="M43.5,-1 L51.5,0 A2,2 0 0,1 53.5,2 L53.5,6.99999934 A2,2 0 0,1 51.50000076,9 L43.50000115,9 A2,2 0 0,1 41.5,7.00000024 L41.5,2 A2,2 0 0,1 43.5,0 Z "/>
        <path d="M47.48078307,15 A2,2 0 0,0 45.60945461,18.70578309 L47.11808055,22.70578353 A2,2 0 0,0 48.98940885,24 L57,24 A2,2 0 0,0 59,22.00000094 L59,18.00000088 A2,2 0 0,0 57.00000053,16 L47.48078307,16 "/>
        <circle cx="29.5" cy="27" r="9"/>
        <circle cx="29.5" cy="50.5" r="2.5"/>
        <circle cx="51" cy="50.5" r="2.5"/>
        <circle cx="8" cy="50.5" r="2.5"/>
        <circle cx="18" cy="80.94744112" r="2.5"/>
        <circle cx="41" cy="80.94744112" r="2.5"/>
        <path d="M11.51921693,39 A2,2 0 0,0 13.39054523,35.29421647 L11.8819195,31.29421661 A2,2 0 0,0 10.01059115,30 L2,30 A2,2 0 0,0 0,32 L0,35.99999933 A2,2 0 0,0 1.99999975,38 L11.51921693,38 "/>
        <path d="M47.48078307,39 A2,2 0 0,1 45.60945467,35.29421675 L47.11808055,31.29421647 A2,2 0 0,1 48.98940801,30 L57,30 A2,2 0 0,1 59,32 L59,35.99999929 A2,2 0 0,1 57,38 L47.48078307,38 "/>
        <path d="M58,66.5 L57,65.50000016 A2,2 0 0,0 55.00000016,63.5 L47.00000034,63.5 A2,2 0 0,0 45,65.49999985 L45,66.49999973 A2,2 0 0,0 47,68.5 L55,68.5 A2,2 0 0,0 57,66.5 Z "/>
        <path d="M36.5,66.5 L35.5,65.5 A2,2 0 0,0 33.5,63.5 L25.5,63.5 A2,2 0 0,0 23.5,65.49999978 L23.5,66.5 A2,2 0 0,0 25.49999993,68.5 L33.5,68.5 A2,2 0 0,0 35.5,66.5 Z "/>
        <path d="M15,66.5 L14,65.5 A2,2 0 0,0 12,63.5 L4,63.5 A2,2 0 0,0 2,65.5 L2,66.5 A2,2 0 0,0 3.9999997,68.5 L11.99999941,68.5 A2,2 0 0,0 14,66.5 Z "/>
        <path d="M2,87.94744112 L3,86.94744112 A2,2 0 0,0 5,84.94744112 L5,76.94744112 A2,2 0 0,0 3,74.94744112 L2.00000042,74.94744112 A2,2 0 0,0 0,76.94744112 L0,84.94744112 A2,2 0 0,0 2,86.94744112 Z "/>
        <path d="M57,73.94744112 L56,74.94744112 A2,2 0 0,0 54,76.94744112 L54,84.94744061 A2,2 0 0,0 55.9999992,86.94744112 L56.99999911,86.94744112 A2,2 0 0,0 59,84.94744172 L59,76.9474413 A2,2 0 0,0 57,74.94744112 Z "/>
        <path d="M28.5,108.27207794 L30.5,107.27207794 A2,2 0 0,0 32.5,105.27207794 L32.5,103.27207794 A2,2 0 0,0 30.5,101.27207794 L28.50000039,101.27207794 A2,2 0 0,0 26.5,103.27207767 L26.5,105.27207692 A2,2 0 0,0 28.5,107.27207794 Z "/>
        <path d="M28.08578644,91.12994231 L26.06497153,94.56497079 A1,1 0 0,0 26.77207724,96.27207794 L32.22792206,96.27207794 A1,1 0 0,0 32.93502907,94.56497138 L30.20710721,91.83704952 A1,1 0 0,0 28.79289322,91.8370491 Z "/>
        <path d="M42.64213562,102.85786438 L39.20710735,100.83704967 A1,1 0 0,0 37.5,101.54415588 L37.5,106.99999935 A1,1 0 0,0 39.20710678,107.70710678 L41.93502884,104.97918472 A1,1 0 0,0 41.93502884,103.56497116 Z "/>
        <path d="M16.35786438,102.85786438 L19.79289322,100.8370491 A1,1 0 0,1 21.5,101.54415552 L21.5,106.99999952 A1,1 0 0,1 19.79289322,107.70710678 L17.06497116,104.97918472 A1,1 0 0,1 17.06497116,103.56497116 Z "/>
        <path d="M4.5,95.27207794 L5.5,99.27207676 A2,2 0 0,0 7.5,101.27207794 L10.04415588,101.27207794 A2,2 0 0,0 11.45836915,100.68629179 L13.62994231,98.51471863 A2,2 0 0,0 14.21572875,97.10050506 L14.21572875,95.27207842 A2,2 0 0,0 12.21572875,93.27207794 L7.50000051,93.27207794 A2,2 0 0,0 5.5,95.27207794 Z "/>
        <path d="M4.5,113.27207794 L5.5,109.27207903 A2,2 0 0,1 7.5,107.27207794 L10.04415486,107.27207794 A2,2 0 0,1 11.45836944,107.85786438 L13.62994231,110.02943725 A2,2 0 0,1 14.21572875,111.44365007 L14.21572875,113.27207794 A2,2 0 0,1 12.21572958,115.27207794 L7.50000058,115.27207794 A2,2 0 0,1 5.5,113.27207794 Z "/>
        <path d="M28.08578644,117.41421356 L26.06497183,113.9791854 A1,1 0 0,1 26.77207711,112.27207794 L32.22792206,112.27207794 A1,1 0 0,1 32.93502884,113.97918472 L30.20710766,116.7071059 A1,1 0 0,1 28.79289322,116.70710678 Z "/>
        <path d="M54.5,113.27207794 L53.5,109.27207794 A2,2 0 0,0 51.5,107.27207794 L48.95584412,107.27207794 A2,2 0 0,0 47.54163056,107.85786438 L45.37005843,110.02943651 A2,2 0 0,0 44.78427125,111.44365081 L44.78427125,113.27207794 A2,2 0 0,0 46.78427125,115.27207794 L51.49999891,115.27207794 A2,2 0 0,0 53.5,113.27207794 Z "/>
        <path d="M54.5,95.27207794 L53.5,99.27207748 A2,2 0 0,1 51.5,101.27207794 L48.95584422,101.27207794 A2,2 0 0,1 47.54163056,100.6862915 L45.37005769,98.51471863 A2,2 0 0,1 44.78427125,97.10050574 L44.78427125,95.27207794 A2,2 0 0,1 46.78427115,93.27207794 L51.5,93.27207794 A2,2 0 0,1 53.5,95.27207794 Z "/>
    </g>
</svg>
