%TF.GenerationSoftware,KiCad,Pcbnew,5.1.9-1.fc33*%
%TF.CreationDate,2021-01-09T17:22:59+01:00*%
%TF.ProjectId,,58585858-5858-4585-9858-585858585858,rev?*%
%TF.SameCoordinates,Original*%
%TF.FileFunction,Copper,L1,Top*%
%TF.FilePolarity,Positive*%
%FSLAX46Y46*%
G04 Gerber Fmt 4.6, Leading zero omitted, Abs format (unit mm)*
G04 Created by KiCad (PCBNEW 5.1.9-1.fc33) date 2021-01-09 17:22:59*
%MOMM*%
%LPD*%
G01*
G04 APERTURE LIST*
%TA.AperFunction,NonConductor*%
%ADD10C,0.254000*%
%TD*%
%TA.AperFunction,NonConductor*%
%ADD11C,0.150000*%
%TD*%
G04 APERTURE END LIST*
D10*
X97719267Y-153949077D02*
X97887607Y-153965583D01*
X98041217Y-154011960D01*
X98182893Y-154087291D01*
X98307237Y-154188704D01*
X98409514Y-154312336D01*
X98485830Y-154453478D01*
X98533280Y-154606766D01*
X98550051Y-154766335D01*
X98535509Y-154926133D01*
X98490205Y-155080061D01*
X98415868Y-155222256D01*
X98310164Y-155353724D01*
X98309597Y-155354297D01*
X95588065Y-158075829D01*
X95457353Y-158183196D01*
X95315945Y-158259018D01*
X95162500Y-158305931D01*
X95002863Y-158322146D01*
X94843125Y-158307046D01*
X94689356Y-158261205D01*
X94547414Y-158186367D01*
X94416257Y-158080157D01*
X91696256Y-155360155D01*
X91588880Y-155229432D01*
X91513058Y-155088025D01*
X91466145Y-154934580D01*
X91449930Y-154774942D01*
X91465030Y-154615203D01*
X91510871Y-154461435D01*
X91585706Y-154319497D01*
X91686685Y-154194800D01*
X91809958Y-154092091D01*
X91950834Y-154015283D01*
X92103951Y-153967300D01*
X92271654Y-153949081D01*
X92272814Y-153949075D01*
X97719267Y-153949077D01*
%TA.AperFunction,NonConductor*%
D11*
G36*
X97719267Y-153949077D02*
G01*
X97887607Y-153965583D01*
X98041217Y-154011960D01*
X98182893Y-154087291D01*
X98307237Y-154188704D01*
X98409514Y-154312336D01*
X98485830Y-154453478D01*
X98533280Y-154606766D01*
X98550051Y-154766335D01*
X98535509Y-154926133D01*
X98490205Y-155080061D01*
X98415868Y-155222256D01*
X98310164Y-155353724D01*
X98309597Y-155354297D01*
X95588065Y-158075829D01*
X95457353Y-158183196D01*
X95315945Y-158259018D01*
X95162500Y-158305931D01*
X95002863Y-158322146D01*
X94843125Y-158307046D01*
X94689356Y-158261205D01*
X94547414Y-158186367D01*
X94416257Y-158080157D01*
X91696256Y-155360155D01*
X91588880Y-155229432D01*
X91513058Y-155088025D01*
X91466145Y-154934580D01*
X91449930Y-154774942D01*
X91465030Y-154615203D01*
X91510871Y-154461435D01*
X91585706Y-154319497D01*
X91686685Y-154194800D01*
X91809958Y-154092091D01*
X91950834Y-154015283D01*
X92103951Y-153967300D01*
X92271654Y-153949081D01*
X92272814Y-153949075D01*
X97719267Y-153949077D01*
G37*
%TD.AperFunction*%
D10*
X117353920Y-148984630D02*
X117694363Y-149087415D01*
X118008361Y-149254370D01*
X118283950Y-149479135D01*
X118510631Y-149753145D01*
X118679773Y-150065968D01*
X118784933Y-150405684D01*
X118822982Y-150767697D01*
X118823000Y-150772700D01*
X118822999Y-154763426D01*
X118787448Y-155126002D01*
X118684660Y-155466450D01*
X118517705Y-155780446D01*
X118292945Y-156056028D01*
X118018932Y-156282712D01*
X117706110Y-156451854D01*
X117366392Y-156557014D01*
X117004380Y-156595062D01*
X116999378Y-156595080D01*
X112292924Y-156595078D01*
X111930348Y-156559527D01*
X111589900Y-156456739D01*
X111275904Y-156289784D01*
X111000319Y-156065022D01*
X110773638Y-155791012D01*
X110604496Y-155478190D01*
X110499336Y-155138473D01*
X110461287Y-154776459D01*
X110461270Y-154771741D01*
X110461270Y-152952315D01*
X110496822Y-152589730D01*
X110599609Y-152249283D01*
X110766563Y-151935287D01*
X110996708Y-151653102D01*
X113160663Y-149489147D01*
X113442186Y-149257901D01*
X113755600Y-149089849D01*
X114095681Y-148985877D01*
X114457948Y-148949079D01*
X116991345Y-148949079D01*
X117353920Y-148984630D01*
%TA.AperFunction,NonConductor*%
D11*
G36*
X117353920Y-148984630D02*
G01*
X117694363Y-149087415D01*
X118008361Y-149254370D01*
X118283950Y-149479135D01*
X118510631Y-149753145D01*
X118679773Y-150065968D01*
X118784933Y-150405684D01*
X118822982Y-150767697D01*
X118823000Y-150772700D01*
X118822999Y-154763426D01*
X118787448Y-155126002D01*
X118684660Y-155466450D01*
X118517705Y-155780446D01*
X118292945Y-156056028D01*
X118018932Y-156282712D01*
X117706110Y-156451854D01*
X117366392Y-156557014D01*
X117004380Y-156595062D01*
X116999378Y-156595080D01*
X112292924Y-156595078D01*
X111930348Y-156559527D01*
X111589900Y-156456739D01*
X111275904Y-156289784D01*
X111000319Y-156065022D01*
X110773638Y-155791012D01*
X110604496Y-155478190D01*
X110499336Y-155138473D01*
X110461287Y-154776459D01*
X110461270Y-154771741D01*
X110461270Y-152952315D01*
X110496822Y-152589730D01*
X110599609Y-152249283D01*
X110766563Y-151935287D01*
X110996708Y-151653102D01*
X113160663Y-149489147D01*
X113442186Y-149257901D01*
X113755600Y-149089849D01*
X114095681Y-148985877D01*
X114457948Y-148949079D01*
X116991345Y-148949079D01*
X117353920Y-148984630D01*
G37*
%TD.AperFunction*%
D10*
X75535511Y-148949073D02*
X75898076Y-148984623D01*
X76238519Y-149087408D01*
X76552518Y-149254363D01*
X76834701Y-149484507D01*
X78998668Y-151648476D01*
X79229905Y-151929988D01*
X79397956Y-152243401D01*
X79501930Y-152583484D01*
X79538728Y-152945760D01*
X79538726Y-154763417D01*
X79503176Y-155125993D01*
X79400388Y-155466441D01*
X79233435Y-155780435D01*
X79008674Y-156056021D01*
X78734659Y-156282705D01*
X78421837Y-156451848D01*
X78082123Y-156557007D01*
X77720109Y-156595056D01*
X77715107Y-156595074D01*
X73008652Y-156595072D01*
X72646076Y-156559521D01*
X72305628Y-156456733D01*
X71991632Y-156289778D01*
X71716047Y-156065016D01*
X71489366Y-155791006D01*
X71320224Y-155478184D01*
X71215064Y-155138467D01*
X71177015Y-154776453D01*
X71176998Y-154771736D01*
X71176998Y-150780726D01*
X71212549Y-150418151D01*
X71315334Y-150077708D01*
X71482289Y-149763710D01*
X71707054Y-149488121D01*
X71981064Y-149261440D01*
X72293887Y-149092298D01*
X72633603Y-148987138D01*
X72995616Y-148949089D01*
X73000618Y-148949071D01*
X75535511Y-148949073D01*
%TA.AperFunction,NonConductor*%
D11*
G36*
X75535511Y-148949073D02*
G01*
X75898076Y-148984623D01*
X76238519Y-149087408D01*
X76552518Y-149254363D01*
X76834701Y-149484507D01*
X78998668Y-151648476D01*
X79229905Y-151929988D01*
X79397956Y-152243401D01*
X79501930Y-152583484D01*
X79538728Y-152945760D01*
X79538726Y-154763417D01*
X79503176Y-155125993D01*
X79400388Y-155466441D01*
X79233435Y-155780435D01*
X79008674Y-156056021D01*
X78734659Y-156282705D01*
X78421837Y-156451848D01*
X78082123Y-156557007D01*
X77720109Y-156595056D01*
X77715107Y-156595074D01*
X73008652Y-156595072D01*
X72646076Y-156559521D01*
X72305628Y-156456733D01*
X71991632Y-156289778D01*
X71716047Y-156065016D01*
X71489366Y-155791006D01*
X71320224Y-155478184D01*
X71215064Y-155138467D01*
X71177015Y-154776453D01*
X71176998Y-154771736D01*
X71176998Y-150780726D01*
X71212549Y-150418151D01*
X71315334Y-150077708D01*
X71482289Y-149763710D01*
X71707054Y-149488121D01*
X71981064Y-149261440D01*
X72293887Y-149092298D01*
X72633603Y-148987138D01*
X72995616Y-148949089D01*
X73000618Y-148949071D01*
X75535511Y-148949073D01*
G37*
%TD.AperFunction*%
D10*
X104154052Y-142236569D02*
X104307984Y-142281874D01*
X104450180Y-142356212D01*
X104581647Y-142461914D01*
X104582311Y-142462571D01*
X107303751Y-145184013D01*
X107411118Y-145314724D01*
X107486940Y-145456132D01*
X107533853Y-145609577D01*
X107550068Y-145769214D01*
X107534968Y-145928952D01*
X107489127Y-146082721D01*
X107414289Y-146224663D01*
X107308079Y-146355820D01*
X104588066Y-149075832D01*
X104457354Y-149183199D01*
X104315946Y-149259021D01*
X104162501Y-149305934D01*
X104002864Y-149322149D01*
X103843126Y-149307049D01*
X103689357Y-149261208D01*
X103547415Y-149186370D01*
X103422721Y-149085394D01*
X103320011Y-148962118D01*
X103243203Y-148821242D01*
X103195221Y-148668128D01*
X103177003Y-148500425D01*
X103176997Y-148499263D01*
X103177000Y-143052821D01*
X103193507Y-142884471D01*
X103239884Y-142730861D01*
X103315213Y-142589188D01*
X103416628Y-142464840D01*
X103540260Y-142362563D01*
X103681405Y-142286246D01*
X103834684Y-142238799D01*
X103994261Y-142222026D01*
X104154052Y-142236569D01*
%TA.AperFunction,NonConductor*%
D11*
G36*
X104154052Y-142236569D02*
G01*
X104307984Y-142281874D01*
X104450180Y-142356212D01*
X104581647Y-142461914D01*
X104582311Y-142462571D01*
X107303751Y-145184013D01*
X107411118Y-145314724D01*
X107486940Y-145456132D01*
X107533853Y-145609577D01*
X107550068Y-145769214D01*
X107534968Y-145928952D01*
X107489127Y-146082721D01*
X107414289Y-146224663D01*
X107308079Y-146355820D01*
X104588066Y-149075832D01*
X104457354Y-149183199D01*
X104315946Y-149259021D01*
X104162501Y-149305934D01*
X104002864Y-149322149D01*
X103843126Y-149307049D01*
X103689357Y-149261208D01*
X103547415Y-149186370D01*
X103422721Y-149085394D01*
X103320011Y-148962118D01*
X103243203Y-148821242D01*
X103195221Y-148668128D01*
X103177003Y-148500425D01*
X103176997Y-148499263D01*
X103177000Y-143052821D01*
X103193507Y-142884471D01*
X103239884Y-142730861D01*
X103315213Y-142589188D01*
X103416628Y-142464840D01*
X103540260Y-142362563D01*
X103681405Y-142286246D01*
X103834684Y-142238799D01*
X103994261Y-142222026D01*
X104154052Y-142236569D01*
G37*
%TD.AperFunction*%
D10*
X86156874Y-142237111D02*
X86310639Y-142282950D01*
X86452579Y-142357786D01*
X86577276Y-142458765D01*
X86679985Y-142582038D01*
X86756795Y-142722917D01*
X86804777Y-142876028D01*
X86822995Y-143043732D01*
X86823000Y-143044706D01*
X86823002Y-148491338D01*
X86806495Y-148659688D01*
X86760116Y-148813303D01*
X86684786Y-148954976D01*
X86583376Y-149079316D01*
X86459742Y-149181595D01*
X86318596Y-149257912D01*
X86165314Y-149305360D01*
X86005743Y-149322132D01*
X85845945Y-149307590D01*
X85692017Y-149262286D01*
X85549822Y-149187949D01*
X85418349Y-149082241D01*
X85417751Y-149081649D01*
X82696258Y-146360158D01*
X82588882Y-146229435D01*
X82513060Y-146088028D01*
X82466147Y-145934583D01*
X82449932Y-145774945D01*
X82465032Y-145615206D01*
X82510873Y-145461438D01*
X82585708Y-145319500D01*
X82691925Y-145188334D01*
X85411927Y-142468332D01*
X85542643Y-142360960D01*
X85684054Y-142285137D01*
X85837494Y-142238226D01*
X85997133Y-142222011D01*
X86156874Y-142237111D01*
%TA.AperFunction,NonConductor*%
D11*
G36*
X86156874Y-142237111D02*
G01*
X86310639Y-142282950D01*
X86452579Y-142357786D01*
X86577276Y-142458765D01*
X86679985Y-142582038D01*
X86756795Y-142722917D01*
X86804777Y-142876028D01*
X86822995Y-143043732D01*
X86823000Y-143044706D01*
X86823002Y-148491338D01*
X86806495Y-148659688D01*
X86760116Y-148813303D01*
X86684786Y-148954976D01*
X86583376Y-149079316D01*
X86459742Y-149181595D01*
X86318596Y-149257912D01*
X86165314Y-149305360D01*
X86005743Y-149322132D01*
X85845945Y-149307590D01*
X85692017Y-149262286D01*
X85549822Y-149187949D01*
X85418349Y-149082241D01*
X85417751Y-149081649D01*
X82696258Y-146360158D01*
X82588882Y-146229435D01*
X82513060Y-146088028D01*
X82466147Y-145934583D01*
X82449932Y-145774945D01*
X82465032Y-145615206D01*
X82510873Y-145461438D01*
X82585708Y-145319500D01*
X82691925Y-145188334D01*
X85411927Y-142468332D01*
X85542643Y-142360960D01*
X85684054Y-142285137D01*
X85837494Y-142238226D01*
X85997133Y-142222011D01*
X86156874Y-142237111D01*
G37*
%TD.AperFunction*%
D10*
X96353920Y-142984628D02*
X96694363Y-143087413D01*
X97008361Y-143254368D01*
X97283950Y-143479133D01*
X97510631Y-143753143D01*
X97679773Y-144065966D01*
X97784933Y-144405682D01*
X97822982Y-144767695D01*
X97823000Y-144772697D01*
X97822999Y-146763423D01*
X97787448Y-147125999D01*
X97684660Y-147466447D01*
X97517705Y-147780443D01*
X97292943Y-148056028D01*
X97018933Y-148282709D01*
X96706111Y-148451851D01*
X96366394Y-148557011D01*
X96004380Y-148595060D01*
X95999663Y-148595077D01*
X94008663Y-148595077D01*
X93646074Y-148559525D01*
X93305630Y-148456737D01*
X92991635Y-148289784D01*
X92716051Y-148065023D01*
X92489370Y-147791012D01*
X92320225Y-147478185D01*
X92215065Y-147138470D01*
X92177017Y-146776459D01*
X92177000Y-146771737D01*
X92176998Y-144780740D01*
X92212550Y-144418155D01*
X92315335Y-144077712D01*
X92482290Y-143763714D01*
X92707055Y-143488126D01*
X92981066Y-143261444D01*
X93293889Y-143092302D01*
X93633606Y-142987142D01*
X93995618Y-142949094D01*
X94000335Y-142949077D01*
X95991345Y-142949077D01*
X96353920Y-142984628D01*
%TA.AperFunction,NonConductor*%
D11*
G36*
X96353920Y-142984628D02*
G01*
X96694363Y-143087413D01*
X97008361Y-143254368D01*
X97283950Y-143479133D01*
X97510631Y-143753143D01*
X97679773Y-144065966D01*
X97784933Y-144405682D01*
X97822982Y-144767695D01*
X97823000Y-144772697D01*
X97822999Y-146763423D01*
X97787448Y-147125999D01*
X97684660Y-147466447D01*
X97517705Y-147780443D01*
X97292943Y-148056028D01*
X97018933Y-148282709D01*
X96706111Y-148451851D01*
X96366394Y-148557011D01*
X96004380Y-148595060D01*
X95999663Y-148595077D01*
X94008663Y-148595077D01*
X93646074Y-148559525D01*
X93305630Y-148456737D01*
X92991635Y-148289784D01*
X92716051Y-148065023D01*
X92489370Y-147791012D01*
X92320225Y-147478185D01*
X92215065Y-147138470D01*
X92177017Y-146776459D01*
X92177000Y-146771737D01*
X92176998Y-144780740D01*
X92212550Y-144418155D01*
X92315335Y-144077712D01*
X92482290Y-143763714D01*
X92707055Y-143488126D01*
X92981066Y-143261444D01*
X93293889Y-143092302D01*
X93633606Y-142987142D01*
X93995618Y-142949094D01*
X94000335Y-142949077D01*
X95991345Y-142949077D01*
X96353920Y-142984628D01*
G37*
%TD.AperFunction*%
D10*
X117353922Y-134984631D02*
X117694365Y-135087416D01*
X118008363Y-135254371D01*
X118283952Y-135479136D01*
X118510633Y-135753146D01*
X118679775Y-136065969D01*
X118784935Y-136405685D01*
X118822984Y-136767698D01*
X118823002Y-136772700D01*
X118823000Y-140763425D01*
X118787449Y-141126004D01*
X118684664Y-141466445D01*
X118517708Y-141780443D01*
X118292944Y-142056032D01*
X118018935Y-142282712D01*
X117706113Y-142451854D01*
X117366396Y-142557014D01*
X117004382Y-142595063D01*
X116999664Y-142595080D01*
X114464498Y-142595080D01*
X114101922Y-142559529D01*
X113761474Y-142456741D01*
X113447478Y-142289786D01*
X113165299Y-142059646D01*
X111001340Y-139895687D01*
X110770094Y-139614164D01*
X110602042Y-139300749D01*
X110498070Y-138960669D01*
X110461272Y-138598402D01*
X110461272Y-136780736D01*
X110496822Y-136418161D01*
X110599608Y-136077716D01*
X110766563Y-135763718D01*
X110991324Y-135488132D01*
X111265336Y-135261450D01*
X111578162Y-135092305D01*
X111917875Y-134987146D01*
X112279888Y-134949097D01*
X112284607Y-134949080D01*
X116991347Y-134949080D01*
X117353922Y-134984631D01*
%TA.AperFunction,NonConductor*%
D11*
G36*
X117353922Y-134984631D02*
G01*
X117694365Y-135087416D01*
X118008363Y-135254371D01*
X118283952Y-135479136D01*
X118510633Y-135753146D01*
X118679775Y-136065969D01*
X118784935Y-136405685D01*
X118822984Y-136767698D01*
X118823002Y-136772700D01*
X118823000Y-140763425D01*
X118787449Y-141126004D01*
X118684664Y-141466445D01*
X118517708Y-141780443D01*
X118292944Y-142056032D01*
X118018935Y-142282712D01*
X117706113Y-142451854D01*
X117366396Y-142557014D01*
X117004382Y-142595063D01*
X116999664Y-142595080D01*
X114464498Y-142595080D01*
X114101922Y-142559529D01*
X113761474Y-142456741D01*
X113447478Y-142289786D01*
X113165299Y-142059646D01*
X111001340Y-139895687D01*
X110770094Y-139614164D01*
X110602042Y-139300749D01*
X110498070Y-138960669D01*
X110461272Y-138598402D01*
X110461272Y-136780736D01*
X110496822Y-136418161D01*
X110599608Y-136077716D01*
X110766563Y-135763718D01*
X110991324Y-135488132D01*
X111265336Y-135261450D01*
X111578162Y-135092305D01*
X111917875Y-134987146D01*
X112279888Y-134949097D01*
X112284607Y-134949080D01*
X116991347Y-134949080D01*
X117353922Y-134984631D01*
G37*
%TD.AperFunction*%
D10*
X78069650Y-134984628D02*
X78410093Y-135087413D01*
X78724091Y-135254368D01*
X78999679Y-135479133D01*
X79226361Y-135753144D01*
X79395503Y-136065967D01*
X79500663Y-136405684D01*
X79538711Y-136767696D01*
X79538729Y-136772699D01*
X79538728Y-138591850D01*
X79503177Y-138954429D01*
X79400392Y-139294870D01*
X79233436Y-139608868D01*
X79003299Y-139891045D01*
X76839341Y-142055004D01*
X76557812Y-142286255D01*
X76244397Y-142454307D01*
X75904317Y-142558279D01*
X75542050Y-142595077D01*
X73008663Y-142595077D01*
X72646074Y-142559525D01*
X72305630Y-142456737D01*
X71991635Y-142289784D01*
X71716051Y-142065023D01*
X71489370Y-141791012D01*
X71320225Y-141478185D01*
X71215065Y-141138470D01*
X71177017Y-140776459D01*
X71177000Y-140771739D01*
X71176998Y-136780740D01*
X71212550Y-136418155D01*
X71315335Y-136077712D01*
X71482290Y-135763714D01*
X71707055Y-135488126D01*
X71981066Y-135261444D01*
X72293889Y-135092302D01*
X72633606Y-134987142D01*
X72995618Y-134949094D01*
X73000336Y-134949077D01*
X77707075Y-134949077D01*
X78069650Y-134984628D01*
%TA.AperFunction,NonConductor*%
D11*
G36*
X78069650Y-134984628D02*
G01*
X78410093Y-135087413D01*
X78724091Y-135254368D01*
X78999679Y-135479133D01*
X79226361Y-135753144D01*
X79395503Y-136065967D01*
X79500663Y-136405684D01*
X79538711Y-136767696D01*
X79538729Y-136772699D01*
X79538728Y-138591850D01*
X79503177Y-138954429D01*
X79400392Y-139294870D01*
X79233436Y-139608868D01*
X79003299Y-139891045D01*
X76839341Y-142055004D01*
X76557812Y-142286255D01*
X76244397Y-142454307D01*
X75904317Y-142558279D01*
X75542050Y-142595077D01*
X73008663Y-142595077D01*
X72646074Y-142559525D01*
X72305630Y-142456737D01*
X71991635Y-142289784D01*
X71716051Y-142065023D01*
X71489370Y-141791012D01*
X71320225Y-141478185D01*
X71215065Y-141138470D01*
X71177017Y-140776459D01*
X71177000Y-140771739D01*
X71176998Y-136780740D01*
X71212550Y-136418155D01*
X71315335Y-136077712D01*
X71482290Y-135763714D01*
X71707055Y-135488126D01*
X71981066Y-135261444D01*
X72293889Y-135092302D01*
X72633606Y-134987142D01*
X72995618Y-134949094D01*
X73000336Y-134949077D01*
X77707075Y-134949077D01*
X78069650Y-134984628D01*
G37*
%TD.AperFunction*%
D10*
X95156873Y-133237109D02*
X95310641Y-133282950D01*
X95452579Y-133357785D01*
X95583745Y-133464002D01*
X98303751Y-136184009D01*
X98411119Y-136314720D01*
X98486942Y-136456131D01*
X98533853Y-136609571D01*
X98550068Y-136769210D01*
X98534968Y-136928950D01*
X98489129Y-137082716D01*
X98414291Y-137224659D01*
X98313315Y-137349353D01*
X98190038Y-137452064D01*
X98049161Y-137528872D01*
X97896052Y-137576854D01*
X97728347Y-137595072D01*
X97727373Y-137595077D01*
X92280730Y-137595077D01*
X92112390Y-137578571D01*
X91958775Y-137532192D01*
X91817102Y-137456862D01*
X91692762Y-137355452D01*
X91590483Y-137231818D01*
X91514166Y-137090672D01*
X91466718Y-136937390D01*
X91449945Y-136777815D01*
X91464488Y-136618021D01*
X91509793Y-136464090D01*
X91584129Y-136321898D01*
X91689830Y-136190434D01*
X91690583Y-136189673D01*
X94411922Y-133468335D01*
X94542644Y-133360958D01*
X94684051Y-133285137D01*
X94837496Y-133238224D01*
X94997134Y-133222009D01*
X95156873Y-133237109D01*
%TA.AperFunction,NonConductor*%
D11*
G36*
X95156873Y-133237109D02*
G01*
X95310641Y-133282950D01*
X95452579Y-133357785D01*
X95583745Y-133464002D01*
X98303751Y-136184009D01*
X98411119Y-136314720D01*
X98486942Y-136456131D01*
X98533853Y-136609571D01*
X98550068Y-136769210D01*
X98534968Y-136928950D01*
X98489129Y-137082716D01*
X98414291Y-137224659D01*
X98313315Y-137349353D01*
X98190038Y-137452064D01*
X98049161Y-137528872D01*
X97896052Y-137576854D01*
X97728347Y-137595072D01*
X97727373Y-137595077D01*
X92280730Y-137595077D01*
X92112390Y-137578571D01*
X91958775Y-137532192D01*
X91817102Y-137456862D01*
X91692762Y-137355452D01*
X91590483Y-137231818D01*
X91514166Y-137090672D01*
X91466718Y-136937390D01*
X91449945Y-136777815D01*
X91464488Y-136618021D01*
X91509793Y-136464090D01*
X91584129Y-136321898D01*
X91689830Y-136190434D01*
X91690583Y-136189673D01*
X94411922Y-133468335D01*
X94542644Y-133360958D01*
X94684051Y-133285137D01*
X94837496Y-133238224D01*
X94997134Y-133222009D01*
X95156873Y-133237109D01*
G37*
%TD.AperFunction*%
D10*
X68853924Y-116659992D02*
X69194369Y-116762780D01*
X69508363Y-116929733D01*
X69783949Y-117154494D01*
X70010632Y-117428506D01*
X70179774Y-117741329D01*
X70284934Y-118081045D01*
X70322983Y-118443058D01*
X70323001Y-118448060D01*
X70322999Y-126438788D01*
X70287448Y-126801364D01*
X70184660Y-127141812D01*
X70017705Y-127455808D01*
X69792945Y-127731390D01*
X69518932Y-127958074D01*
X69206110Y-128127216D01*
X68866392Y-128232376D01*
X68504380Y-128270424D01*
X68499664Y-128270441D01*
X67508662Y-128270441D01*
X67146077Y-128234889D01*
X66805629Y-128132101D01*
X66491633Y-127965146D01*
X66216051Y-127740386D01*
X65989368Y-127466374D01*
X65820224Y-127153549D01*
X65715065Y-126813834D01*
X65677017Y-126451822D01*
X65677000Y-126447104D01*
X65677000Y-118456095D01*
X65712551Y-118093520D01*
X65815336Y-117753077D01*
X65982291Y-117439079D01*
X66207056Y-117163490D01*
X66481066Y-116936809D01*
X66793889Y-116767667D01*
X67133605Y-116662507D01*
X67495618Y-116624458D01*
X67500336Y-116624441D01*
X68491345Y-116624441D01*
X68853924Y-116659992D01*
%TA.AperFunction,NonConductor*%
D11*
G36*
X68853924Y-116659992D02*
G01*
X69194369Y-116762780D01*
X69508363Y-116929733D01*
X69783949Y-117154494D01*
X70010632Y-117428506D01*
X70179774Y-117741329D01*
X70284934Y-118081045D01*
X70322983Y-118443058D01*
X70323001Y-118448060D01*
X70322999Y-126438788D01*
X70287448Y-126801364D01*
X70184660Y-127141812D01*
X70017705Y-127455808D01*
X69792945Y-127731390D01*
X69518932Y-127958074D01*
X69206110Y-128127216D01*
X68866392Y-128232376D01*
X68504380Y-128270424D01*
X68499664Y-128270441D01*
X67508662Y-128270441D01*
X67146077Y-128234889D01*
X66805629Y-128132101D01*
X66491633Y-127965146D01*
X66216051Y-127740386D01*
X65989368Y-127466374D01*
X65820224Y-127153549D01*
X65715065Y-126813834D01*
X65677017Y-126451822D01*
X65677000Y-126447104D01*
X65677000Y-118456095D01*
X65712551Y-118093520D01*
X65815336Y-117753077D01*
X65982291Y-117439079D01*
X66207056Y-117163490D01*
X66481066Y-116936809D01*
X66793889Y-116767667D01*
X67133605Y-116662507D01*
X67495618Y-116624458D01*
X67500336Y-116624441D01*
X68491345Y-116624441D01*
X68853924Y-116659992D01*
G37*
%TD.AperFunction*%
D10*
X122853924Y-116659992D02*
X123194369Y-116762780D01*
X123508363Y-116929733D01*
X123783949Y-117154494D01*
X124010632Y-117428506D01*
X124179774Y-117741329D01*
X124284934Y-118081045D01*
X124322983Y-118443058D01*
X124323001Y-118448060D01*
X124322999Y-126438797D01*
X124287449Y-126801363D01*
X124184661Y-127141811D01*
X124017706Y-127455807D01*
X123792944Y-127731392D01*
X123518934Y-127958073D01*
X123206112Y-128127215D01*
X122866395Y-128232375D01*
X122504381Y-128270424D01*
X122499664Y-128270441D01*
X121508652Y-128270441D01*
X121146073Y-128234890D01*
X120805632Y-128132104D01*
X120491632Y-127965146D01*
X120216050Y-127740386D01*
X119989367Y-127466373D01*
X119820225Y-127153551D01*
X119715065Y-126813833D01*
X119677017Y-126451821D01*
X119677000Y-126447105D01*
X119677000Y-118456095D01*
X119712551Y-118093520D01*
X119815336Y-117753077D01*
X119982291Y-117439079D01*
X120207056Y-117163490D01*
X120481066Y-116936809D01*
X120793889Y-116767667D01*
X121133605Y-116662507D01*
X121495618Y-116624458D01*
X121500336Y-116624441D01*
X122491345Y-116624441D01*
X122853924Y-116659992D01*
%TA.AperFunction,NonConductor*%
D11*
G36*
X122853924Y-116659992D02*
G01*
X123194369Y-116762780D01*
X123508363Y-116929733D01*
X123783949Y-117154494D01*
X124010632Y-117428506D01*
X124179774Y-117741329D01*
X124284934Y-118081045D01*
X124322983Y-118443058D01*
X124323001Y-118448060D01*
X124322999Y-126438797D01*
X124287449Y-126801363D01*
X124184661Y-127141811D01*
X124017706Y-127455807D01*
X123792944Y-127731392D01*
X123518934Y-127958073D01*
X123206112Y-128127215D01*
X122866395Y-128232375D01*
X122504381Y-128270424D01*
X122499664Y-128270441D01*
X121508652Y-128270441D01*
X121146073Y-128234890D01*
X120805632Y-128132104D01*
X120491632Y-127965146D01*
X120216050Y-127740386D01*
X119989367Y-127466373D01*
X119820225Y-127153551D01*
X119715065Y-126813833D01*
X119677017Y-126451821D01*
X119677000Y-126447105D01*
X119677000Y-118456095D01*
X119712551Y-118093520D01*
X119815336Y-117753077D01*
X119982291Y-117439079D01*
X120207056Y-117163490D01*
X120481066Y-116936809D01*
X120793889Y-116767667D01*
X121133605Y-116662507D01*
X121495618Y-116624458D01*
X121500336Y-116624441D01*
X122491345Y-116624441D01*
X122853924Y-116659992D01*
G37*
%TD.AperFunction*%
D10*
X84174331Y-120224469D02*
X84595055Y-120398738D01*
X84973696Y-120651738D01*
X85295703Y-120973745D01*
X85548703Y-121352386D01*
X85722972Y-121773110D01*
X85811814Y-122219747D01*
X85811814Y-122675135D01*
X85722972Y-123121772D01*
X85548703Y-123542496D01*
X85295703Y-123921137D01*
X84973696Y-124243144D01*
X84595055Y-124496144D01*
X84174331Y-124670413D01*
X83727694Y-124759255D01*
X83272306Y-124759255D01*
X82825669Y-124670413D01*
X82404945Y-124496144D01*
X82026304Y-124243144D01*
X81704297Y-123921137D01*
X81451297Y-123542496D01*
X81277028Y-123121772D01*
X81188186Y-122675135D01*
X81188186Y-122219747D01*
X81277028Y-121773110D01*
X81451297Y-121352386D01*
X81704297Y-120973745D01*
X82026304Y-120651738D01*
X82404945Y-120398738D01*
X82825669Y-120224469D01*
X83272306Y-120135627D01*
X83727694Y-120135627D01*
X84174331Y-120224469D01*
%TA.AperFunction,NonConductor*%
D11*
G36*
X84174331Y-120224469D02*
G01*
X84595055Y-120398738D01*
X84973696Y-120651738D01*
X85295703Y-120973745D01*
X85548703Y-121352386D01*
X85722972Y-121773110D01*
X85811814Y-122219747D01*
X85811814Y-122675135D01*
X85722972Y-123121772D01*
X85548703Y-123542496D01*
X85295703Y-123921137D01*
X84973696Y-124243144D01*
X84595055Y-124496144D01*
X84174331Y-124670413D01*
X83727694Y-124759255D01*
X83272306Y-124759255D01*
X82825669Y-124670413D01*
X82404945Y-124496144D01*
X82026304Y-124243144D01*
X81704297Y-123921137D01*
X81451297Y-123542496D01*
X81277028Y-123121772D01*
X81188186Y-122675135D01*
X81188186Y-122219747D01*
X81277028Y-121773110D01*
X81451297Y-121352386D01*
X81704297Y-120973745D01*
X82026304Y-120651738D01*
X82404945Y-120398738D01*
X82825669Y-120224469D01*
X83272306Y-120135627D01*
X83727694Y-120135627D01*
X84174331Y-120224469D01*
G37*
%TD.AperFunction*%
D10*
X107174331Y-120224469D02*
X107595055Y-120398738D01*
X107973696Y-120651738D01*
X108295703Y-120973745D01*
X108548703Y-121352386D01*
X108722972Y-121773110D01*
X108811814Y-122219747D01*
X108811814Y-122675135D01*
X108722972Y-123121772D01*
X108548703Y-123542496D01*
X108295703Y-123921137D01*
X107973696Y-124243144D01*
X107595055Y-124496144D01*
X107174331Y-124670413D01*
X106727694Y-124759255D01*
X106272306Y-124759255D01*
X105825669Y-124670413D01*
X105404945Y-124496144D01*
X105026304Y-124243144D01*
X104704297Y-123921137D01*
X104451297Y-123542496D01*
X104277028Y-123121772D01*
X104188186Y-122675135D01*
X104188186Y-122219747D01*
X104277028Y-121773110D01*
X104451297Y-121352386D01*
X104704297Y-120973745D01*
X105026304Y-120651738D01*
X105404945Y-120398738D01*
X105825669Y-120224469D01*
X106272306Y-120135627D01*
X106727694Y-120135627D01*
X107174331Y-120224469D01*
%TA.AperFunction,NonConductor*%
D11*
G36*
X107174331Y-120224469D02*
G01*
X107595055Y-120398738D01*
X107973696Y-120651738D01*
X108295703Y-120973745D01*
X108548703Y-121352386D01*
X108722972Y-121773110D01*
X108811814Y-122219747D01*
X108811814Y-122675135D01*
X108722972Y-123121772D01*
X108548703Y-123542496D01*
X108295703Y-123921137D01*
X107973696Y-124243144D01*
X107595055Y-124496144D01*
X107174331Y-124670413D01*
X106727694Y-124759255D01*
X106272306Y-124759255D01*
X105825669Y-124670413D01*
X105404945Y-124496144D01*
X105026304Y-124243144D01*
X104704297Y-123921137D01*
X104451297Y-123542496D01*
X104277028Y-123121772D01*
X104188186Y-122675135D01*
X104188186Y-122219747D01*
X104277028Y-121773110D01*
X104451297Y-121352386D01*
X104704297Y-120973745D01*
X105026304Y-120651738D01*
X105404945Y-120398738D01*
X105825669Y-120224469D01*
X106272306Y-120135627D01*
X106727694Y-120135627D01*
X107174331Y-120224469D01*
G37*
%TD.AperFunction*%
D10*
X99353921Y-105212550D02*
X99694364Y-105315335D01*
X100008362Y-105482290D01*
X100283951Y-105707055D01*
X100510632Y-105981065D01*
X100679774Y-106293888D01*
X100784934Y-106633604D01*
X100822983Y-106995617D01*
X100823001Y-107000617D01*
X100823000Y-107991346D01*
X100787449Y-108353922D01*
X100684661Y-108694370D01*
X100517706Y-109008366D01*
X100292944Y-109283951D01*
X100018934Y-109510632D01*
X99706112Y-109679774D01*
X99366395Y-109784934D01*
X99004381Y-109822983D01*
X98999664Y-109823000D01*
X91008653Y-109823000D01*
X90646077Y-109787449D01*
X90305629Y-109684661D01*
X89991633Y-109517706D01*
X89716048Y-109292944D01*
X89489367Y-109018934D01*
X89320225Y-108706112D01*
X89215065Y-108366395D01*
X89177016Y-108004381D01*
X89176998Y-107999379D01*
X89177000Y-107008644D01*
X89212550Y-106646079D01*
X89315335Y-106305634D01*
X89482293Y-105991633D01*
X89707055Y-105716049D01*
X89981065Y-105489368D01*
X90293891Y-105320224D01*
X90633605Y-105215065D01*
X90995618Y-105177016D01*
X91000336Y-105176999D01*
X98991346Y-105176999D01*
X99353921Y-105212550D01*
%TA.AperFunction,NonConductor*%
D11*
G36*
X99353921Y-105212550D02*
G01*
X99694364Y-105315335D01*
X100008362Y-105482290D01*
X100283951Y-105707055D01*
X100510632Y-105981065D01*
X100679774Y-106293888D01*
X100784934Y-106633604D01*
X100822983Y-106995617D01*
X100823001Y-107000617D01*
X100823000Y-107991346D01*
X100787449Y-108353922D01*
X100684661Y-108694370D01*
X100517706Y-109008366D01*
X100292944Y-109283951D01*
X100018934Y-109510632D01*
X99706112Y-109679774D01*
X99366395Y-109784934D01*
X99004381Y-109822983D01*
X98999664Y-109823000D01*
X91008653Y-109823000D01*
X90646077Y-109787449D01*
X90305629Y-109684661D01*
X89991633Y-109517706D01*
X89716048Y-109292944D01*
X89489367Y-109018934D01*
X89320225Y-108706112D01*
X89215065Y-108366395D01*
X89177016Y-108004381D01*
X89176998Y-107999379D01*
X89177000Y-107008644D01*
X89212550Y-106646079D01*
X89315335Y-106305634D01*
X89482293Y-105991633D01*
X89707055Y-105716049D01*
X89981065Y-105489368D01*
X90293891Y-105320224D01*
X90633605Y-105215065D01*
X90995618Y-105177016D01*
X91000336Y-105176999D01*
X98991346Y-105176999D01*
X99353921Y-105212550D01*
G37*
%TD.AperFunction*%
D10*
X120853921Y-105212551D02*
X121194364Y-105315336D01*
X121508362Y-105482291D01*
X121783951Y-105707056D01*
X122010632Y-105981066D01*
X122179774Y-106293889D01*
X122284934Y-106633605D01*
X122322983Y-106995618D01*
X122323001Y-107000618D01*
X122323000Y-107991346D01*
X122287449Y-108353922D01*
X122184661Y-108694370D01*
X122017706Y-109008366D01*
X121792944Y-109283951D01*
X121518934Y-109510632D01*
X121206112Y-109679774D01*
X120866395Y-109784934D01*
X120504381Y-109822983D01*
X120499664Y-109823000D01*
X112508663Y-109823000D01*
X112146074Y-109787448D01*
X111805630Y-109684660D01*
X111491635Y-109517707D01*
X111216051Y-109292946D01*
X110989370Y-109018935D01*
X110820225Y-108706108D01*
X110715065Y-108366393D01*
X110677017Y-108004382D01*
X110677000Y-107999664D01*
X110677000Y-107008644D01*
X110712550Y-106646079D01*
X110815335Y-106305634D01*
X110982293Y-105991633D01*
X111207055Y-105716049D01*
X111481065Y-105489368D01*
X111793891Y-105320224D01*
X112133605Y-105215065D01*
X112495618Y-105177016D01*
X112500336Y-105176999D01*
X120491336Y-105176999D01*
X120853921Y-105212551D01*
%TA.AperFunction,NonConductor*%
D11*
G36*
X120853921Y-105212551D02*
G01*
X121194364Y-105315336D01*
X121508362Y-105482291D01*
X121783951Y-105707056D01*
X122010632Y-105981066D01*
X122179774Y-106293889D01*
X122284934Y-106633605D01*
X122322983Y-106995618D01*
X122323001Y-107000618D01*
X122323000Y-107991346D01*
X122287449Y-108353922D01*
X122184661Y-108694370D01*
X122017706Y-109008366D01*
X121792944Y-109283951D01*
X121518934Y-109510632D01*
X121206112Y-109679774D01*
X120866395Y-109784934D01*
X120504381Y-109822983D01*
X120499664Y-109823000D01*
X112508663Y-109823000D01*
X112146074Y-109787448D01*
X111805630Y-109684660D01*
X111491635Y-109517707D01*
X111216051Y-109292946D01*
X110989370Y-109018935D01*
X110820225Y-108706108D01*
X110715065Y-108366393D01*
X110677017Y-108004382D01*
X110677000Y-107999664D01*
X110677000Y-107008644D01*
X110712550Y-106646079D01*
X110815335Y-106305634D01*
X110982293Y-105991633D01*
X111207055Y-105716049D01*
X111481065Y-105489368D01*
X111793891Y-105320224D01*
X112133605Y-105215065D01*
X112495618Y-105177016D01*
X112500336Y-105176999D01*
X120491336Y-105176999D01*
X120853921Y-105212551D01*
G37*
%TD.AperFunction*%
D10*
X77853921Y-105212551D02*
X78194364Y-105315336D01*
X78508362Y-105482291D01*
X78783951Y-105707056D01*
X79010632Y-105981066D01*
X79179774Y-106293889D01*
X79284934Y-106633605D01*
X79322983Y-106995618D01*
X79323001Y-107000618D01*
X79323000Y-107991346D01*
X79287449Y-108353922D01*
X79184661Y-108694370D01*
X79017706Y-109008366D01*
X78792944Y-109283951D01*
X78518934Y-109510632D01*
X78206112Y-109679774D01*
X77866395Y-109784934D01*
X77504381Y-109822983D01*
X77499664Y-109823000D01*
X69508663Y-109823000D01*
X69146074Y-109787448D01*
X68805630Y-109684660D01*
X68491635Y-109517707D01*
X68216051Y-109292946D01*
X67989370Y-109018935D01*
X67820225Y-108706108D01*
X67715065Y-108366393D01*
X67677017Y-108004382D01*
X67677000Y-107999664D01*
X67677000Y-107008644D01*
X67712550Y-106646079D01*
X67815335Y-106305634D01*
X67982293Y-105991633D01*
X68207055Y-105716049D01*
X68481065Y-105489368D01*
X68793891Y-105320224D01*
X69133605Y-105215065D01*
X69495618Y-105177016D01*
X69500336Y-105176999D01*
X77491336Y-105176999D01*
X77853921Y-105212551D01*
%TA.AperFunction,NonConductor*%
D11*
G36*
X77853921Y-105212551D02*
G01*
X78194364Y-105315336D01*
X78508362Y-105482291D01*
X78783951Y-105707056D01*
X79010632Y-105981066D01*
X79179774Y-106293889D01*
X79284934Y-106633605D01*
X79322983Y-106995618D01*
X79323001Y-107000618D01*
X79323000Y-107991346D01*
X79287449Y-108353922D01*
X79184661Y-108694370D01*
X79017706Y-109008366D01*
X78792944Y-109283951D01*
X78518934Y-109510632D01*
X78206112Y-109679774D01*
X77866395Y-109784934D01*
X77504381Y-109822983D01*
X77499664Y-109823000D01*
X69508663Y-109823000D01*
X69146074Y-109787448D01*
X68805630Y-109684660D01*
X68491635Y-109517707D01*
X68216051Y-109292946D01*
X67989370Y-109018935D01*
X67820225Y-108706108D01*
X67715065Y-108366393D01*
X67677017Y-108004382D01*
X67677000Y-107999664D01*
X67677000Y-107008644D01*
X67712550Y-106646079D01*
X67815335Y-106305634D01*
X67982293Y-105991633D01*
X68207055Y-105716049D01*
X68481065Y-105489368D01*
X68793891Y-105320224D01*
X69133605Y-105215065D01*
X69495618Y-105177016D01*
X69500336Y-105176999D01*
X77491336Y-105176999D01*
X77853921Y-105212551D01*
G37*
%TD.AperFunction*%
D10*
X74174331Y-89777028D02*
X74595055Y-89951297D01*
X74973696Y-90204297D01*
X75295703Y-90526304D01*
X75548703Y-90904945D01*
X75722972Y-91325669D01*
X75811814Y-91772306D01*
X75811814Y-92227694D01*
X75722972Y-92674331D01*
X75548703Y-93095055D01*
X75295703Y-93473696D01*
X74973696Y-93795703D01*
X74595055Y-94048703D01*
X74174331Y-94222972D01*
X73727694Y-94311814D01*
X73272306Y-94311814D01*
X72825669Y-94222972D01*
X72404945Y-94048703D01*
X72026304Y-93795703D01*
X71704297Y-93473696D01*
X71451297Y-93095055D01*
X71277028Y-92674331D01*
X71188186Y-92227694D01*
X71188186Y-91772306D01*
X71277028Y-91325669D01*
X71451297Y-90904945D01*
X71704297Y-90526304D01*
X72026304Y-90204297D01*
X72404945Y-89951297D01*
X72825669Y-89777028D01*
X73272306Y-89688186D01*
X73727694Y-89688186D01*
X74174331Y-89777028D01*
%TA.AperFunction,NonConductor*%
D11*
G36*
X74174331Y-89777028D02*
G01*
X74595055Y-89951297D01*
X74973696Y-90204297D01*
X75295703Y-90526304D01*
X75548703Y-90904945D01*
X75722972Y-91325669D01*
X75811814Y-91772306D01*
X75811814Y-92227694D01*
X75722972Y-92674331D01*
X75548703Y-93095055D01*
X75295703Y-93473696D01*
X74973696Y-93795703D01*
X74595055Y-94048703D01*
X74174331Y-94222972D01*
X73727694Y-94311814D01*
X73272306Y-94311814D01*
X72825669Y-94222972D01*
X72404945Y-94048703D01*
X72026304Y-93795703D01*
X71704297Y-93473696D01*
X71451297Y-93095055D01*
X71277028Y-92674331D01*
X71188186Y-92227694D01*
X71188186Y-91772306D01*
X71277028Y-91325669D01*
X71451297Y-90904945D01*
X71704297Y-90526304D01*
X72026304Y-90204297D01*
X72404945Y-89951297D01*
X72825669Y-89777028D01*
X73272306Y-89688186D01*
X73727694Y-89688186D01*
X74174331Y-89777028D01*
G37*
%TD.AperFunction*%
D10*
X117174331Y-89777028D02*
X117595055Y-89951297D01*
X117973696Y-90204297D01*
X118295703Y-90526304D01*
X118548703Y-90904945D01*
X118722972Y-91325669D01*
X118811814Y-91772306D01*
X118811814Y-92227694D01*
X118722972Y-92674331D01*
X118548703Y-93095055D01*
X118295703Y-93473696D01*
X117973696Y-93795703D01*
X117595055Y-94048703D01*
X117174331Y-94222972D01*
X116727694Y-94311814D01*
X116272306Y-94311814D01*
X115825669Y-94222972D01*
X115404945Y-94048703D01*
X115026304Y-93795703D01*
X114704297Y-93473696D01*
X114451297Y-93095055D01*
X114277028Y-92674331D01*
X114188186Y-92227694D01*
X114188186Y-91772306D01*
X114277028Y-91325669D01*
X114451297Y-90904945D01*
X114704297Y-90526304D01*
X115026304Y-90204297D01*
X115404945Y-89951297D01*
X115825669Y-89777028D01*
X116272306Y-89688186D01*
X116727694Y-89688186D01*
X117174331Y-89777028D01*
%TA.AperFunction,NonConductor*%
D11*
G36*
X117174331Y-89777028D02*
G01*
X117595055Y-89951297D01*
X117973696Y-90204297D01*
X118295703Y-90526304D01*
X118548703Y-90904945D01*
X118722972Y-91325669D01*
X118811814Y-91772306D01*
X118811814Y-92227694D01*
X118722972Y-92674331D01*
X118548703Y-93095055D01*
X118295703Y-93473696D01*
X117973696Y-93795703D01*
X117595055Y-94048703D01*
X117174331Y-94222972D01*
X116727694Y-94311814D01*
X116272306Y-94311814D01*
X115825669Y-94222972D01*
X115404945Y-94048703D01*
X115026304Y-93795703D01*
X114704297Y-93473696D01*
X114451297Y-93095055D01*
X114277028Y-92674331D01*
X114188186Y-92227694D01*
X114188186Y-91772306D01*
X114277028Y-91325669D01*
X114451297Y-90904945D01*
X114704297Y-90526304D01*
X115026304Y-90204297D01*
X115404945Y-89951297D01*
X115825669Y-89777028D01*
X116272306Y-89688186D01*
X116727694Y-89688186D01*
X117174331Y-89777028D01*
G37*
%TD.AperFunction*%
D10*
X95674331Y-89777028D02*
X96095055Y-89951297D01*
X96473696Y-90204297D01*
X96795703Y-90526304D01*
X97048703Y-90904945D01*
X97222972Y-91325669D01*
X97311814Y-91772306D01*
X97311814Y-92227694D01*
X97222972Y-92674331D01*
X97048703Y-93095055D01*
X96795703Y-93473696D01*
X96473696Y-93795703D01*
X96095055Y-94048703D01*
X95674331Y-94222972D01*
X95227694Y-94311814D01*
X94772306Y-94311814D01*
X94325669Y-94222972D01*
X93904945Y-94048703D01*
X93526304Y-93795703D01*
X93204297Y-93473696D01*
X92951297Y-93095055D01*
X92777028Y-92674331D01*
X92688186Y-92227694D01*
X92688186Y-91772306D01*
X92777028Y-91325669D01*
X92951297Y-90904945D01*
X93204297Y-90526304D01*
X93526304Y-90204297D01*
X93904945Y-89951297D01*
X94325669Y-89777028D01*
X94772306Y-89688186D01*
X95227694Y-89688186D01*
X95674331Y-89777028D01*
%TA.AperFunction,NonConductor*%
D11*
G36*
X95674331Y-89777028D02*
G01*
X96095055Y-89951297D01*
X96473696Y-90204297D01*
X96795703Y-90526304D01*
X97048703Y-90904945D01*
X97222972Y-91325669D01*
X97311814Y-91772306D01*
X97311814Y-92227694D01*
X97222972Y-92674331D01*
X97048703Y-93095055D01*
X96795703Y-93473696D01*
X96473696Y-93795703D01*
X96095055Y-94048703D01*
X95674331Y-94222972D01*
X95227694Y-94311814D01*
X94772306Y-94311814D01*
X94325669Y-94222972D01*
X93904945Y-94048703D01*
X93526304Y-93795703D01*
X93204297Y-93473696D01*
X92951297Y-93095055D01*
X92777028Y-92674331D01*
X92688186Y-92227694D01*
X92688186Y-91772306D01*
X92777028Y-91325669D01*
X92951297Y-90904945D01*
X93204297Y-90526304D01*
X93526304Y-90204297D01*
X93904945Y-89951297D01*
X94325669Y-89777028D01*
X94772306Y-89688186D01*
X95227694Y-89688186D01*
X95674331Y-89777028D01*
G37*
%TD.AperFunction*%
D10*
X122853921Y-71712551D02*
X123194364Y-71815336D01*
X123508362Y-71982291D01*
X123783951Y-72207056D01*
X124010632Y-72481066D01*
X124179774Y-72793889D01*
X124284934Y-73133605D01*
X124322983Y-73495618D01*
X124323001Y-73500620D01*
X124323000Y-77491335D01*
X124287448Y-77853924D01*
X124184663Y-78194365D01*
X124017707Y-78508363D01*
X123792943Y-78783952D01*
X123518934Y-79010632D01*
X123206112Y-79179774D01*
X122866395Y-79284934D01*
X122504381Y-79322983D01*
X122499378Y-79323001D01*
X112989417Y-79322999D01*
X112626861Y-79287450D01*
X112286413Y-79184662D01*
X111972418Y-79017708D01*
X111696834Y-78792947D01*
X111470151Y-78518935D01*
X111301007Y-78206109D01*
X111195848Y-77866395D01*
X111158676Y-77512725D01*
X111191000Y-77157531D01*
X111277759Y-76849538D01*
X112780635Y-72864784D01*
X112941854Y-72538069D01*
X113158166Y-72255801D01*
X113425186Y-72020924D01*
X113732743Y-71842384D01*
X114069118Y-71726982D01*
X114428483Y-71678166D01*
X114491043Y-71677000D01*
X122491346Y-71677000D01*
X122853921Y-71712551D01*
%TA.AperFunction,NonConductor*%
D11*
G36*
X122853921Y-71712551D02*
G01*
X123194364Y-71815336D01*
X123508362Y-71982291D01*
X123783951Y-72207056D01*
X124010632Y-72481066D01*
X124179774Y-72793889D01*
X124284934Y-73133605D01*
X124322983Y-73495618D01*
X124323001Y-73500620D01*
X124323000Y-77491335D01*
X124287448Y-77853924D01*
X124184663Y-78194365D01*
X124017707Y-78508363D01*
X123792943Y-78783952D01*
X123518934Y-79010632D01*
X123206112Y-79179774D01*
X122866395Y-79284934D01*
X122504381Y-79322983D01*
X122499378Y-79323001D01*
X112989417Y-79322999D01*
X112626861Y-79287450D01*
X112286413Y-79184662D01*
X111972418Y-79017708D01*
X111696834Y-78792947D01*
X111470151Y-78518935D01*
X111301007Y-78206109D01*
X111195848Y-77866395D01*
X111158676Y-77512725D01*
X111191000Y-77157531D01*
X111277759Y-76849538D01*
X112780635Y-72864784D01*
X112941854Y-72538069D01*
X113158166Y-72255801D01*
X113425186Y-72020924D01*
X113732743Y-71842384D01*
X114069118Y-71726982D01*
X114428483Y-71678166D01*
X114491043Y-71677000D01*
X122491346Y-71677000D01*
X122853921Y-71712551D01*
G37*
%TD.AperFunction*%
D10*
X75864512Y-71712551D02*
X76204955Y-71815336D01*
X76518953Y-71982291D01*
X76794542Y-72207056D01*
X77021223Y-72481066D01*
X77193713Y-72800081D01*
X77216914Y-72858287D01*
X78721877Y-76848579D01*
X78816563Y-77200374D01*
X78840531Y-77555193D01*
X78795125Y-77907902D01*
X78682074Y-78245075D01*
X78505686Y-78553870D01*
X78272677Y-78822523D01*
X77991926Y-79040801D01*
X77674126Y-79200389D01*
X77330378Y-79295488D01*
X77011588Y-79322999D01*
X67508635Y-79322999D01*
X67146079Y-79287450D01*
X66805630Y-79184662D01*
X66491636Y-79017709D01*
X66216052Y-78792948D01*
X65989369Y-78518936D01*
X65820224Y-78206110D01*
X65715065Y-77866396D01*
X65677016Y-77504382D01*
X65676999Y-77499663D01*
X65676999Y-73508654D01*
X65712550Y-73146079D01*
X65815335Y-72805636D01*
X65982290Y-72491638D01*
X66207055Y-72216049D01*
X66481065Y-71989368D01*
X66793888Y-71820226D01*
X67133604Y-71715066D01*
X67495617Y-71677017D01*
X67500335Y-71677000D01*
X75501937Y-71677000D01*
X75864512Y-71712551D01*
%TA.AperFunction,NonConductor*%
D11*
G36*
X75864512Y-71712551D02*
G01*
X76204955Y-71815336D01*
X76518953Y-71982291D01*
X76794542Y-72207056D01*
X77021223Y-72481066D01*
X77193713Y-72800081D01*
X77216914Y-72858287D01*
X78721877Y-76848579D01*
X78816563Y-77200374D01*
X78840531Y-77555193D01*
X78795125Y-77907902D01*
X78682074Y-78245075D01*
X78505686Y-78553870D01*
X78272677Y-78822523D01*
X77991926Y-79040801D01*
X77674126Y-79200389D01*
X77330378Y-79295488D01*
X77011588Y-79322999D01*
X67508635Y-79322999D01*
X67146079Y-79287450D01*
X66805630Y-79184662D01*
X66491636Y-79017709D01*
X66216052Y-78792948D01*
X65989369Y-78518936D01*
X65820224Y-78206110D01*
X65715065Y-77866396D01*
X65677016Y-77504382D01*
X65676999Y-77499663D01*
X65676999Y-73508654D01*
X65712550Y-73146079D01*
X65815335Y-72805636D01*
X65982290Y-72491638D01*
X66207055Y-72216049D01*
X66481065Y-71989368D01*
X66793888Y-71820226D01*
X67133604Y-71715066D01*
X67495617Y-71677017D01*
X67500335Y-71677000D01*
X75501937Y-71677000D01*
X75864512Y-71712551D01*
G37*
%TD.AperFunction*%
D10*
X96467524Y-59799902D02*
X97614039Y-60073131D01*
X98713907Y-60496737D01*
X99747501Y-61063161D01*
X100696375Y-61762297D01*
X101543597Y-62581666D01*
X102274048Y-63506649D01*
X102874694Y-64520738D01*
X103334815Y-65605837D01*
X103646202Y-66742582D01*
X103803297Y-67910689D01*
X103803297Y-69089311D01*
X103646202Y-70257418D01*
X103334815Y-71394163D01*
X102874694Y-72479262D01*
X102274048Y-73493351D01*
X101543597Y-74418334D01*
X100696375Y-75237703D01*
X99747501Y-75936839D01*
X98713907Y-76503263D01*
X97614039Y-76926869D01*
X96467524Y-77200098D01*
X95294820Y-77318073D01*
X94116856Y-77278689D01*
X92954651Y-77082650D01*
X91828945Y-76733453D01*
X90759827Y-76237329D01*
X89766375Y-75603133D01*
X88866317Y-74842181D01*
X88075715Y-73968053D01*
X87408677Y-72996348D01*
X86877106Y-71944405D01*
X86490488Y-70830996D01*
X86255723Y-69675991D01*
X86177000Y-68500000D01*
X86255723Y-67324009D01*
X86490488Y-66169004D01*
X86877106Y-65055595D01*
X87408677Y-64003652D01*
X88075715Y-63031947D01*
X88866317Y-62157819D01*
X89766375Y-61396867D01*
X90759827Y-60762671D01*
X91828945Y-60266547D01*
X92954651Y-59917350D01*
X94116856Y-59721311D01*
X95294820Y-59681927D01*
X96467524Y-59799902D01*
%TA.AperFunction,NonConductor*%
D11*
G36*
X96467524Y-59799902D02*
G01*
X97614039Y-60073131D01*
X98713907Y-60496737D01*
X99747501Y-61063161D01*
X100696375Y-61762297D01*
X101543597Y-62581666D01*
X102274048Y-63506649D01*
X102874694Y-64520738D01*
X103334815Y-65605837D01*
X103646202Y-66742582D01*
X103803297Y-67910689D01*
X103803297Y-69089311D01*
X103646202Y-70257418D01*
X103334815Y-71394163D01*
X102874694Y-72479262D01*
X102274048Y-73493351D01*
X101543597Y-74418334D01*
X100696375Y-75237703D01*
X99747501Y-75936839D01*
X98713907Y-76503263D01*
X97614039Y-76926869D01*
X96467524Y-77200098D01*
X95294820Y-77318073D01*
X94116856Y-77278689D01*
X92954651Y-77082650D01*
X91828945Y-76733453D01*
X90759827Y-76237329D01*
X89766375Y-75603133D01*
X88866317Y-74842181D01*
X88075715Y-73968053D01*
X87408677Y-72996348D01*
X86877106Y-71944405D01*
X86490488Y-70830996D01*
X86255723Y-69675991D01*
X86177000Y-68500000D01*
X86255723Y-67324009D01*
X86490488Y-66169004D01*
X86877106Y-65055595D01*
X87408677Y-64003652D01*
X88075715Y-63031947D01*
X88866317Y-62157819D01*
X89766375Y-61396867D01*
X90759827Y-60762671D01*
X91828945Y-60266547D01*
X92954651Y-59917350D01*
X94116856Y-59721311D01*
X95294820Y-59681927D01*
X96467524Y-59799902D01*
G37*
%TD.AperFunction*%
D10*
X77373140Y-57712551D02*
X77713585Y-57815339D01*
X78027579Y-57982292D01*
X78303165Y-58207053D01*
X78529848Y-58481065D01*
X78698990Y-58793888D01*
X78804150Y-59133604D01*
X78841323Y-59487274D01*
X78808997Y-59842478D01*
X78722242Y-60150453D01*
X77219364Y-64135216D01*
X77058145Y-64461931D01*
X76841834Y-64744197D01*
X76574815Y-64979075D01*
X76267256Y-65157616D01*
X75930881Y-65273018D01*
X75571516Y-65321834D01*
X75508956Y-65323000D01*
X67508654Y-65323000D01*
X67146078Y-65287449D01*
X66805630Y-65184661D01*
X66491634Y-65017706D01*
X66216049Y-64792944D01*
X65989368Y-64518934D01*
X65820226Y-64206112D01*
X65715066Y-63866395D01*
X65677017Y-63504381D01*
X65677000Y-63499663D01*
X65676998Y-59508684D01*
X65712551Y-59146079D01*
X65815338Y-58805632D01*
X65982294Y-58491634D01*
X66207056Y-58216049D01*
X66481065Y-57989369D01*
X66793891Y-57820225D01*
X67133604Y-57715066D01*
X67495617Y-57677017D01*
X67500337Y-57677000D01*
X77010561Y-57677000D01*
X77373140Y-57712551D01*
%TA.AperFunction,NonConductor*%
D11*
G36*
X77373140Y-57712551D02*
G01*
X77713585Y-57815339D01*
X78027579Y-57982292D01*
X78303165Y-58207053D01*
X78529848Y-58481065D01*
X78698990Y-58793888D01*
X78804150Y-59133604D01*
X78841323Y-59487274D01*
X78808997Y-59842478D01*
X78722242Y-60150453D01*
X77219364Y-64135216D01*
X77058145Y-64461931D01*
X76841834Y-64744197D01*
X76574815Y-64979075D01*
X76267256Y-65157616D01*
X75930881Y-65273018D01*
X75571516Y-65321834D01*
X75508956Y-65323000D01*
X67508654Y-65323000D01*
X67146078Y-65287449D01*
X66805630Y-65184661D01*
X66491634Y-65017706D01*
X66216049Y-64792944D01*
X65989368Y-64518934D01*
X65820226Y-64206112D01*
X65715066Y-63866395D01*
X65677017Y-63504381D01*
X65677000Y-63499663D01*
X65676998Y-59508684D01*
X65712551Y-59146079D01*
X65815338Y-58805632D01*
X65982294Y-58491634D01*
X66207056Y-58216049D01*
X66481065Y-57989369D01*
X66793891Y-57820225D01*
X67133604Y-57715066D01*
X67495617Y-57677017D01*
X67500337Y-57677000D01*
X77010561Y-57677000D01*
X77373140Y-57712551D01*
G37*
%TD.AperFunction*%
D10*
X122853919Y-57712549D02*
X123194364Y-57815335D01*
X123508363Y-57982290D01*
X123783949Y-58207053D01*
X124010630Y-58481063D01*
X124179775Y-58793888D01*
X124284934Y-59133603D01*
X124322983Y-59495616D01*
X124323001Y-59500620D01*
X124323000Y-63491345D01*
X124287449Y-63853921D01*
X124184661Y-64194369D01*
X124017706Y-64508365D01*
X123792944Y-64783950D01*
X123518934Y-65010631D01*
X123206112Y-65179773D01*
X122866395Y-65284933D01*
X122504381Y-65322982D01*
X122499664Y-65322999D01*
X114498062Y-65322999D01*
X114135486Y-65287448D01*
X113795038Y-65184660D01*
X113481042Y-65017705D01*
X113205457Y-64792943D01*
X112978776Y-64518933D01*
X112806283Y-64199912D01*
X112783092Y-64141730D01*
X111278128Y-60151439D01*
X111183437Y-59799625D01*
X111159469Y-59444805D01*
X111204875Y-59092099D01*
X111317926Y-58754924D01*
X111494313Y-58446131D01*
X111727320Y-58177478D01*
X112008072Y-57959199D01*
X112325873Y-57799610D01*
X112669621Y-57704511D01*
X112988411Y-57677000D01*
X122491344Y-57676998D01*
X122853919Y-57712549D01*
%TA.AperFunction,NonConductor*%
D11*
G36*
X122853919Y-57712549D02*
G01*
X123194364Y-57815335D01*
X123508363Y-57982290D01*
X123783949Y-58207053D01*
X124010630Y-58481063D01*
X124179775Y-58793888D01*
X124284934Y-59133603D01*
X124322983Y-59495616D01*
X124323001Y-59500620D01*
X124323000Y-63491345D01*
X124287449Y-63853921D01*
X124184661Y-64194369D01*
X124017706Y-64508365D01*
X123792944Y-64783950D01*
X123518934Y-65010631D01*
X123206112Y-65179773D01*
X122866395Y-65284933D01*
X122504381Y-65322982D01*
X122499664Y-65322999D01*
X114498062Y-65322999D01*
X114135486Y-65287448D01*
X113795038Y-65184660D01*
X113481042Y-65017705D01*
X113205457Y-64792943D01*
X112978776Y-64518933D01*
X112806283Y-64199912D01*
X112783092Y-64141730D01*
X111278128Y-60151439D01*
X111183437Y-59799625D01*
X111159469Y-59444805D01*
X111204875Y-59092099D01*
X111317926Y-58754924D01*
X111494313Y-58446131D01*
X111727320Y-58177478D01*
X112008072Y-57959199D01*
X112325873Y-57799610D01*
X112669621Y-57704511D01*
X112988411Y-57677000D01*
X122491344Y-57676998D01*
X122853919Y-57712549D01*
G37*
%TD.AperFunction*%
D10*
X81353921Y-41712551D02*
X81694364Y-41815336D01*
X82008362Y-41982291D01*
X82283951Y-42207056D01*
X82510632Y-42481066D01*
X82679774Y-42793889D01*
X82784934Y-43133605D01*
X82822983Y-43495618D01*
X82823001Y-43500620D01*
X82823000Y-48491336D01*
X82787448Y-48853922D01*
X82684660Y-49194370D01*
X82517705Y-49508366D01*
X82292943Y-49783951D01*
X82018933Y-50010632D01*
X81706111Y-50179774D01*
X81366394Y-50284934D01*
X81004380Y-50322983D01*
X80999380Y-50323001D01*
X73008644Y-50322999D01*
X72646078Y-50287449D01*
X72305630Y-50184661D01*
X71991634Y-50017706D01*
X71716049Y-49792944D01*
X71489368Y-49518934D01*
X71320226Y-49206112D01*
X71215066Y-48866395D01*
X71177017Y-48504381D01*
X71177000Y-48499664D01*
X71177000Y-43508654D01*
X71212551Y-43146079D01*
X71315336Y-42805636D01*
X71482291Y-42491638D01*
X71707056Y-42216049D01*
X71981066Y-41989368D01*
X72293889Y-41820226D01*
X72633605Y-41715066D01*
X72995618Y-41677017D01*
X73000336Y-41677000D01*
X80991346Y-41677000D01*
X81353921Y-41712551D01*
%TA.AperFunction,NonConductor*%
D11*
G36*
X81353921Y-41712551D02*
G01*
X81694364Y-41815336D01*
X82008362Y-41982291D01*
X82283951Y-42207056D01*
X82510632Y-42481066D01*
X82679774Y-42793889D01*
X82784934Y-43133605D01*
X82822983Y-43495618D01*
X82823001Y-43500620D01*
X82823000Y-48491336D01*
X82787448Y-48853922D01*
X82684660Y-49194370D01*
X82517705Y-49508366D01*
X82292943Y-49783951D01*
X82018933Y-50010632D01*
X81706111Y-50179774D01*
X81366394Y-50284934D01*
X81004380Y-50322983D01*
X80999380Y-50323001D01*
X73008644Y-50322999D01*
X72646078Y-50287449D01*
X72305630Y-50184661D01*
X71991634Y-50017706D01*
X71716049Y-49792944D01*
X71489368Y-49518934D01*
X71320226Y-49206112D01*
X71215066Y-48866395D01*
X71177017Y-48504381D01*
X71177000Y-48499664D01*
X71177000Y-43508654D01*
X71212551Y-43146079D01*
X71315336Y-42805636D01*
X71482291Y-42491638D01*
X71707056Y-42216049D01*
X71981066Y-41989368D01*
X72293889Y-41820226D01*
X72633605Y-41715066D01*
X72995618Y-41677017D01*
X73000336Y-41677000D01*
X80991346Y-41677000D01*
X81353921Y-41712551D01*
G37*
%TD.AperFunction*%
D10*
X117353921Y-41712551D02*
X117694364Y-41815336D01*
X118008362Y-41982291D01*
X118283951Y-42207056D01*
X118510632Y-42481066D01*
X118679774Y-42793889D01*
X118784934Y-43133605D01*
X118822983Y-43495618D01*
X118823001Y-43500620D01*
X118823000Y-48491336D01*
X118787448Y-48853922D01*
X118684660Y-49194370D01*
X118517705Y-49508366D01*
X118292943Y-49783951D01*
X118018933Y-50010632D01*
X117706111Y-50179774D01*
X117366394Y-50284934D01*
X117004380Y-50322983D01*
X116999380Y-50323001D01*
X109008644Y-50322999D01*
X108646078Y-50287449D01*
X108305630Y-50184661D01*
X107991634Y-50017706D01*
X107716049Y-49792944D01*
X107489368Y-49518934D01*
X107320226Y-49206112D01*
X107215066Y-48866395D01*
X107177017Y-48504381D01*
X107177000Y-48499664D01*
X107177000Y-43508654D01*
X107212551Y-43146079D01*
X107315336Y-42805636D01*
X107482291Y-42491638D01*
X107707056Y-42216049D01*
X107981066Y-41989368D01*
X108293889Y-41820226D01*
X108633605Y-41715066D01*
X108995618Y-41677017D01*
X109000336Y-41677000D01*
X116991346Y-41677000D01*
X117353921Y-41712551D01*
%TA.AperFunction,NonConductor*%
D11*
G36*
X117353921Y-41712551D02*
G01*
X117694364Y-41815336D01*
X118008362Y-41982291D01*
X118283951Y-42207056D01*
X118510632Y-42481066D01*
X118679774Y-42793889D01*
X118784934Y-43133605D01*
X118822983Y-43495618D01*
X118823001Y-43500620D01*
X118823000Y-48491336D01*
X118787448Y-48853922D01*
X118684660Y-49194370D01*
X118517705Y-49508366D01*
X118292943Y-49783951D01*
X118018933Y-50010632D01*
X117706111Y-50179774D01*
X117366394Y-50284934D01*
X117004380Y-50322983D01*
X116999380Y-50323001D01*
X109008644Y-50322999D01*
X108646078Y-50287449D01*
X108305630Y-50184661D01*
X107991634Y-50017706D01*
X107716049Y-49792944D01*
X107489368Y-49518934D01*
X107320226Y-49206112D01*
X107215066Y-48866395D01*
X107177017Y-48504381D01*
X107177000Y-48499664D01*
X107177000Y-43508654D01*
X107212551Y-43146079D01*
X107315336Y-42805636D01*
X107482291Y-42491638D01*
X107707056Y-42216049D01*
X107981066Y-41989368D01*
X108293889Y-41820226D01*
X108633605Y-41715066D01*
X108995618Y-41677017D01*
X109000336Y-41677000D01*
X116991346Y-41677000D01*
X117353921Y-41712551D01*
G37*
%TD.AperFunction*%
D10*
X99353921Y-41712551D02*
X99694364Y-41815336D01*
X100008362Y-41982291D01*
X100283951Y-42207056D01*
X100510632Y-42481066D01*
X100679774Y-42793889D01*
X100784934Y-43133605D01*
X100822983Y-43495618D01*
X100823001Y-43500620D01*
X100823000Y-48491325D01*
X100787447Y-48853925D01*
X100684659Y-49194369D01*
X100517706Y-49508364D01*
X100292945Y-49783948D01*
X100018934Y-50010629D01*
X99706107Y-50179774D01*
X99366392Y-50284934D01*
X99004381Y-50322982D01*
X98999664Y-50322999D01*
X91008644Y-50322999D01*
X90646078Y-50287449D01*
X90305630Y-50184661D01*
X89991634Y-50017706D01*
X89716049Y-49792944D01*
X89489368Y-49518934D01*
X89320226Y-49206112D01*
X89215066Y-48866395D01*
X89177017Y-48504381D01*
X89177000Y-48499664D01*
X89177000Y-43508654D01*
X89212551Y-43146079D01*
X89315336Y-42805636D01*
X89482291Y-42491638D01*
X89707056Y-42216049D01*
X89981066Y-41989368D01*
X90293889Y-41820226D01*
X90633605Y-41715066D01*
X90995618Y-41677017D01*
X91000336Y-41677000D01*
X98991346Y-41677000D01*
X99353921Y-41712551D01*
%TA.AperFunction,NonConductor*%
D11*
G36*
X99353921Y-41712551D02*
G01*
X99694364Y-41815336D01*
X100008362Y-41982291D01*
X100283951Y-42207056D01*
X100510632Y-42481066D01*
X100679774Y-42793889D01*
X100784934Y-43133605D01*
X100822983Y-43495618D01*
X100823001Y-43500620D01*
X100823000Y-48491325D01*
X100787447Y-48853925D01*
X100684659Y-49194369D01*
X100517706Y-49508364D01*
X100292945Y-49783948D01*
X100018934Y-50010629D01*
X99706107Y-50179774D01*
X99366392Y-50284934D01*
X99004381Y-50322982D01*
X98999664Y-50322999D01*
X91008644Y-50322999D01*
X90646078Y-50287449D01*
X90305630Y-50184661D01*
X89991634Y-50017706D01*
X89716049Y-49792944D01*
X89489368Y-49518934D01*
X89320226Y-49206112D01*
X89215066Y-48866395D01*
X89177017Y-48504381D01*
X89177000Y-48499664D01*
X89177000Y-43508654D01*
X89212551Y-43146079D01*
X89315336Y-42805636D01*
X89482291Y-42491638D01*
X89707056Y-42216049D01*
X89981066Y-41989368D01*
X90293889Y-41820226D01*
X90633605Y-41715066D01*
X90995618Y-41677017D01*
X91000336Y-41677000D01*
X98991346Y-41677000D01*
X99353921Y-41712551D01*
G37*
%TD.AperFunction*%
M02*
