999
dxfrw 0.6.3
  0
SECTION
  2
HEADER
  9
$ACADVER
  1
AC1021
  9
$DWGCODEPAGE
  3
ANSI_1252
  9
$INSBASE
 10
0
 20
0
 30
0
  9
$EXTMIN
 10
-37.5
 20
-66.5
 30
0
  9
$EXTMAX
 10
37.5
 20
66.5
 30
0
  9
$LIMMIN
 10
0
 20
0
  9
$LIMMAX
 10
420
 20
297
  9
$ORTHOMODE
 70
    0
  9
$REGENMODE
 70
    1
  9
$FILLMODE
 70
    1
  9
$QTEXTMODE
 70
    0
  9
$MIRRTEXT
 70
    0
  9
$LTSCALE
 40
1
  9
$ATTMODE
 70
    0
  9
$TEXTSIZE
 40
1
  9
$TRACEWID
 40
15.68
  9
$TEXTSTYLE
  7
Standard
  9
$CLAYER
  8
0
  9
$CELTYPE
  6
ByLayer
  9
$CECOLOR
 62
  256
  9
$CELTSCALE
 40
1
  9
$DISPSILH
 70
    0
  9
$DIMSCALE
 40
2.5
  9
$DIMASZ
 40
2.5
  9
$DIMEXO
 40
0.625
  9
$DIMDLI
 40
3.75
  9
$DIMRND
 40
0
  9
$DIMDLE
 40
0
  9
$DIMEXE
 40
1.25
  9
$DIMTP
 40
0
  9
$DIMTM
 40
0
  9
$DIMTXT
 40
2.5
  9
$DIMCEN
 40
2.5
  9
$DIMTSZ
 40
0
  9
$DIMTOL
 70
    0
  9
$DIMLIM
 70
    0
  9
$DIMTIH
 70
    0
  9
$DIMTOH
 70
    0
  9
$DIMSE1
 70
    0
  9
$DIMSE2
 70
    0
  9
$DIMTAD
 70
    1
  9
$DIMZIN
 70
    8
  9
$DIMBLK
  1

  9
$DIMASO
 70
    1
  9
$DIMSHO
 70
    1
  9
$DIMPOST
  1

  9
$DIMAPOST
  1

  9
$DIMALT
 70
    0
  9
$DIMALTD
 70
    3
  9
$DIMALTF
 40
0.03937
  9
$DIMLFAC
 40
1
  9
$DIMTOFL
 70
    1
  9
$DIMTVP
 40
0
  9
$DIMTIX
 70
    0
  9
$DIMSOXD
 70
    0
  9
$DIMSAH
 70
    0
  9
$DIMBLK1
  1

  9
$DIMBLK2
  1

  9
$DIMSTYLE
  2
Standard
  9
$DIMCLRD
 70
    0
  9
$DIMCLRE
 70
    0
  9
$DIMCLRT
 70
    0
  9
$DIMTFAC
 40
1
  9
$DIMGAP
 40
0.625
  9
$DIMJUST
 70
    0
  9
$DIMSD1
 70
    0
  9
$DIMSD2
 70
    0
  9
$DIMTOLJ
 70
    0
  9
$DIMTZIN
 70
    8
  9
$DIMALTZ
 70
    0
  9
$DIMALTTZ
 70
    0
  9
$DIMUPT
 70
    0
  9
$DIMDEC
 70
    2
  9
$DIMTDEC
 70
    2
  9
$DIMALTU
 70
    2
  9
$DIMALTTD
 70
    3
  9
$DIMTXSTY
  7
Standard
  9
$DIMAUNIT
 70
    0
  9
$DIMADEC
 70
    0
  9
$DIMALTRND
 40
0
  9
$DIMAZIN
 70
    0
  9
$DIMDSEP
 70
   44
  9
$DIMATFIT
 70
    3
  9
$DIMFRAC
 70
    0
  9
$DIMLDRBLK
  1

  9
$DIMLUNIT
 70
    2
  9
$DIMLWD
 70
   -2
  9
$DIMLWE
 70
   -2
  9
$DIMTMOVE
 70
    0
  9
$DIMFXL
 40
1
  9
$DIMFXLON
 70
    0
  9
$DIMJOGANG
 40
0.7854
  9
$DIMTFILL
 70
    0
  9
$DIMTFILLCLR
 70
    0
  9
$DIMARCSYM
 70
    0
  9
$DIMLTYPE
  6

  9
$DIMLTEX1
  6

  9
$DIMLTEX2
  6

  9
$LUNITS
 70
    2
  9
$LUPREC
 70
    4
  9
$SKETCHINC
 40
1
  9
$FILLETRAD
 40
2
  9
$AUNITS
 70
    0
  9
$AUPREC
 70
    2
  9
$MENU
  1
.
  9
$ELEVATION
 40
0
  9
$PELEVATION
 40
0
  9
$THICKNESS
 40
0
  9
$LIMCHECK
 70
    0
  9
$CHAMFERA
 40
0
  9
$CHAMFERB
 40
0
  9
$CHAMFERC
 40
0
  9
$CHAMFERD
 40
0
  9
$SKPOLY
 70
    0
  9
$USRTIMER
 70
    1
  9
$ANGBASE
 50
0
  9
$ANGDIR
 70
    0
  9
$PDMODE
 70
   34
  9
$PDSIZE
 40
0
  9
$PLINEWID
 40
0
  9
$SPLFRAME
 70
    0
  9
$SPLINETYPE
 70
    6
  9
$SPLINESEGS
 70
    8
  9
$HANDSEED
  5
20000
  9
$SURFTAB1
 70
    6
  9
$SURFTAB2
 70
    6
  9
$SURFTYPE
 70
    6
  9
$SURFU
 70
    6
  9
$SURFV
 70
    6
  9
$UCSBASE
  2

  9
$UCSNAME
  2

  9
$UCSORG
 10
0
 20
0
 30
0
  9
$UCSXDIR
 10
1
 20
0
 30
0
  9
$UCSYDIR
 10
0
 20
1
 30
0
  9
$UCSORTHOREF
  2

  9
$UCSORTHOVIEW
 70
    0
  9
$UCSORGTOP
 10
0
 20
0
 30
0
  9
$UCSORGBOTTOM
 10
0
 20
0
 30
0
  9
$UCSORGLEFT
 10
0
 20
0
 30
0
  9
$UCSORGRIGHT
 10
0
 20
0
 30
0
  9
$UCSORGFRONT
 10
0
 20
0
 30
0
  9
$UCSORGBACK
 10
0
 20
0
 30
0
  9
$PUCSBASE
  2

  9
$PUCSNAME
  2

  9
$PUCSORG
 10
0
 20
0
 30
0
  9
$PUCSXDIR
 10
1
 20
0
 30
0
  9
$PUCSYDIR
 10
0
 20
1
 30
0
  9
$PUCSORTHOREF
  2

  9
$PUCSORTHOVIEW
 70
    0
  9
$PUCSORGTOP
 10
0
 20
0
 30
0
  9
$PUCSORGBOTTOM
 10
0
 20
0
 30
0
  9
$PUCSORGLEFT
 10
0
 20
0
 30
0
  9
$PUCSORGRIGHT
 10
0
 20
0
 30
0
  9
$PUCSORGFRONT
 10
0
 20
0
 30
0
  9
$PUCSORGBACK
 10
0
 20
0
 30
0
  9
$USERI1
 70
    0
  9
$USERI2
 70
    0
  9
$USERI3
 70
    0
  9
$USERI4
 70
    0
  9
$USERI5
 70
    0
  9
$USERR1
 40
0
  9
$USERR2
 40
0
  9
$USERR3
 40
0
  9
$USERR4
 40
0
  9
$USERR5
 40
0
  9
$WORLDVIEW
 70
    1
  9
$SHADEDGE
 70
    3
  9
$SHADEDIF
 70
   70
  9
$TILEMODE
 70
    1
  9
$MAXACTVP
 70
   64
  9
$PINSBASE
 10
0
 20
0
 30
0
  9
$PLIMCHECK
 70
    0
  9
$PEXTMIN
 10
0
 20
0
 30
0
  9
$PEXTMAX
 10
0
 20
0
 30
0
  9
$GRIDMODE
 70
    1
  9
$SNAPSTYLE
 70
    0
  9
$PLIMMIN
 10
0
 20
0
  9
$PLIMMAX
 10
210
 20
297
  9
$UNITMODE
 70
    0
  9
$VISRETAIN
 70
    1
  9
$PLINEGEN
 70
    0
  9
$PSLTSCALE
 70
    1
  9
$TREEDEPTH
 70
 3020
  9
$CMLSTYLE
  2
Standard
  9
$CMLJUST
 70
    0
  9
$CMLSCALE
 40
20
  9
$PROXYGRAPHICS
 70
    1
  9
$MEASUREMENT
 70
    1
  9
$CELWEIGHT
370
   -1
  9
$ENDCAPS
280
    0
  9
$JOINSTYLE
280
    0
  9
$LWDISPLAY
290
    0
  9
$INSUNITS
 70
    4
  9
$HYPERLINKBASE
  1

  9
$STYLESHEET
  1

  9
$XEDIT
290
    1
  9
$CEPSNTYPE
380
    0
  9
$PSTYLEMODE
290
    1
  9
$EXTNAMES
290
    1
  9
$PSVPSCALE
 40
1
  9
$OLESTARTUP
290
    0
  9
$SORTENTS
280
  127
  9
$INDEXCTL
280
    0
  9
$HIDETEXT
280
    1
  9
$XCLIPFRAME
290
    0
  9
$HALOGAP
280
    0
  9
$OBSCOLOR
 70
  257
  9
$OBSLTYPE
280
    0
  9
$INTERSECTIONDISPLAY
280
    0
  9
$INTERSECTIONCOLOR
 70
  257
  9
$DIMASSOC
280
    1
  9
$PROJECTNAME
  1

  9
$CAMERADISPLAY
290
    0
  9
$LENSLENGTH
 40
50
  9
$CAMERAHEIGHT
 40
0
  9
$STEPSPERSEC
 40
2
  9
$STEPSIZE
 40
50
  9
$3DDWFPREC
 40
2
  9
$PSOLWIDTH
 40
5
  9
$PSOLHEIGHT
 40
80
  9
$LOFTANG1
 40
1.570796326794897
  9
$LOFTANG2
 40
1.570796326794897
  9
$LOFTMAG1
 40
0
  9
$LOFTMAG2
 40
0
  9
$LOFTPARAM
 70
    7
  9
$LOFTNORMALS
280
    1
  9
$LATITUDE
 40
1
  9
$LONGITUDE
 40
1
  9
$NORTHDIRECTION
 40
0
  9
$TIMEZONE
 70
-8000
  9
$LIGHTGLYPHDISPLAY
280
    1
  9
$TILEMODELIGHTSYNCH
280
    1
  9
$SOLIDHIST
280
    1
  9
$SHOWHIST
280
    1
  9
$DWFFRAME
280
    2
  9
$DGNFRAME
280
    0
  9
$REALWORLDSCALE
290
    1
  9
$INTERFERECOLOR
 62
    1
  9
$CSHADOW
280
    0
  9
$SHADOWPLANELOCATION
 40
0
  0
ENDSEC
  0
SECTION
  2
CLASSES
  0
ENDSEC
  0
SECTION
  2
TABLES
  0
TABLE
  2
VPORT
  5
8
330
0
100
AcDbSymbolTable
 70
    1
  0
VPORT
  5
31
330
2
100
AcDbSymbolTableRecord
100
AcDbViewportTableRecord
  2
*ACTIVE
 70
    0
 10
0
 20
0
 11
1
 21
1
 12
69.18261069104216
 22
35.73409306976955
 13
0
 23
0
 14
10
 24
10
 15
10
 25
10
 16
0
 26
0
 36
1
 17
0
 27
0
 37
0
 40
148.4744974042823
 41
1.901124925991711
 42
50
 43
0
 44
0
 50
0
 51
0
 71
    0
 72
  100
 73
    1
 74
    3
 75
    0
 76
    1
 77
    0
 78
    0
281
    0
 65
    1
110
0
120
0
130
0
111
1
121
0
131
0
112
0
122
1
132
0
 79
    0
146
0
348
10020
 60
    7
 61
    5
292
1
282
    1
141
0
142
0
 63
  250
421
3358443
  0
ENDTAB
  0
TABLE
  2
LTYPE
  5
5
330
0
100
AcDbSymbolTable
 70
    4
  0
LTYPE
  5
14
330
5
100
AcDbSymbolTableRecord
100
AcDbLinetypeTableRecord
  2
ByBlock
 70
    0
  3

 72
   65
 73
    0
 40
0
  0
LTYPE
  5
15
330
5
100
AcDbSymbolTableRecord
100
AcDbLinetypeTableRecord
  2
ByLayer
 70
    0
  3

 72
   65
 73
    0
 40
0
  0
LTYPE
  5
16
330
5
100
AcDbSymbolTableRecord
100
AcDbLinetypeTableRecord
  2
Continuous
 70
    0
  3
Solid line
 72
   65
 73
    0
 40
0
  0
LTYPE
  5
32
330
5
100
AcDbSymbolTableRecord
100
AcDbLinetypeTableRecord
  2
DOT
 70
    0
  3
Dot . . . . . . . . . . . . . . . . . . . . . .
 72
   65
 73
    2
 40
6.35
 49
0
 74
    0
 49
-6.35
 74
    0
  0
LTYPE
  5
33
330
5
100
AcDbSymbolTableRecord
100
AcDbLinetypeTableRecord
  2
DOTTINY
 70
    0
  3
Dot (.15x) .....................................
 72
   65
 73
    2
 40
0.9525
 49
0
 74
    0
 49
-0.9525
 74
    0
  0
LTYPE
  5
34
330
5
100
AcDbSymbolTableRecord
100
AcDbLinetypeTableRecord
  2
DOT2
 70
    0
  3
Dot (.5x) .....................................
 72
   65
 73
    2
 40
3.175
 49
0
 74
    0
 49
-3.175
 74
    0
  0
LTYPE
  5
35
330
5
100
AcDbSymbolTableRecord
100
AcDbLinetypeTableRecord
  2
DOTX2
 70
    0
  3
Dot (2x) .  .  .  .  .  .  .  .  .  .  .  .  .
 72
   65
 73
    2
 40
12.7
 49
0
 74
    0
 49
-12.7
 74
    0
  0
LTYPE
  5
36
330
5
100
AcDbSymbolTableRecord
100
AcDbLinetypeTableRecord
  2
DASHED
 70
    0
  3
Dashed _ _ _ _ _ _ _ _ _ _ _ _ _ _ _ _ _
 72
   65
 73
    2
 40
19.05
 49
12.7
 74
    0
 49
-6.35
 74
    0
  0
LTYPE
  5
37
330
5
100
AcDbSymbolTableRecord
100
AcDbLinetypeTableRecord
  2
DASHEDTINY
 70
    0
  3
Dashed (.15x) _ _ _ _ _ _ _ _ _ _ _ _ _ _ _ _ _
 72
   65
 73
    2
 40
2.8575
 49
1.905
 74
    0
 49
-0.9525
 74
    0
  0
LTYPE
  5
38
330
5
100
AcDbSymbolTableRecord
100
AcDbLinetypeTableRecord
  2
DASHED2
 70
    0
  3
Dashed (.5x) _ _ _ _ _ _ _ _ _ _ _ _ _ _ _ _ _
 72
   65
 73
    2
 40
9.524999999999999
 49
6.35
 74
    0
 49
-3.175
 74
    0
  0
LTYPE
  5
39
330
5
100
AcDbSymbolTableRecord
100
AcDbLinetypeTableRecord
  2
DASHEDX2
 70
    0
  3
Dashed (2x) ____  ____  ____  ____  ____  ___
 72
   65
 73
    2
 40
38.09999999999999
 49
25.4
 74
    0
 49
-12.7
 74
    0
  0
LTYPE
  5
3A
330
5
100
AcDbSymbolTableRecord
100
AcDbLinetypeTableRecord
  2
DASHDOT
 70
    0
  3
Dash dot __ . __ . __ . __ . __ . __ . __ . __
 72
   65
 73
    4
 40
25.4
 49
12.7
 74
    0
 49
-6.35
 74
    0
 49
0
 74
    0
 49
-6.35
 74
    0
  0
LTYPE
  5
3B
330
5
100
AcDbSymbolTableRecord
100
AcDbLinetypeTableRecord
  2
DASHDOTTINY
 70
    0
  3
Dash dot (.15x) _._._._._._._._._._._._._._._.
 72
   65
 73
    4
 40
3.81
 49
1.905
 74
    0
 49
-0.9525
 74
    0
 49
0
 74
    0
 49
-0.9525
 74
    0
  0
LTYPE
  5
3C
330
5
100
AcDbSymbolTableRecord
100
AcDbLinetypeTableRecord
  2
DASHDOT2
 70
    0
  3
Dash dot (.5x) _._._._._._._._._._._._._._._.
 72
   65
 73
    4
 40
12.7
 49
6.35
 74
    0
 49
-3.175
 74
    0
 49
0
 74
    0
 49
-3.175
 74
    0
  0
LTYPE
  5
3D
330
5
100
AcDbSymbolTableRecord
100
AcDbLinetypeTableRecord
  2
DASHDOTX2
 70
    0
  3
Dash dot (2x) ____  .  ____  .  ____  .  ___
 72
   65
 73
    4
 40
50.8
 49
25.4
 74
    0
 49
-12.7
 74
    0
 49
0
 74
    0
 49
-12.7
 74
    0
  0
LTYPE
  5
3E
330
5
100
AcDbSymbolTableRecord
100
AcDbLinetypeTableRecord
  2
DIVIDE
 70
    0
  3
Divide ____ . . ____ . . ____ . . ____ . . ____
 72
   65
 73
    6
 40
31.75
 49
12.7
 74
    0
 49
-6.35
 74
    0
 49
0
 74
    0
 49
-6.35
 74
    0
 49
0
 74
    0
 49
-6.35
 74
    0
  0
LTYPE
  5
3F
330
5
100
AcDbSymbolTableRecord
100
AcDbLinetypeTableRecord
  2
DIVIDETINY
 70
    0
  3
Divide (.15x) __..__..__..__..__..__..__..__.._
 72
   65
 73
    6
 40
4.7625
 49
1.905
 74
    0
 49
-0.9525
 74
    0
 49
0
 74
    0
 49
-0.9525
 74
    0
 49
0
 74
    0
 49
-0.9525
 74
    0
  0
LTYPE
  5
40
330
5
100
AcDbSymbolTableRecord
100
AcDbLinetypeTableRecord
  2
DIVIDE2
 70
    0
  3
Divide (.5x) __..__..__..__..__..__..__..__.._
 72
   65
 73
    6
 40
15.875
 49
6.35
 74
    0
 49
-3.175
 74
    0
 49
0
 74
    0
 49
-3.175
 74
    0
 49
0
 74
    0
 49
-3.175
 74
    0
  0
LTYPE
  5
41
330
5
100
AcDbSymbolTableRecord
100
AcDbLinetypeTableRecord
  2
DIVIDEX2
 70
    0
  3
Divide (2x) ________  .  .  ________  .  .  _
 72
   65
 73
    6
 40
63.5
 49
25.4
 74
    0
 49
-12.7
 74
    0
 49
0
 74
    0
 49
-12.7
 74
    0
 49
0
 74
    0
 49
-12.7
 74
    0
  0
LTYPE
  5
42
330
5
100
AcDbSymbolTableRecord
100
AcDbLinetypeTableRecord
  2
BORDER
 70
    0
  3
Border __ __ . __ __ . __ __ . __ __ . __ __ .
 72
   65
 73
    6
 40
44.45
 49
12.7
 74
    0
 49
-6.35
 74
    0
 49
12.7
 74
    0
 49
-6.35
 74
    0
 49
0
 74
    0
 49
-6.35
 74
    0
  0
LTYPE
  5
43
330
5
100
AcDbSymbolTableRecord
100
AcDbLinetypeTableRecord
  2
BORDERTINY
 70
    0
  3
Border (.15x) __.__.__.__.__.__.__.__.__.__.__.
 72
   65
 73
    6
 40
6.6675
 49
1.905
 74
    0
 49
-0.9525
 74
    0
 49
1.905
 74
    0
 49
-0.9525
 74
    0
 49
0
 74
    0
 49
-0.9525
 74
    0
  0
LTYPE
  5
44
330
5
100
AcDbSymbolTableRecord
100
AcDbLinetypeTableRecord
  2
BORDER2
 70
    0
  3
Border (.5x) __.__.__.__.__.__.__.__.__.__.__.
 72
   65
 73
    6
 40
22.225
 49
6.35
 74
    0
 49
-3.175
 74
    0
 49
6.35
 74
    0
 49
-3.175
 74
    0
 49
0
 74
    0
 49
-3.175
 74
    0
  0
LTYPE
  5
45
330
5
100
AcDbSymbolTableRecord
100
AcDbLinetypeTableRecord
  2
BORDERX2
 70
    0
  3
Border (2x) ____  ____  .  ____  ____  .  ___
 72
   65
 73
    6
 40
88.89999999999999
 49
25.4
 74
    0
 49
-12.7
 74
    0
 49
25.4
 74
    0
 49
-12.7
 74
    0
 49
0
 74
    0
 49
-12.7
 74
    0
  0
LTYPE
  5
46
330
5
100
AcDbSymbolTableRecord
100
AcDbLinetypeTableRecord
  2
CENTER
 70
    0
  3
Center ____ _ ____ _ ____ _ ____ _ ____ _ ____
 72
   65
 73
    4
 40
50.8
 49
31.75
 74
    0
 49
-6.35
 74
    0
 49
6.35
 74
    0
 49
-6.35
 74
    0
  0
LTYPE
  5
47
330
5
100
AcDbSymbolTableRecord
100
AcDbLinetypeTableRecord
  2
CENTERTINY
 70
    0
  3
Center (.15x) ___ _ ___ _ ___ _ ___ _ ___ _ ___
 72
   65
 73
    4
 40
7.619999999999999
 49
4.7625
 74
    0
 49
-0.9525
 74
    0
 49
0.9525
 74
    0
 49
-0.9525
 74
    0
  0
LTYPE
  5
48
330
5
100
AcDbSymbolTableRecord
100
AcDbLinetypeTableRecord
  2
CENTER2
 70
    0
  3
Center (.5x) ___ _ ___ _ ___ _ ___ _ ___ _ ___
 72
   65
 73
    4
 40
28.575
 49
19.05
 74
    0
 49
-3.175
 74
    0
 49
3.175
 74
    0
 49
-3.175
 74
    0
  0
LTYPE
  5
49
330
5
100
AcDbSymbolTableRecord
100
AcDbLinetypeTableRecord
  2
CENTERX2
 70
    0
  3
Center (2x) ________  __  ________  __  _____
 72
   65
 73
    4
 40
101.6
 49
63.5
 74
    0
 49
-12.7
 74
    0
 49
12.7
 74
    0
 49
-12.7
 74
    0
  0
ENDTAB
  0
TABLE
  2
LAYER
  5
2
330
0
100
AcDbSymbolTable
 70
    1
  0
LAYER
  5
10
330
2
100
AcDbSymbolTableRecord
100
AcDbLayerTableRecord
  2
0
 70
    0
 62
    7
  6
CONTINUOUS
370
    0
390
F
  0
ENDTAB
  0
TABLE
  2
STYLE
  5
3
330
0
100
AcDbSymbolTable
 70
    3
  0
STYLE
  5
4A
330
2
100
AcDbSymbolTableRecord
100
AcDbTextStyleTableRecord
  2
Standard
 70
    0
 40
0
 41
1
 50
0
 71
    0
 42
1
  3
txt
  4

  0
ENDTAB
  0
TABLE
  2
VIEW
  5
6
330
0
100
AcDbSymbolTable
 70
    0
  0
ENDTAB
  0
TABLE
  2
UCS
  5
7
330
0
100
AcDbSymbolTable
 70
    0
  0
ENDTAB
  0
TABLE
  2
APPID
  5
9
330
0
100
AcDbSymbolTable
 70
    1
  0
APPID
  5
12
330
9
100
AcDbSymbolTableRecord
100
AcDbRegAppTableRecord
  2
ACAD
 70
    0
  0
APPID
  5
4B
330
9
100
AcDbSymbolTableRecord
100
AcDbRegAppTableRecord
  2
LibreCad
 70
    0
  0
ENDTAB
  0
TABLE
  2
DIMSTYLE
  5
A
330
0
100
AcDbSymbolTable
 70
    1
100
AcDbDimStyleTable
 71
    1
  0
DIMSTYLE
105
4C
330
A
100
AcDbSymbolTableRecord
100
AcDbDimStyleTableRecord
  2
Standard
 70
    0
 40
2.5
 41
2.5
 42
0.625
 43
0.38
 44
1.25
 45
0
 46
0
 47
0
 48
0
 49
1
140
2.5
141
0.09
142
0
143
25.4
144
1
145
0
146
1
147
0.625
148
0
 71
    0
 72
    0
 73
    0
 74
    1
 75
    0
 76
    0
 77
    0
 78
    8
 79
    0
170
    0
171
    2
172
    0
173
    0
174
    0
175
    0
176
    0
177
    0
178
    0
179
    0
271
    2
272
    4
273
    2
274
    2
275
    0
276
    0
277
    2
278
   44
279
    0
280
    0
281
    0
282
    0
283
    1
284
    0
285
    0
286
    0
288
    0
289
    3
340
Standard
341

371
   -2
372
   -2
  0
ENDTAB
  0
TABLE
  2
BLOCK_RECORD
  5
1
330
0
100
AcDbSymbolTable
 70
    2
  0
BLOCK_RECORD
  5
1F
330
1
100
AcDbSymbolTableRecord
100
AcDbBlockTableRecord
  2
*Model_Space
 70
    0
280
    1
281
    0
  0
BLOCK_RECORD
  5
1E
330
1
100
AcDbSymbolTableRecord
100
AcDbBlockTableRecord
  2
*Paper_Space
 70
    0
280
    1
281
    0
  0
BLOCK_RECORD
  5
4D
330
1
100
AcDbSymbolTableRecord
100
AcDbBlockTableRecord
  2
PCB outline
 70
    0
280
    1
281
    0
  0
ENDTAB
  0
ENDSEC
  0
SECTION
  2
BLOCKS
  0
BLOCK
  5
20
330
1F
100
AcDbEntity
  8
0
100
AcDbBlockBegin
  2
*Model_Space
 70
    0
 10
0
 20
0
 30
0
  3
*Model_Space
  1

  0
ENDBLK
  5
21
330
1F
100
AcDbEntity
  8
0
100
AcDbBlockEnd
  0
BLOCK
  5
1C
330
1B
100
AcDbEntity
  8
0
100
AcDbBlockBegin
  2
*Paper_Space
 70
    0
 10
0
 20
0
 30
0
  3
*Paper_Space
  1

  0
ENDBLK
  5
1D
330
1F
100
AcDbEntity
  8
0
100
AcDbBlockEnd
  0
BLOCK
  5
4E
330
4D
100
AcDbEntity
  8
0
100
AcDbBlockBegin
  2
PCB outline
 70
    0
 10
0
 20
0
  3
PCB outline
  1

  0
CIRCLE
  5
50
100
AcDbEntity
  8
0
  6
ByLayer
 62
  256
370
   -1
100
AcDbCircle
 10
-32.49999999999995
 20
7.499999999999971
 40
1
  0
CIRCLE
  5
51
100
AcDbEntity
  8
0
  6
ByLayer
 62
  256
370
   -1
100
AcDbCircle
 10
-32.49999999999995
 20
-7.499999999999985
 40
1
  0
CIRCLE
  5
52
100
AcDbEntity
  8
0
  6
ByLayer
 62
  256
370
   -1
100
AcDbCircle
 10
32.50000000000002
 20
-7.499999999999985
 40
1
  0
CIRCLE
  5
53
100
AcDbEntity
  8
0
  6
ByLayer
 62
  256
370
   -1
100
AcDbCircle
 10
32.50000000000002
 20
7.499999999999971
 40
1
  0
CIRCLE
  5
54
100
AcDbEntity
  8
0
  6
ByLayer
 62
  256
370
   -1
100
AcDbCircle
 10
32.50000000000002
 20
47.49999999999997
 40
1
  0
CIRCLE
  5
55
100
AcDbEntity
  8
0
  6
ByLayer
 62
  256
370
   -1
100
AcDbCircle
 10
-32.49999999999995
 20
47.49999999999997
 40
1
  0
CIRCLE
  5
56
100
AcDbEntity
  8
0
  6
ByLayer
 62
  256
370
   -1
100
AcDbCircle
 10
-32.49999999999995
 20
-47.49999999999999
 40
1
  0
CIRCLE
  5
57
100
AcDbEntity
  8
0
  6
ByLayer
 62
  256
370
   -1
100
AcDbCircle
 10
32.50000000000002
 20
-47.49999999999999
 40
1
  0
LINE
  5
58
100
AcDbEntity
  8
0
  6
ByLayer
 62
  256
370
   -1
100
AcDbLine
 10
30.00000000000002
 20
5.000000000000011
 11
37.49999999999996
 21
5.000000000000011
  0
LINE
  5
59
100
AcDbEntity
  8
0
  6
ByLayer
 62
  256
370
   -1
100
AcDbLine
 10
37.49999999999996
 20
5.000000000000011
 11
37.49999999999996
 21
50
  0
LINE
  5
5A
100
AcDbEntity
  8
0
  6
ByLayer
 62
  256
370
   -1
100
AcDbLine
 10
37.49999999999996
 20
50
 11
30.00000000000002
 21
50
  0
LINE
  5
5B
100
AcDbEntity
  8
0
  6
ByLayer
 62
  256
370
   -1
100
AcDbLine
 10
25.00000000000002
 20
55
 11
25.00000000000002
 21
66.5
  0
LINE
  5
5C
100
AcDbEntity
  8
0
  6
ByLayer
 62
  256
370
   -1
100
AcDbLine
 10
25.00000000000002
 20
66.5
 11
-24.99999999999995
 21
66.5
  0
LINE
  5
5D
100
AcDbEntity
  8
0
  6
ByLayer
 62
  256
370
   -1
100
AcDbLine
 10
-24.99999999999995
 20
66.5
 11
-24.99999999999995
 21
55
  0
LINE
  5
5E
100
AcDbEntity
  8
0
  6
ByLayer
 62
  256
370
   -1
100
AcDbLine
 10
-29.99999999999995
 20
50
 11
-37.50000000000001
 21
50
  0
LINE
  5
5F
100
AcDbEntity
  8
0
  6
ByLayer
 62
  256
370
   -1
100
AcDbLine
 10
-37.50000000000001
 20
50
 11
-37.50000000000002
 21
5.000000000000011
  0
LINE
  5
60
100
AcDbEntity
  8
0
  6
ByLayer
 62
  256
370
   -1
100
AcDbLine
 10
-37.50000000000002
 20
5.000000000000011
 11
-29.99999999999995
 21
5.000000000000011
  0
LINE
  5
61
100
AcDbEntity
  8
0
  6
ByLayer
 62
  256
370
   -1
100
AcDbLine
 10
-29.99999999999995
 20
-4.999999999999983
 11
-37.50000000000001
 21
-4.999999999999983
  0
LINE
  5
62
100
AcDbEntity
  8
0
  6
ByLayer
 62
  256
370
   -1
100
AcDbLine
 10
-37.50000000000001
 20
-4.999999999999983
 11
-37.50000000000002
 21
-50
  0
LINE
  5
63
100
AcDbEntity
  8
0
  6
ByLayer
 62
  256
370
   -1
100
AcDbLine
 10
-37.50000000000002
 20
-50
 11
-29.99999999999995
 21
-50
  0
LINE
  5
64
100
AcDbEntity
  8
0
  6
ByLayer
 62
  256
370
   -1
100
AcDbLine
 10
-24.99999999999995
 20
-55
 11
-24.99999999999995
 21
-66.49999999999997
  0
LINE
  5
65
100
AcDbEntity
  8
0
  6
ByLayer
 62
  256
370
   -1
100
AcDbLine
 10
-24.99999999999995
 20
-66.49999999999997
 11
25.00000000000001
 21
-66.49999999999997
  0
LINE
  5
66
100
AcDbEntity
  8
0
  6
ByLayer
 62
  256
370
   -1
100
AcDbLine
 10
25.00000000000001
 20
-66.49999999999997
 11
25.00000000000001
 21
-55
  0
LINE
  5
67
100
AcDbEntity
  8
0
  6
ByLayer
 62
  256
370
   -1
100
AcDbLine
 10
30.00000000000002
 20
-50
 11
37.49999999999996
 21
-50
  0
LINE
  5
68
100
AcDbEntity
  8
0
  6
ByLayer
 62
  256
370
   -1
100
AcDbLine
 10
37.49999999999996
 20
-50
 11
37.49999999999996
 21
-4.999999999999983
  0
LINE
  5
69
100
AcDbEntity
  8
0
  6
ByLayer
 62
  256
370
   -1
100
AcDbLine
 10
37.49999999999996
 20
-4.999999999999983
 11
30.00000000000002
 21
-4.999999999999983
  0
ARC
  5
6A
100
AcDbEntity
  8
0
  6
ByLayer
 62
  256
370
   -1
100
AcDbCircle
 10
-29.99999999999995
 20
55
 40
5
100
AcDbArc
 50
270
 51
0
  0
ARC
  5
6B
100
AcDbEntity
  8
0
  6
ByLayer
 62
  256
370
   -1
100
AcDbCircle
 10
30.00000000000002
 20
55
 40
5
100
AcDbArc
 50
179.9999999999998
 51
270
  0
ARC
  5
6C
100
AcDbEntity
  8
0
  6
ByLayer
 62
  256
370
   -1
100
AcDbCircle
 10
30.00000000000002
 20
1.42e-14
 40
5
100
AcDbArc
 50
90
 51
270
  0
ARC
  5
6D
100
AcDbEntity
  8
0
  6
ByLayer
 62
  256
370
   -1
100
AcDbCircle
 10
30.00000000000002
 20
-55
 40
5
100
AcDbArc
 50
90
 51
180
  0
ARC
  5
6E
100
AcDbEntity
  8
0
  6
ByLayer
 62
  256
370
   -1
100
AcDbCircle
 10
-29.99999999999995
 20
-55
 40
5
100
AcDbArc
 50
0
 51
90
  0
ARC
  5
6F
100
AcDbEntity
  8
0
  6
ByLayer
 62
  256
370
   -1
100
AcDbCircle
 10
-29.99999999999995
 20
1.42e-14
 40
5
100
AcDbArc
 50
270
 51
90
  0
ENDBLK
  5
4F
330
4D
100
AcDbEntity
  8
0
100
AcDbBlockEnd
  0
ENDSEC
  0
SECTION
  2
ENTITIES
  0
CIRCLE
  5
70
100
AcDbEntity
  8
0
  6
ByLayer
 62
  256
370
   -1
100
AcDbCircle
 10
5e-15
 20
31.5
 40
14
  0
LWPOLYLINE
  5
71
100
AcDbEntity
  8
0
  6
ByLayer
 62
  256
370
   -1
100
AcDbPolyline
 90
    8
 70
    1
 43
0
 10
-14.49999999999998
 20
-7.999999999999995
 10
-14.49999999999999
 20
-6.999999999999962
 42
0.4142135623730918
 10
-17.49999999999999
 20
-3.999999999999995
 10
-25.49999999999999
 20
-4.000000000000001
 42
0.4142135623730943
 10
-28.5
 20
-6.999999999999996
 10
-28.49999999999999
 20
-7.999999999999993
 42
0.4142135623730943
 10
-25.49999999999999
 20
-11
 10
-17.49999999999999
 20
-11
 42
0.4142135623730943
  0
LWPOLYLINE
  5
72
100
AcDbEntity
  8
0
  6
ByLayer
 62
  256
370
   -1
100
AcDbPolyline
 90
    8
 70
    1
 43
0
 10
28.5
 20
-7.999999999999995
 10
28.5
 20
-6.999999999999996
 42
0.414213562373095
 10
25.5
 20
-3.999999999999996
 10
17.5
 20
-3.999999999999999
 42
0.4142135623730949
 10
14.50000000000001
 20
-6.999999999999995
 10
14.50000000000001
 20
-7.999999999999996
 42
0.4142135623730948
 10
17.5
 20
-11
 10
25.50000000000001
 20
-11
 42
0.4142135623730955
  0
LWPOLYLINE
  5
73
100
AcDbEntity
  8
0
  6
ByLayer
 62
  256
370
   -1
100
AcDbPolyline
 90
    8
 70
    1
 43
0
 10
27.5
 20
-15.44744111674234
 10
26.5
 20
-15.44744111674234
 42
0.4142135623730954
 10
23.5
 20
-18.44744111674234
 10
23.5
 20
-26.44744111674235
 42
0.414213562373095
 10
26.5
 20
-29.44744111674234
 10
27.5
 20
-29.44744111674234
 42
0.4142135623730953
 10
30.5
 20
-26.44744111674235
 10
30.5
 20
-18.44744111674234
 42
0.414213562373095
  0
LWPOLYLINE
  5
74
100
AcDbEntity
  8
0
  6
ByLayer
 62
  256
370
   -1
100
AcDbPolyline
 90
    8
 70
    1
 43
0
 10
-27.50000000000001
 20
-29.44744111674234
 10
-26.50000000000001
 20
-29.44744111674234
 42
0.4142135623730943
 10
-23.50000000000001
 20
-26.44744111674234
 10
-23.5
 20
-18.44744111674234
 42
0.414213562373095
 10
-26.5
 20
-15.44744111674234
 10
-27.5
 20
-15.44744111674234
 42
0.4142135623730954
 10
-30.5
 20
-18.44744111674234
 10
-30.50000000000001
 20
-26.44744111674235
 42
0.414213562373095
  0
LWPOLYLINE
  5
75
100
AcDbEntity
  8
0
  6
ByLayer
 62
  256
370
   -1
100
AcDbPolyline
 90
    8
 70
    1
 43
0
 10
-1.000000000000015
 20
-49.77207793864211
 10
0.9999999999999766
 20
-49.77207793864211
 42
0.4142135623730955
 10
3.999999999999985
 20
-46.77207793864211
 10
3.99999999999998
 20
-44.77207793864212
 42
0.4142135623730942
 10
0.9999999999999838
 20
-41.77207793864213
 10
-1.000000000000015
 20
-41.77207793864213
 42
0.4142135623730944
 10
-4.000000000000013
 20
-44.77207793864212
 10
-4.000000000000009
 20
-46.77207793864211
 42
0.4142135623730945
  0
LWPOLYLINE
  5
76
100
AcDbEntity
  8
0
  6
ByLayer
 62
  256
370
   -1
100
AcDbPolyline
 90
    8
 70
    1
 43
0
 10
7.000000000000002
 20
-7.999999999999992
 10
7.000000000000001
 20
-6.99999999999999
 42
0.4142135623730948
 10
4
 20
-3.999999999999989
 10
-3.999999999999996
 20
-3.999999999999996
 42
0.414213562373095
 10
-7
 20
-6.999999999999994
 10
-6.999999999999992
 20
-7.999999999999986
 42
0.4142135623730948
 10
-4.000000000000003
 20
-10.99999999999999
 10
3.999999999999992
 20
-10.99999999999999
 42
0.414213562373095
  0
LWPOLYLINE
  5
77
100
AcDbEntity
  8
0
  6
ByLayer
 62
  256
370
   -1
100
AcDbPolyline
 90
    8
 70
    1
 43
0
 10
-3.999999999999948
 20
59.5
 10
4.000000000000047
 20
59.5
 42
-0.414213562373095
 10
7.000000000000046
 20
56.5
 10
7.000000000000048
 20
51.5
 42
-0.4142135623730953
 10
4.000000000000044
 20
48.5
 10
-3.999999999999951
 20
48.5
 42
-0.414213562373095
 10
-6.99999999999995
 20
51.5
 10
-6.99999999999995
 20
56.5
 42
-0.4142135623730951
  0
LWPOLYLINE
  5
78
100
AcDbEntity
  8
0
  6
ByLayer
 62
  256
370
   -1
100
AcDbPolyline
 90
    8
 70
    1
 43
0
 10
-21.99999999999995
 20
59.5
 10
-13.99999999999995
 20
59.5
 42
-0.414213562373095
 10
-10.99999999999995
 20
56.5
 10
-10.99999999999995
 20
51.5
 42
-0.414213562373095
 10
-13.99999999999995
 20
48.5
 10
-21.99999999999995
 20
48.5
 42
-0.414213562373095
 10
-24.99999999999995
 20
51.5
 10
-24.99999999999995
 20
56.5
 42
-0.414213562373095
  0
LWPOLYLINE
  5
79
100
AcDbEntity
  8
0
  6
ByLayer
 62
  256
370
   -1
100
AcDbPolyline
 90
    8
 70
    1
 43
0
 10
14.00000000000005
 20
59.5
 10
22.00000000000005
 20
59.5
 42
-0.414213562373095
 10
25.00000000000005
 20
56.5
 10
25.00000000000005
 20
51.5
 42
-0.414213562373095
 10
22.00000000000005
 20
48.5
 10
14.00000000000005
 20
48.5
 42
-0.414213562373095
 10
11.00000000000005
 20
51.5
 10
11.00000000000005
 20
56.5
 42
-0.414213562373095
  0
LWPOLYLINE
  5
7A
100
AcDbEntity
  8
0
  6
ByLayer
 62
  256
370
   -1
100
AcDbPolyline
 90
   10
 70
    1
 43
0
 10
25.00000000000002
 20
-36.77207793864214
 10
25.00000000000002
 20
-40.77207793864213
 42
-0.4142135623730943
 10
22.00000000000001
 20
-43.77207793864211
 10
19.45584412271571
 20
-43.77207793864211
 42
-0.198912367379658
 10
17.33452377915608
 20
-42.89339828220177
 10
15.16295090390231
 20
-40.72182540694799
 42
-0.198912367379658
 10
14.28427124746196
 20
-38.60050506338835
 10
14.28427124746196
 20
-36.77207793864214
 42
-0.414213562373095
 10
17.28427124746196
 20
-33.77207793864214
 10
22.00000000000001
 20
-33.77207793864214
 42
-0.4142135623730948
  0
LWPOLYLINE
  5
7B
100
AcDbEntity
  8
0
  6
ByLayer
 62
  256
370
   -1
100
AcDbPolyline
 90
   10
 70
    1
 43
0
 10
24.99999999999997
 20
-54.77207793864216
 10
24.99999999999999
 20
-50.77207793864218
 42
0.414213562373095
 10
22.00000000000001
 20
-47.77207793864216
 10
19.45584412271571
 20
-47.77207793864215
 42
0.1989123673796578
 10
17.33452377915606
 20
-48.6507575950825
 10
15.16295090390229
 20
-50.82233047033628
 42
0.1989123673796585
 10
14.28427124746193
 20
-52.9436508138959
 10
14.28427124746191
 20
-54.77207793864213
 42
0.4142135623730943
 10
17.28427124746189
 20
-57.77207793864216
 10
21.99999999999996
 20
-57.77207793864215
 42
0.4142135623730943
  0
LWPOLYLINE
  5
7C
100
AcDbEntity
  8
0
  6
ByLayer
 62
  256
370
   -1
100
AcDbPolyline
 90
   10
 70
    1
 43
0
 10
-25.00000000000004
 20
-36.77207793864214
 10
-25.00000000000004
 20
-40.77207793864211
 42
0.4142135623730932
 10
-22.00000000000005
 20
-43.77207793864211
 10
-19.45584412271575
 20
-43.77207793864211
 42
0.198912367379658
 10
-17.33452377915611
 20
-42.89339828220176
 10
-15.16295090390234
 20
-40.72182540694799
 42
0.1989123673796582
 10
-14.28427124746199
 20
-38.60050506338835
 10
-14.28427124746199
 20
-36.77207793864214
 42
0.414213562373095
 10
-17.28427124746199
 20
-33.77207793864213
 10
-22.00000000000004
 20
-33.77207793864213
 42
0.4142135623730948
  0
LWPOLYLINE
  5
7D
100
AcDbEntity
  8
0
  6
ByLayer
 62
  256
370
   -1
100
AcDbPolyline
 90
   10
 70
    1
 43
0
 10
-25.00000000000001
 20
-54.77207793864216
 10
-25.00000000000002
 20
-50.77207793864218
 42
-0.4142135623730943
 10
-22.00000000000004
 20
-47.77207793864215
 10
-19.45584412271574
 20
-47.77207793864215
 42
-0.1989123673796579
 10
-17.33452377915609
 20
-48.6507575950825
 10
-15.16295090390232
 20
-50.82233047033625
 42
-0.1989123673796582
 10
-14.28427124746196
 20
-52.9436508138959
 10
-14.28427124746194
 20
-54.77207793864213
 42
-0.4142135623730961
 10
-17.28427124746193
 20
-57.77207793864214
 10
-21.99999999999999
 20
-57.77207793864217
 42
-0.4142135623730963
  0
LWPOLYLINE
  5
7E
100
AcDbEntity
  8
0
  6
ByLayer
 62
  256
370
   -1
100
AcDbPolyline
 90
    9
 70
    0
 43
0
 10
-17.98078307364146
 20
43.49999999999999
 42
-0.5242566115793437
 10
-15.17379062181365
 20
39.4413247072961
 10
-16.68241639957736
 20
35.4413247072961
 42
-0.3121150236820804
 10
-19.48940885140517
 20
33.50000000000001
 10
-27.5
 20
33.5
 42
-0.414213562373095
 10
-30.5
 20
36.5
 10
-30.5
 20
40.49999999999999
 42
-0.414213562373095
 10
-27.5
 20
43.49999999999999
 10
-17.98078307364146
 20
43.49999999999999
  0
LWPOLYLINE
  5
7F
100
AcDbEntity
  8
0
  6
ByLayer
 62
  256
370
   -1
100
AcDbPolyline
 90
    9
 70
    0
 43
0
 10
-17.98078307364146
 20
19.50000000000001
 42
0.5242566115793431
 10
-15.17379062181365
 20
23.55867529270391
 10
-16.68241639957736
 20
27.5586752927039
 42
0.3121150236820808
 10
-19.48940885140517
 20
29.5
 10
-27.5
 20
29.5
 42
0.414213562373095
 10
-30.5
 20
26.5
 10
-30.5
 20
22.50000000000001
 42
0.414213562373095
 10
-27.5
 20
19.50000000000001
 10
-17.98078307364146
 20
19.50000000000001
  0
LWPOLYLINE
  5
80
100
AcDbEntity
  8
0
  6
ByLayer
 62
  256
370
   -1
100
AcDbPolyline
 90
    9
 70
    0
 43
0
 10
17.98078307364147
 20
43.49999999999996
 42
0.524256611579346
 10
15.17379062181366
 20
39.44132470729608
 10
16.68241639957737
 20
35.4413247072961
 42
0.3121150236820794
 10
19.48940885140518
 20
33.50000000000001
 10
27.50000000000001
 20
33.5
 42
0.414213562373095
 10
30.50000000000001
 20
36.49999999999999
 10
30.50000000000001
 20
40.49999999999998
 42
0.4142135623730954
 10
27.50000000000001
 20
43.49999999999996
 10
17.98078307364147
 20
43.49999999999996
  0
LWPOLYLINE
  5
81
100
AcDbEntity
  8
0
  6
ByLayer
 62
  256
370
   -1
100
AcDbPolyline
 90
    9
 70
    0
 43
0
 10
17.98078307364146
 20
19.5
 42
-0.5242566115793432
 10
15.17379062181365
 20
23.55867529270391
 10
16.68241639957737
 20
27.5586752927039
 42
-0.3121150236820809
 10
19.48940885140518
 20
29.49999999999999
 10
27.50000000000001
 20
29.49999999999999
 42
-0.414213562373095
 10
30.50000000000001
 20
26.49999999999999
 10
30.50000000000001
 20
22.5
 42
-0.4142135623730953
 10
27.5
 20
19.5
 10
17.98078307364146
 20
19.5
  0
LWPOLYLINE
  5
82
100
AcDbEntity
  8
0
  6
ByLayer
 62
  256
370
   -1
100
AcDbPolyline
 90
    6
 70
    1
 43
0
 10
-1.41421356237305
 20
-32.62994231491116
 10
-4.142135623730911
 20
-35.35786437626899
 42
0.6681786379193013
 10
-2.727922061357833
 20
-38.7720779386421
 10
2.727922061357843
 20
-38.77207793864209
 42
0.6681786379193005
 10
4.142135623730939
 20
-35.35786437626899
 10
1.414213562373118
 20
-32.62994231491118
 42
0.41421356237309
  0
LWPOLYLINE
  5
83
100
AcDbEntity
  8
0
  6
ByLayer
 62
  256
370
   -1
100
AcDbPolyline
 90
    6
 70
    1
 43
0
 10
-13.14213562373096
 20
-44.3578643762691
 10
-10.41421356237314
 20
-41.62994231491121
 42
-0.6681786379193011
 10
-7.000000000000037
 20
-43.0441558772843
 10
-7.000000000000021
 20
-48.49999999999999
 42
-0.6681786379192985
 10
-10.41421356237312
 20
-49.91421356237309
 10
-13.14213562373094
 20
-47.18629150101525
 42
-0.4142135623730929
  0
LWPOLYLINE
  5
84
100
AcDbEntity
  8
0
  6
ByLayer
 62
  256
370
   -1
100
AcDbPolyline
 90
    6
 70
    1
 43
0
 10
13.14213562373097
 20
-44.3578643762691
 10
10.41421356237316
 20
-41.62994231491121
 42
0.6681786379193017
 10
7.000000000000053
 20
-43.0441558772843
 10
7.000000000000037
 20
-48.49999999999999
 42
0.6681786379192963
 10
10.41421356237314
 20
-49.91421356237309
 10
13.14213562373096
 20
-47.18629150101525
 42
0.4142135623730929
  0
LWPOLYLINE
  5
85
100
AcDbEntity
  8
0
  6
ByLayer
 62
  256
370
   -1
100
AcDbPolyline
 90
    6
 70
    1
 43
0
 10
-1.41421356237305
 20
-58.91421356237306
 10
-4.142135623730919
 20
-56.18629150101524
 42
-0.6681786379193005
 10
-2.727922061357828
 20
-52.77207793864214
 10
2.727922061357844
 20
-52.77207793864215
 42
-0.6681786379193005
 10
4.142135623730941
 20
-56.18629150101522
 10
1.414213562373118
 20
-58.91421356237305
 42
-0.4142135623730896
  0
LWPOLYLINE
  5
86
100
AcDbEntity
  8
0
  6
ByLayer
 62
  256
370
   -1
100
AcDbPolyline
 90
   16
 70
    1
 43
0
 10
-29.50000000000004
 20
64.74264068711921
 10
-35.74264068711926
 20
58.49999999999996
 42
0.1989123673796578
 10
-37.49999999999996
 20
54.25735931288069
 10
-37.5
 20
-54.25735931288071
 42
0.1989123673796594
 10
-35.74264068711926
 20
-58.50000000000003
 10
-29.49999999999999
 20
-64.74264068711929
 42
0.1989123673796559
 10
-25.25735931288073
 20
-66.49999999999997
 10
25.25735931288072
 20
-66.5
 42
0.1989123673796582
 10
29.5
 20
-64.74264068711929
 10
35.74264068711928
 20
-58.5
 42
0.1989123673796591
 10
37.5
 20
-54.25735931288069
 10
37.5
 20
54.25735931288063
 42
0.1989123673796591
 10
35.74264068711929
 20
58.49999999999992
 10
29.5000000000001
 20
64.74264068711922
 42
0.1989123673796597
 10
25.25735931288082
 20
66.49999999999999
 10
-25.25735931288072
 20
66.5
 42
0.1989123673796583
  0
LWPOLYLINE
  5
87
100
AcDbEntity
  8
0
  6
ByLayer
 62
  256
370
   -1
100
AcDbPolyline
 90
    8
 70
    1
 43
0
 10
-4.499999999999998
 20
0.5
 10
4.5
 20
0.5
 42
0.414213562373095
 10
6.5
 20
2.5
 10
6.5
 20
13.5
 42
0.4142135623730949
 10
4.5
 20
15.5
 10
-4.499999999999998
 20
15.5
 42
0.414213562373095
 10
-6.499999999999998
 20
13.5
 10
-6.499999999999997
 20
2.5
 42
0.4142135623730951
  0
LWPOLYLINE
  5
88
100
AcDbEntity
  8
0
  6
ByLayer
 62
  256
370
   -1
100
AcDbPolyline
 90
    8
 70
    1
 43
0
 10
19
 20
-26.94744111674235
 10
19
 20
-17.94744111674235
 42
0.414213562373095
 10
17.00000000000001
 20
-15.94744111674235
 10
6
 20
-15.94744111674235
 42
0.414213562373095
 10
4
 20
-17.94744111674235
 10
4
 20
-26.94744111674235
 42
0.414213562373095
 10
6
 20
-28.94744111674235
 10
17.00000000000001
 20
-28.94744111674235
 42
0.414213562373095
  0
LWPOLYLINE
  5
89
100
AcDbEntity
  8
0
  6
ByLayer
 62
  256
370
   -1
100
AcDbPolyline
 90
    8
 70
    1
 43
0
 10
-4
 20
-26.94744111674235
 10
-4.000000000000002
 20
-17.94744111674235
 42
0.414213562373095
 10
-5.999999999999989
 20
-15.94744111674235
 10
-17
 20
-15.94744111674235
 42
0.414213562373095
 10
-19
 20
-17.94744111674235
 10
-19
 20
-26.94744111674235
 42
0.414213562373095
 10
-17
 20
-28.94744111674235
 10
-5.999999999999989
 20
-28.94744111674235
 42
0.4142135623730945
  0
LWPOLYLINE
  5
8A
100
AcDbEntity
  8
0
  6
ByLayer
 62
  256
370
   -1
100
AcDbPolyline
 90
    4
 70
    1
 43
0
 10
30.19265253183699
 20
48.46236565876043
 42
2.198129051924543
 10
33.76845857927418
 20
49.65430100790616
 42
-0.4486122364636308
 10
33.18881696179568
 20
52.58516120948741
 42
3.227586125728245
 10
28.89784970487103
 20
51.15483879051254
 42
-0.4486122364636335
  0
LWPOLYLINE
  5
8B
100
AcDbEntity
  8
0
  6
ByLayer
 62
  256
370
   -1
100
AcDbPolyline
 90
    4
 70
    1
 43
0
 10
-33.7684585792741
 20
49.65430100790616
 42
2.198129051924547
 10
-30.19265253183692
 20
48.46236565876043
 42
-0.448612236463634
 10
-28.89784970487096
 20
51.15483879051254
 42
3.227586125728217
 10
-33.18881696179562
 20
52.58516120948742
 42
-0.4486122364636311
  0
LWPOLYLINE
  5
8C
100
AcDbEntity
  8
0
  6
ByLayer
 62
  256
370
   -1
100
AcDbPolyline
 90
    4
 70
    1
 43
0
 10
-30.19265253183692
 20
-48.46236565876044
 42
2.198129051924528
 10
-33.7684585792741
 20
-49.65430100790617
 42
-0.4486122364636335
 10
-33.18881696179562
 20
-52.58516120948742
 42
3.227586125728227
 10
-28.89784970487096
 20
-51.15483879051254
 42
-0.4486122364636283
  0
LWPOLYLINE
  5
8D
100
AcDbEntity
  8
0
  6
ByLayer
 62
  256
370
   -1
100
AcDbPolyline
 90
    4
 70
    1
 43
0
 10
33.76845857927418
 20
-49.65430100790617
 42
2.198129051924528
 10
30.19265253183699
 20
-48.46236565876045
 42
-0.44861223646363
 10
28.89784970487103
 20
-51.15483879051254
 42
3.227586125728227
 10
33.18881696179568
 20
-52.58516120948744
 42
-0.4486122364636348
  0
LWPOLYLINE
  5
8E
100
AcDbEntity
  8
0
  6
ByLayer
 62
  256
370
   -1
100
AcDbPolyline
 90
   12
 70
    1
 43
0
 10
-33.18881696179571
 20
2.414838790512557
 42
1.234876962481793
 10
-26.10469640992805
 20
-0.9091809177346166
 42
-0.5882350273189711
 10
-22.74283091791127
 20
0.05044276248619495
 10
-22.20710713847485
 20
-0.4852810169502323
 42
0.4142136968863001
 10
-19.3786793642415
 20
-0.4852810820396921
 10
-13.01471862576144
 20
5.878679656440357
 42
0.4142135623730945
 10
-13.01471862576144
 20
8.707106781186546
 10
-20.79289321881341
 20
16.48528137423862
 42
0.4142136421546318
 10
-23.62132072877897
 20
16.48528098901925
 10
-29.72993438618804
 20
10.3766673316103
 42
-0.2798434014507384
 10
-31.74674825056684
 20
9.883822938469944
 42
0.8928951388255142
 10
-33.7684585792742
 20
5.345698992093797
 42
-0.4486122364636255
  0
LWPOLYLINE
  5
8F
100
AcDbEntity
  8
0
  6
ByLayer
 62
  256
370
   -1
100
AcDbPolyline
 90
   12
 70
    1
 43
0
 10
33.18881696179571
 20
2.414838790512555
 42
-1.234876962481793
 10
26.10469640992805
 20
-0.9091809177346191
 42
0.5882350273189713
 10
22.74283091791127
 20
0.05044276248619228
 10
22.20710713847485
 20
-0.4852810169502327
 42
-0.4142136968863001
 10
19.3786793642415
 20
-0.4852810820396972
 10
13.01471862576144
 20
5.878679656440355
 42
-0.4142135623730945
 10
13.01471862576144
 20
8.707106781186546
 10
20.79289321881341
 20
16.48528137423862
 42
-0.4142136421546319
 10
23.62132072877898
 20
16.48528098901925
 10
29.72993438618804
 20
10.3766673316103
 42
0.2798434014507384
 10
31.74674825056684
 20
9.88382293846994
 42
-0.8928951388255142
 10
33.7684585792742
 20
5.345698992093787
 42
0.4486122364636252
  0
ENDSEC
  0
SECTION
  2
OBJECTS
  0
DICTIONARY
  5
C
330
0
100
AcDbDictionary
281
    1
  3
ACAD_GROUP
350
D
  0
DICTIONARY
  5
D
330
C
100
AcDbDictionary
281
    1
  0
ENDSEC
  0
EOF
