M48
; DRILL file {KiCad 5.1.9-1.fc33} date Mon Jan 18 20:35:48 2021
; FORMAT={-:-/ absolute / metric / decimal}
; #@! TF.CreationDate,2021-01-18T20:35:48+01:00
; #@! TF.GenerationSoftware,Kicad,Pcbnew,5.1.9-1.fc33
; #@! TF.FileFunction,Plated,1,2,PTH
FMAT,2
METRIC
T1C0.950
T2C1.000
T3C1.100
T4C1.200
T5C1.500
T6C2.300
%
G90
G05
T1
X18.75Y49.75
X18.75Y47.75
X21.25Y49.75
X21.25Y47.75
T2
X11.27Y22.5
X11.27Y20.0
X11.27Y17.5
X14.92Y37.25
X17.46Y37.25
X17.5Y28.73
X20.0Y37.25
X20.0Y28.73
X22.5Y28.73
X22.54Y37.25
X25.08Y37.25
T3
X25.75Y23.25
X25.75Y16.75
X30.25Y23.25
X30.25Y16.75
T4
X13.5Y9.5
X13.5Y5.0
X26.5Y9.5
X26.5Y5.0
T5
X15.0Y26.3
X15.0Y13.7
X25.0Y26.3
X25.0Y13.7
T6
X14.0Y52.61
X26.0Y52.61
T0
M30
