%TF.GenerationSoftware,KiCad,Pcbnew,5.1.9-1.fc33*%
%TF.CreationDate,2021-01-14T18:53:31+01:00*%
%TF.ProjectId,Pendant PCB,50656e64-616e-4742-9050-43422e6b6963,rev?*%
%TF.SameCoordinates,PX3b9aca0PY9d5b340*%
%TF.FileFunction,Legend,Top*%
%TF.FilePolarity,Positive*%
%FSLAX46Y46*%
G04 Gerber Fmt 4.6, Leading zero omitted, Abs format (unit mm)*
G04 Created by KiCad (PCBNEW 5.1.9-1.fc33) date 2021-01-14 18:53:31*
%MOMM*%
%LPD*%
G01*
G04 APERTURE LIST*
%ADD10C,0.120000*%
%ADD11C,0.150000*%
G04 APERTURE END LIST*
D10*
%TO.C,EN_JOG_Y1*%
X33400000Y63700000D02*
X33400000Y64300000D01*
X31600000Y69500000D02*
X31600000Y65400000D01*
X40500000Y71500000D02*
G75*
G03*
X40500000Y71500000I-3000000J0D01*
G01*
X43400000Y69500000D02*
X43400000Y65400000D01*
X31600000Y73500000D02*
X31600000Y77600000D01*
X31600000Y77600000D02*
X34000000Y77600000D01*
X43400000Y77600000D02*
X43400000Y73500000D01*
X33700000Y64000000D02*
X33400000Y63700000D01*
X33400000Y64300000D02*
X33700000Y64000000D01*
X41000000Y77600000D02*
X43400000Y77600000D01*
X31600000Y65400000D02*
X43400000Y65400000D01*
X37000000Y71500000D02*
X38000000Y71500000D01*
X37500000Y71000000D02*
X37500000Y72000000D01*
X36200000Y77600000D02*
X38800000Y77600000D01*
%TO.C,EN_FEED1*%
X18200000Y45100000D02*
X18800000Y45100000D01*
X24000000Y46900000D02*
X19900000Y46900000D01*
X29000000Y41000000D02*
G75*
G03*
X29000000Y41000000I-3000000J0D01*
G01*
X24000000Y35100000D02*
X19900000Y35100000D01*
X28000000Y46900000D02*
X32100000Y46900000D01*
X32100000Y46900000D02*
X32100000Y44500000D01*
X32100000Y35100000D02*
X28000000Y35100000D01*
X18500000Y44800000D02*
X18200000Y45100000D01*
X18800000Y45100000D02*
X18500000Y44800000D01*
X32100000Y37500000D02*
X32100000Y35100000D01*
X19900000Y46900000D02*
X19900000Y35100000D01*
X26000000Y41500000D02*
X26000000Y40500000D01*
X25500000Y41000000D02*
X26500000Y41000000D01*
X32100000Y42300000D02*
X32100000Y39700000D01*
%TO.C,EN_SPINDLE1*%
X56800000Y36900000D02*
X56200000Y36900000D01*
X51000000Y35100000D02*
X55100000Y35100000D01*
X52000000Y41000000D02*
G75*
G03*
X52000000Y41000000I-3000000J0D01*
G01*
X51000000Y46900000D02*
X55100000Y46900000D01*
X47000000Y35100000D02*
X42900000Y35100000D01*
X42900000Y35100000D02*
X42900000Y37500000D01*
X42900000Y46900000D02*
X47000000Y46900000D01*
X56500000Y37200000D02*
X56800000Y36900000D01*
X56200000Y36900000D02*
X56500000Y37200000D01*
X42900000Y44500000D02*
X42900000Y46900000D01*
X55100000Y35100000D02*
X55100000Y46900000D01*
X49000000Y40500000D02*
X49000000Y41500000D01*
X49500000Y41000000D02*
X48500000Y41000000D01*
X42900000Y39700000D02*
X42900000Y42300000D01*
%TO.C,EN_JOG_X1*%
X18616295Y63085429D02*
X18192031Y63509693D01*
X13242284Y65913856D02*
X16141421Y63014719D01*
X19000000Y71500000D02*
G75*
G03*
X19000000Y71500000I-3000000J0D01*
G01*
X21586144Y74257716D02*
X24485281Y71358579D01*
X10413856Y68742284D02*
X7514719Y71641421D01*
X7514719Y71641421D02*
X9211775Y73338478D01*
X15858579Y79985281D02*
X18757716Y77086144D01*
X18616295Y63509693D02*
X18616295Y63085429D01*
X18192031Y63509693D02*
X18616295Y63509693D01*
X14161522Y78288225D02*
X15858579Y79985281D01*
X16141421Y63014719D02*
X24485281Y71358579D01*
X15646447Y71146447D02*
X16353553Y71853553D01*
X16353553Y71146447D02*
X15646447Y71853553D01*
X10767410Y74894113D02*
X12605887Y76732590D01*
%TO.C,EN_JOG_Z1*%
X50585429Y68883705D02*
X51009693Y69307969D01*
X53413856Y74257716D02*
X50514719Y71358579D01*
X62000000Y71500000D02*
G75*
G03*
X62000000Y71500000I-3000000J0D01*
G01*
X61757716Y65913856D02*
X58858579Y63014719D01*
X56242284Y77086144D02*
X59141421Y79985281D01*
X59141421Y79985281D02*
X60838478Y78288225D01*
X67485281Y71641421D02*
X64586144Y68742284D01*
X51009693Y68883705D02*
X50585429Y68883705D01*
X51009693Y69307969D02*
X51009693Y68883705D01*
X65788225Y73338478D02*
X67485281Y71641421D01*
X50514719Y71358579D02*
X58858579Y63014719D01*
X58646447Y71853553D02*
X59353553Y71146447D01*
X58646447Y71146447D02*
X59353553Y71853553D01*
X62394113Y76732590D02*
X64232590Y74894113D01*
%TO.C,SW_HOLD1*%
X39750000Y120750000D02*
X35250000Y120750000D01*
X41000000Y116750000D02*
X41000000Y118250000D01*
X35250000Y114250000D02*
X39750000Y114250000D01*
X34000000Y118250000D02*
X34000000Y116750000D01*
%TO.C,SW_$HZ1*%
X56750000Y52750000D02*
X61250000Y52750000D01*
X55500000Y56750000D02*
X55500000Y55250000D01*
X61250000Y59250000D02*
X56750000Y59250000D01*
X62500000Y55250000D02*
X62500000Y56750000D01*
%TO.C,SW_$X1*%
X57375001Y90250000D02*
X57375001Y85750000D01*
X61375001Y91500000D02*
X59875001Y91500000D01*
X63875001Y85750000D02*
X63875001Y90250000D01*
X59875001Y84500000D02*
X61375001Y84500000D01*
%TO.C,SW_MACRO-4*%
X60375000Y8500000D02*
X60375000Y13000000D01*
X56375000Y7250000D02*
X57875000Y7250000D01*
X53875000Y13000000D02*
X53875000Y8500000D01*
X57875000Y14250000D02*
X56375000Y14250000D01*
%TO.C,SW_PY+1*%
X34000000Y28750000D02*
X34000000Y27250000D01*
X35250000Y24750000D02*
X39750000Y24750000D01*
X41000000Y27250000D02*
X41000000Y28750000D01*
X39750000Y31250000D02*
X35250000Y31250000D01*
%TO.C,SW_RST1*%
X17250000Y114250000D02*
X21750000Y114250000D01*
X16000000Y118250000D02*
X16000000Y116750000D01*
X21750000Y120750000D02*
X17250000Y120750000D01*
X23000000Y116750000D02*
X23000000Y118250000D01*
%TO.C,SW_R-CLICK1*%
X15125000Y91500000D02*
X13625000Y91500000D01*
X11125000Y90250000D02*
X11125000Y85750000D01*
X13625000Y84500000D02*
X15125000Y84500000D01*
X17625000Y85750000D02*
X17625000Y90250000D01*
%TO.C,SW_PX-1*%
X23468019Y17028806D02*
X26650000Y13846825D01*
X25412563Y20741117D02*
X24351903Y19680456D01*
X31246194Y18443019D02*
X28064214Y21625000D01*
X29301650Y14730709D02*
X30362311Y15791369D01*
%TO.C,SW_START1*%
X53250000Y114250000D02*
X57750000Y114250000D01*
X52000000Y118250000D02*
X52000000Y116750000D01*
X57750000Y120750000D02*
X53250000Y120750000D01*
X59000000Y116750000D02*
X59000000Y118250000D01*
%TO.C,SW_MACRO-3*%
X21000000Y8500000D02*
X21000000Y13000000D01*
X17000000Y7250000D02*
X18500000Y7250000D01*
X14500000Y13000000D02*
X14500000Y8500000D01*
X18500000Y14250000D02*
X17000000Y14250000D01*
%TO.C,SW_MACRO-1*%
X21000000Y22500000D02*
X21000000Y27000000D01*
X17000000Y21250000D02*
X18500000Y21250000D01*
X14500000Y27000000D02*
X14500000Y22500000D01*
X18500000Y28250000D02*
X17000000Y28250000D01*
%TO.C,SW_100\u0025S1*%
X68000000Y40250000D02*
X68000000Y41750000D01*
X66750000Y44250000D02*
X62250000Y44250000D01*
X61000000Y41750000D02*
X61000000Y40250000D01*
X62250000Y37750000D02*
X66750000Y37750000D01*
%TO.C,SW_PX+1*%
X48346194Y13818019D02*
X51528175Y17000000D01*
X44633883Y15762563D02*
X45694544Y14701903D01*
X46931981Y21596194D02*
X43750000Y18414214D01*
X50644291Y19651650D02*
X49583631Y20712311D01*
%TO.C,SW_$HX1*%
X13750000Y52750000D02*
X18250000Y52750000D01*
X12500000Y56750000D02*
X12500000Y55250000D01*
X18250000Y59250000D02*
X13750000Y59250000D01*
X19500000Y55250000D02*
X19500000Y56750000D01*
%TO.C,SW_$H1*%
X57375001Y104250000D02*
X57375001Y99750000D01*
X61375001Y105500000D02*
X59875001Y105500000D01*
X63875001Y99750000D02*
X63875001Y104250000D01*
X59875001Y98500000D02*
X61375001Y98500000D01*
%TO.C,SW_MACRO-2*%
X60375000Y22500000D02*
X60375000Y27000000D01*
X56375000Y21250000D02*
X57875000Y21250000D01*
X53875000Y27000000D02*
X53875000Y22500000D01*
X57875000Y28250000D02*
X56375000Y28250000D01*
%TO.C,SW_$HY1*%
X35250000Y52750000D02*
X39750000Y52750000D01*
X34000000Y56750000D02*
X34000000Y55250000D01*
X39750000Y59250000D02*
X35250000Y59250000D01*
X41000000Y55250000D02*
X41000000Y56750000D01*
%TO.C,SW_PY-1*%
X35250000Y4375000D02*
X39750000Y4375000D01*
X34000000Y8375000D02*
X34000000Y6875000D01*
X39750000Y10875000D02*
X35250000Y10875000D01*
X41000000Y6875000D02*
X41000000Y8375000D01*
%TO.C,SW_PZ-1*%
X34250000Y20000001D02*
X34250000Y15500001D01*
X38250000Y21250001D02*
X36750000Y21250001D01*
X40750000Y15500001D02*
X40750000Y20000001D01*
X36750000Y14250001D02*
X38250000Y14250001D01*
%TO.C,SW_L-CLICK1*%
X17625000Y99750000D02*
X17625000Y104250000D01*
X13625000Y98500000D02*
X15125000Y98500000D01*
X11125000Y104250000D02*
X11125000Y99750000D01*
X15125000Y105500000D02*
X13625000Y105500000D01*
%TO.C,SW_100\u0025F1*%
X8250000Y37750000D02*
X12750000Y37750000D01*
X7000000Y41750000D02*
X7000000Y40250000D01*
X12750000Y44250000D02*
X8250000Y44250000D01*
X14000000Y40250000D02*
X14000000Y41750000D01*
%TO.C,EN_JOG_Y1*%
D11*
X33690476Y61571429D02*
X34023809Y61571429D01*
X34166666Y61047620D02*
X33690476Y61047620D01*
X33690476Y62047620D01*
X34166666Y62047620D01*
X34595238Y61047620D02*
X34595238Y62047620D01*
X35166666Y61047620D01*
X35166666Y62047620D01*
X35404761Y60952381D02*
X36166666Y60952381D01*
X36690476Y62047620D02*
X36690476Y61333334D01*
X36642857Y61190477D01*
X36547619Y61095239D01*
X36404761Y61047620D01*
X36309523Y61047620D01*
X37357142Y62047620D02*
X37547619Y62047620D01*
X37642857Y62000000D01*
X37738095Y61904762D01*
X37785714Y61714286D01*
X37785714Y61380953D01*
X37738095Y61190477D01*
X37642857Y61095239D01*
X37547619Y61047620D01*
X37357142Y61047620D01*
X37261904Y61095239D01*
X37166666Y61190477D01*
X37119047Y61380953D01*
X37119047Y61714286D01*
X37166666Y61904762D01*
X37261904Y62000000D01*
X37357142Y62047620D01*
X38738095Y62000000D02*
X38642857Y62047620D01*
X38500000Y62047620D01*
X38357142Y62000000D01*
X38261904Y61904762D01*
X38214285Y61809524D01*
X38166666Y61619048D01*
X38166666Y61476191D01*
X38214285Y61285715D01*
X38261904Y61190477D01*
X38357142Y61095239D01*
X38500000Y61047620D01*
X38595238Y61047620D01*
X38738095Y61095239D01*
X38785714Y61142858D01*
X38785714Y61476191D01*
X38595238Y61476191D01*
X38976190Y60952381D02*
X39738095Y60952381D01*
X40166666Y61523810D02*
X40166666Y61047620D01*
X39833333Y62047620D02*
X40166666Y61523810D01*
X40500000Y62047620D01*
X41357142Y61047620D02*
X40785714Y61047620D01*
X41071428Y61047620D02*
X41071428Y62047620D01*
X40976190Y61904762D01*
X40880952Y61809524D01*
X40785714Y61761905D01*
%TO.C,EN_FEED1*%
X19571428Y33071429D02*
X19904761Y33071429D01*
X20047619Y32547620D02*
X19571428Y32547620D01*
X19571428Y33547620D01*
X20047619Y33547620D01*
X20476190Y32547620D02*
X20476190Y33547620D01*
X21047619Y32547620D01*
X21047619Y33547620D01*
X21285714Y32452381D02*
X22047619Y32452381D01*
X22619047Y33071429D02*
X22285714Y33071429D01*
X22285714Y32547620D02*
X22285714Y33547620D01*
X22761904Y33547620D01*
X23142857Y33071429D02*
X23476190Y33071429D01*
X23619047Y32547620D02*
X23142857Y32547620D01*
X23142857Y33547620D01*
X23619047Y33547620D01*
X24047619Y33071429D02*
X24380952Y33071429D01*
X24523809Y32547620D02*
X24047619Y32547620D01*
X24047619Y33547620D01*
X24523809Y33547620D01*
X24952380Y32547620D02*
X24952380Y33547620D01*
X25190476Y33547620D01*
X25333333Y33500000D01*
X25428571Y33404762D01*
X25476190Y33309524D01*
X25523809Y33119048D01*
X25523809Y32976191D01*
X25476190Y32785715D01*
X25428571Y32690477D01*
X25333333Y32595239D01*
X25190476Y32547620D01*
X24952380Y32547620D01*
X26476190Y32547620D02*
X25904761Y32547620D01*
X26190476Y32547620D02*
X26190476Y33547620D01*
X26095238Y33404762D01*
X26000000Y33309524D01*
X25904761Y33261905D01*
%TO.C,EN_SPINDLE1*%
X48754523Y33451429D02*
X49087857Y33451429D01*
X49230714Y32927620D02*
X48754523Y32927620D01*
X48754523Y33927620D01*
X49230714Y33927620D01*
X49659285Y32927620D02*
X49659285Y33927620D01*
X50230714Y32927620D01*
X50230714Y33927620D01*
X50468809Y32832381D02*
X51230714Y32832381D01*
X51421190Y32975239D02*
X51564047Y32927620D01*
X51802142Y32927620D01*
X51897380Y32975239D01*
X51945000Y33022858D01*
X51992619Y33118096D01*
X51992619Y33213334D01*
X51945000Y33308572D01*
X51897380Y33356191D01*
X51802142Y33403810D01*
X51611666Y33451429D01*
X51516428Y33499048D01*
X51468809Y33546667D01*
X51421190Y33641905D01*
X51421190Y33737143D01*
X51468809Y33832381D01*
X51516428Y33880000D01*
X51611666Y33927620D01*
X51849761Y33927620D01*
X51992619Y33880000D01*
X52421190Y32927620D02*
X52421190Y33927620D01*
X52802142Y33927620D01*
X52897380Y33880000D01*
X52945000Y33832381D01*
X52992619Y33737143D01*
X52992619Y33594286D01*
X52945000Y33499048D01*
X52897380Y33451429D01*
X52802142Y33403810D01*
X52421190Y33403810D01*
X53421190Y32927620D02*
X53421190Y33927620D01*
X53897380Y32927620D02*
X53897380Y33927620D01*
X54468809Y32927620D01*
X54468809Y33927620D01*
X54945000Y32927620D02*
X54945000Y33927620D01*
X55183095Y33927620D01*
X55325952Y33880000D01*
X55421190Y33784762D01*
X55468809Y33689524D01*
X55516428Y33499048D01*
X55516428Y33356191D01*
X55468809Y33165715D01*
X55421190Y33070477D01*
X55325952Y32975239D01*
X55183095Y32927620D01*
X54945000Y32927620D01*
X56421190Y32927620D02*
X55945000Y32927620D01*
X55945000Y33927620D01*
X56754523Y33451429D02*
X57087857Y33451429D01*
X57230714Y32927620D02*
X56754523Y32927620D01*
X56754523Y33927620D01*
X57230714Y33927620D01*
X58183095Y32927620D02*
X57611666Y32927620D01*
X57897380Y32927620D02*
X57897380Y33927620D01*
X57802142Y33784762D01*
X57706904Y33689524D01*
X57611666Y33641905D01*
%TO.C,EN_JOG_X1*%
X20722079Y61823096D02*
X20957781Y62058799D01*
X21429186Y61789425D02*
X21092468Y61452707D01*
X20385361Y62159814D01*
X20722079Y62496531D01*
X21732232Y62092470D02*
X21025125Y62799577D01*
X22136293Y62496531D01*
X21429186Y63203638D01*
X22371995Y62597547D02*
X22910743Y63136295D01*
X22506682Y64281134D02*
X23011758Y63776058D01*
X23079102Y63641371D01*
X23079102Y63506684D01*
X23011758Y63371997D01*
X22944415Y63304653D01*
X22978086Y64752539D02*
X23112773Y64887226D01*
X23213789Y64920897D01*
X23348476Y64920897D01*
X23516834Y64819882D01*
X23752537Y64584180D01*
X23853552Y64415821D01*
X23853552Y64281134D01*
X23819880Y64180119D01*
X23685193Y64045432D01*
X23584178Y64011760D01*
X23449491Y64011760D01*
X23281132Y64112775D01*
X23045430Y64348478D01*
X22944415Y64516836D01*
X22944415Y64651523D01*
X22978086Y64752539D01*
X23988239Y65695348D02*
X23887224Y65661676D01*
X23786208Y65560661D01*
X23718865Y65425974D01*
X23718865Y65291287D01*
X23752537Y65190271D01*
X23853552Y65021913D01*
X23954567Y64920897D01*
X24122926Y64819882D01*
X24223941Y64786210D01*
X24358628Y64786210D01*
X24493315Y64853554D01*
X24560659Y64920897D01*
X24628002Y65055584D01*
X24628002Y65122928D01*
X24392300Y65358630D01*
X24257613Y65223943D01*
X24897376Y65122928D02*
X25436124Y65661676D01*
X24762689Y66537141D02*
X25941200Y66301439D01*
X25234094Y67008546D02*
X25469796Y65830035D01*
X26580964Y66941202D02*
X26176903Y66537141D01*
X26378933Y66739172D02*
X25671826Y67446279D01*
X25705498Y67277920D01*
X25705498Y67143233D01*
X25671826Y67042218D01*
%TO.C,EN_JOG_Z1*%
X49323095Y67277920D02*
X49558798Y67042218D01*
X49289424Y66570813D02*
X48952706Y66907531D01*
X49659813Y67614638D01*
X49996530Y67277920D01*
X49592469Y66267767D02*
X50299576Y66974874D01*
X49996530Y65863706D01*
X50703637Y66570813D01*
X50097546Y65628004D02*
X50636294Y65089256D01*
X51781133Y65493317D02*
X51276057Y64988241D01*
X51141370Y64920897D01*
X51006683Y64920897D01*
X50871996Y64988241D01*
X50804652Y65055584D01*
X52252538Y65021913D02*
X52387225Y64887226D01*
X52420896Y64786210D01*
X52420896Y64651523D01*
X52319881Y64483165D01*
X52084179Y64247462D01*
X51915820Y64146447D01*
X51781133Y64146447D01*
X51680118Y64180119D01*
X51545431Y64314806D01*
X51511759Y64415821D01*
X51511759Y64550508D01*
X51612774Y64718867D01*
X51848477Y64954569D01*
X52016835Y65055584D01*
X52151522Y65055584D01*
X52252538Y65021913D01*
X53195347Y64011760D02*
X53161675Y64112775D01*
X53060660Y64213791D01*
X52925973Y64281134D01*
X52791286Y64281134D01*
X52690270Y64247462D01*
X52521912Y64146447D01*
X52420896Y64045432D01*
X52319881Y63877073D01*
X52286209Y63776058D01*
X52286209Y63641371D01*
X52353553Y63506684D01*
X52420896Y63439340D01*
X52555583Y63371997D01*
X52622927Y63371997D01*
X52858629Y63607699D01*
X52723942Y63742386D01*
X52622927Y63102623D02*
X53161675Y62563875D01*
X54037140Y63237310D02*
X54508545Y62765905D01*
X53330034Y62530203D01*
X53801438Y62058799D01*
X54441201Y61419035D02*
X54037140Y61823096D01*
X54239171Y61621066D02*
X54946278Y62328173D01*
X54777919Y62294501D01*
X54643232Y62294501D01*
X54542217Y62328173D01*
%TO.C,SW_HOLD1*%
X33833333Y117095239D02*
X33976190Y117047620D01*
X34214285Y117047620D01*
X34309523Y117095239D01*
X34357142Y117142858D01*
X34404761Y117238096D01*
X34404761Y117333334D01*
X34357142Y117428572D01*
X34309523Y117476191D01*
X34214285Y117523810D01*
X34023809Y117571429D01*
X33928571Y117619048D01*
X33880952Y117666667D01*
X33833333Y117761905D01*
X33833333Y117857143D01*
X33880952Y117952381D01*
X33928571Y118000000D01*
X34023809Y118047620D01*
X34261904Y118047620D01*
X34404761Y118000000D01*
X34738095Y118047620D02*
X34976190Y117047620D01*
X35166666Y117761905D01*
X35357142Y117047620D01*
X35595238Y118047620D01*
X35738095Y116952381D02*
X36500000Y116952381D01*
X36738095Y117047620D02*
X36738095Y118047620D01*
X36738095Y117571429D02*
X37309523Y117571429D01*
X37309523Y117047620D02*
X37309523Y118047620D01*
X37976190Y118047620D02*
X38166666Y118047620D01*
X38261904Y118000000D01*
X38357142Y117904762D01*
X38404761Y117714286D01*
X38404761Y117380953D01*
X38357142Y117190477D01*
X38261904Y117095239D01*
X38166666Y117047620D01*
X37976190Y117047620D01*
X37880952Y117095239D01*
X37785714Y117190477D01*
X37738095Y117380953D01*
X37738095Y117714286D01*
X37785714Y117904762D01*
X37880952Y118000000D01*
X37976190Y118047620D01*
X39309523Y117047620D02*
X38833333Y117047620D01*
X38833333Y118047620D01*
X39642857Y117047620D02*
X39642857Y118047620D01*
X39880952Y118047620D01*
X40023809Y118000000D01*
X40119047Y117904762D01*
X40166666Y117809524D01*
X40214285Y117619048D01*
X40214285Y117476191D01*
X40166666Y117285715D01*
X40119047Y117190477D01*
X40023809Y117095239D01*
X39880952Y117047620D01*
X39642857Y117047620D01*
X41166666Y117047620D02*
X40595238Y117047620D01*
X40880952Y117047620D02*
X40880952Y118047620D01*
X40785714Y117904762D01*
X40690476Y117809524D01*
X40595238Y117761905D01*
%TO.C,SW_$HZ1*%
X55809523Y51095239D02*
X55952380Y51047620D01*
X56190476Y51047620D01*
X56285714Y51095239D01*
X56333333Y51142858D01*
X56380952Y51238096D01*
X56380952Y51333334D01*
X56333333Y51428572D01*
X56285714Y51476191D01*
X56190476Y51523810D01*
X56000000Y51571429D01*
X55904761Y51619048D01*
X55857142Y51666667D01*
X55809523Y51761905D01*
X55809523Y51857143D01*
X55857142Y51952381D01*
X55904761Y52000000D01*
X56000000Y52047620D01*
X56238095Y52047620D01*
X56380952Y52000000D01*
X56714285Y52047620D02*
X56952380Y51047620D01*
X57142857Y51761905D01*
X57333333Y51047620D01*
X57571428Y52047620D01*
X57714285Y50952381D02*
X58476190Y50952381D01*
X58666666Y51095239D02*
X58809523Y51047620D01*
X59047619Y51047620D01*
X59142857Y51095239D01*
X59190476Y51142858D01*
X59238095Y51238096D01*
X59238095Y51333334D01*
X59190476Y51428572D01*
X59142857Y51476191D01*
X59047619Y51523810D01*
X58857142Y51571429D01*
X58761904Y51619048D01*
X58714285Y51666667D01*
X58666666Y51761905D01*
X58666666Y51857143D01*
X58714285Y51952381D01*
X58761904Y52000000D01*
X58857142Y52047620D01*
X59095238Y52047620D01*
X59238095Y52000000D01*
X58952380Y52190477D02*
X58952380Y50904762D01*
X59666666Y51047620D02*
X59666666Y52047620D01*
X59666666Y51571429D02*
X60238095Y51571429D01*
X60238095Y51047620D02*
X60238095Y52047620D01*
X60619047Y52047620D02*
X61285714Y52047620D01*
X60619047Y51047620D01*
X61285714Y51047620D01*
X62190476Y51047620D02*
X61619047Y51047620D01*
X61904761Y51047620D02*
X61904761Y52047620D01*
X61809523Y51904762D01*
X61714285Y51809524D01*
X61619047Y51761905D01*
%TO.C,SW_$X1*%
X58083333Y93095239D02*
X58226190Y93047620D01*
X58464285Y93047620D01*
X58559523Y93095239D01*
X58607142Y93142858D01*
X58654761Y93238096D01*
X58654761Y93333334D01*
X58607142Y93428572D01*
X58559523Y93476191D01*
X58464285Y93523810D01*
X58273809Y93571429D01*
X58178571Y93619048D01*
X58130952Y93666667D01*
X58083333Y93761905D01*
X58083333Y93857143D01*
X58130952Y93952381D01*
X58178571Y94000000D01*
X58273809Y94047620D01*
X58511904Y94047620D01*
X58654761Y94000000D01*
X58988095Y94047620D02*
X59226190Y93047620D01*
X59416666Y93761905D01*
X59607142Y93047620D01*
X59845238Y94047620D01*
X59988095Y92952381D02*
X60750000Y92952381D01*
X60940476Y93095239D02*
X61083333Y93047620D01*
X61321428Y93047620D01*
X61416666Y93095239D01*
X61464285Y93142858D01*
X61511904Y93238096D01*
X61511904Y93333334D01*
X61464285Y93428572D01*
X61416666Y93476191D01*
X61321428Y93523810D01*
X61130952Y93571429D01*
X61035714Y93619048D01*
X60988095Y93666667D01*
X60940476Y93761905D01*
X60940476Y93857143D01*
X60988095Y93952381D01*
X61035714Y94000000D01*
X61130952Y94047620D01*
X61369047Y94047620D01*
X61511904Y94000000D01*
X61226190Y94190477D02*
X61226190Y92904762D01*
X61845238Y94047620D02*
X62511904Y93047620D01*
X62511904Y94047620D02*
X61845238Y93047620D01*
X63416666Y93047620D02*
X62845238Y93047620D01*
X63130952Y93047620D02*
X63130952Y94047620D01*
X63035714Y93904762D01*
X62940476Y93809524D01*
X62845238Y93761905D01*
%TO.C,SW_MACRO-4*%
X52142857Y4595239D02*
X52285714Y4547620D01*
X52523809Y4547620D01*
X52619047Y4595239D01*
X52666666Y4642858D01*
X52714285Y4738096D01*
X52714285Y4833334D01*
X52666666Y4928572D01*
X52619047Y4976191D01*
X52523809Y5023810D01*
X52333333Y5071429D01*
X52238095Y5119048D01*
X52190476Y5166667D01*
X52142857Y5261905D01*
X52142857Y5357143D01*
X52190476Y5452381D01*
X52238095Y5500000D01*
X52333333Y5547620D01*
X52571428Y5547620D01*
X52714285Y5500000D01*
X53047619Y5547620D02*
X53285714Y4547620D01*
X53476190Y5261905D01*
X53666666Y4547620D01*
X53904761Y5547620D01*
X54047619Y4452381D02*
X54809523Y4452381D01*
X55047619Y4547620D02*
X55047619Y5547620D01*
X55380952Y4833334D01*
X55714285Y5547620D01*
X55714285Y4547620D01*
X56142857Y4833334D02*
X56619047Y4833334D01*
X56047619Y4547620D02*
X56380952Y5547620D01*
X56714285Y4547620D01*
X57619047Y4642858D02*
X57571428Y4595239D01*
X57428571Y4547620D01*
X57333333Y4547620D01*
X57190476Y4595239D01*
X57095238Y4690477D01*
X57047619Y4785715D01*
X57000000Y4976191D01*
X57000000Y5119048D01*
X57047619Y5309524D01*
X57095238Y5404762D01*
X57190476Y5500000D01*
X57333333Y5547620D01*
X57428571Y5547620D01*
X57571428Y5500000D01*
X57619047Y5452381D01*
X58619047Y4547620D02*
X58285714Y5023810D01*
X58047619Y4547620D02*
X58047619Y5547620D01*
X58428571Y5547620D01*
X58523809Y5500000D01*
X58571428Y5452381D01*
X58619047Y5357143D01*
X58619047Y5214286D01*
X58571428Y5119048D01*
X58523809Y5071429D01*
X58428571Y5023810D01*
X58047619Y5023810D01*
X59238095Y5547620D02*
X59428571Y5547620D01*
X59523809Y5500000D01*
X59619047Y5404762D01*
X59666666Y5214286D01*
X59666666Y4880953D01*
X59619047Y4690477D01*
X59523809Y4595239D01*
X59428571Y4547620D01*
X59238095Y4547620D01*
X59142857Y4595239D01*
X59047619Y4690477D01*
X59000000Y4880953D01*
X59000000Y5214286D01*
X59047619Y5404762D01*
X59142857Y5500000D01*
X59238095Y5547620D01*
X60095238Y4928572D02*
X60857142Y4928572D01*
X61761904Y5214286D02*
X61761904Y4547620D01*
X61523809Y5595239D02*
X61285714Y4880953D01*
X61904761Y4880953D01*
%TO.C,SW_PY+1*%
X34238095Y22845239D02*
X34380952Y22797620D01*
X34619047Y22797620D01*
X34714285Y22845239D01*
X34761904Y22892858D01*
X34809523Y22988096D01*
X34809523Y23083334D01*
X34761904Y23178572D01*
X34714285Y23226191D01*
X34619047Y23273810D01*
X34428571Y23321429D01*
X34333333Y23369048D01*
X34285714Y23416667D01*
X34238095Y23511905D01*
X34238095Y23607143D01*
X34285714Y23702381D01*
X34333333Y23750000D01*
X34428571Y23797620D01*
X34666666Y23797620D01*
X34809523Y23750000D01*
X35142857Y23797620D02*
X35380952Y22797620D01*
X35571428Y23511905D01*
X35761904Y22797620D01*
X36000000Y23797620D01*
X36142857Y22702381D02*
X36904761Y22702381D01*
X37142857Y22797620D02*
X37142857Y23797620D01*
X37523809Y23797620D01*
X37619047Y23750000D01*
X37666666Y23702381D01*
X37714285Y23607143D01*
X37714285Y23464286D01*
X37666666Y23369048D01*
X37619047Y23321429D01*
X37523809Y23273810D01*
X37142857Y23273810D01*
X38333333Y23273810D02*
X38333333Y22797620D01*
X38000000Y23797620D02*
X38333333Y23273810D01*
X38666666Y23797620D01*
X39000000Y23178572D02*
X39761904Y23178572D01*
X39380952Y22797620D02*
X39380952Y23559524D01*
X40761904Y22797620D02*
X40190476Y22797620D01*
X40476190Y22797620D02*
X40476190Y23797620D01*
X40380952Y23654762D01*
X40285714Y23559524D01*
X40190476Y23511905D01*
%TO.C,SW_RST1*%
X16428571Y121595239D02*
X16571428Y121547620D01*
X16809523Y121547620D01*
X16904761Y121595239D01*
X16952380Y121642858D01*
X17000000Y121738096D01*
X17000000Y121833334D01*
X16952380Y121928572D01*
X16904761Y121976191D01*
X16809523Y122023810D01*
X16619047Y122071429D01*
X16523809Y122119048D01*
X16476190Y122166667D01*
X16428571Y122261905D01*
X16428571Y122357143D01*
X16476190Y122452381D01*
X16523809Y122500000D01*
X16619047Y122547620D01*
X16857142Y122547620D01*
X17000000Y122500000D01*
X17333333Y122547620D02*
X17571428Y121547620D01*
X17761904Y122261905D01*
X17952380Y121547620D01*
X18190476Y122547620D01*
X18333333Y121452381D02*
X19095238Y121452381D01*
X19904761Y121547620D02*
X19571428Y122023810D01*
X19333333Y121547620D02*
X19333333Y122547620D01*
X19714285Y122547620D01*
X19809523Y122500000D01*
X19857142Y122452381D01*
X19904761Y122357143D01*
X19904761Y122214286D01*
X19857142Y122119048D01*
X19809523Y122071429D01*
X19714285Y122023810D01*
X19333333Y122023810D01*
X20285714Y121595239D02*
X20428571Y121547620D01*
X20666666Y121547620D01*
X20761904Y121595239D01*
X20809523Y121642858D01*
X20857142Y121738096D01*
X20857142Y121833334D01*
X20809523Y121928572D01*
X20761904Y121976191D01*
X20666666Y122023810D01*
X20476190Y122071429D01*
X20380952Y122119048D01*
X20333333Y122166667D01*
X20285714Y122261905D01*
X20285714Y122357143D01*
X20333333Y122452381D01*
X20380952Y122500000D01*
X20476190Y122547620D01*
X20714285Y122547620D01*
X20857142Y122500000D01*
X21142857Y122547620D02*
X21714285Y122547620D01*
X21428571Y121547620D02*
X21428571Y122547620D01*
X22571428Y121547620D02*
X22000000Y121547620D01*
X22285714Y121547620D02*
X22285714Y122547620D01*
X22190476Y122404762D01*
X22095238Y122309524D01*
X22000000Y122261905D01*
%TO.C,SW_R-CLICK1*%
X9523809Y93095239D02*
X9666666Y93047620D01*
X9904761Y93047620D01*
X10000000Y93095239D01*
X10047619Y93142858D01*
X10095238Y93238096D01*
X10095238Y93333334D01*
X10047619Y93428572D01*
X10000000Y93476191D01*
X9904761Y93523810D01*
X9714285Y93571429D01*
X9619047Y93619048D01*
X9571428Y93666667D01*
X9523809Y93761905D01*
X9523809Y93857143D01*
X9571428Y93952381D01*
X9619047Y94000000D01*
X9714285Y94047620D01*
X9952380Y94047620D01*
X10095238Y94000000D01*
X10428571Y94047620D02*
X10666666Y93047620D01*
X10857142Y93761905D01*
X11047619Y93047620D01*
X11285714Y94047620D01*
X11428571Y92952381D02*
X12190476Y92952381D01*
X13000000Y93047620D02*
X12666666Y93523810D01*
X12428571Y93047620D02*
X12428571Y94047620D01*
X12809523Y94047620D01*
X12904761Y94000000D01*
X12952380Y93952381D01*
X13000000Y93857143D01*
X13000000Y93714286D01*
X12952380Y93619048D01*
X12904761Y93571429D01*
X12809523Y93523810D01*
X12428571Y93523810D01*
X13428571Y93428572D02*
X14190476Y93428572D01*
X15238095Y93142858D02*
X15190476Y93095239D01*
X15047619Y93047620D01*
X14952380Y93047620D01*
X14809523Y93095239D01*
X14714285Y93190477D01*
X14666666Y93285715D01*
X14619047Y93476191D01*
X14619047Y93619048D01*
X14666666Y93809524D01*
X14714285Y93904762D01*
X14809523Y94000000D01*
X14952380Y94047620D01*
X15047619Y94047620D01*
X15190476Y94000000D01*
X15238095Y93952381D01*
X16142857Y93047620D02*
X15666666Y93047620D01*
X15666666Y94047620D01*
X16476190Y93047620D02*
X16476190Y94047620D01*
X17523809Y93142858D02*
X17476190Y93095239D01*
X17333333Y93047620D01*
X17238095Y93047620D01*
X17095238Y93095239D01*
X17000000Y93190477D01*
X16952380Y93285715D01*
X16904761Y93476191D01*
X16904761Y93619048D01*
X16952380Y93809524D01*
X17000000Y93904762D01*
X17095238Y94000000D01*
X17238095Y94047620D01*
X17333333Y94047620D01*
X17476190Y94000000D01*
X17523809Y93952381D01*
X17952380Y93047620D02*
X17952380Y94047620D01*
X18523809Y93047620D02*
X18095238Y93619048D01*
X18523809Y94047620D02*
X17952380Y93476191D01*
X19476190Y93047620D02*
X18904761Y93047620D01*
X19190476Y93047620D02*
X19190476Y94047620D01*
X19095238Y93904762D01*
X19000000Y93809524D01*
X18904761Y93761905D01*
%TO.C,SW_PX-1*%
X21373603Y16553977D02*
X21440946Y16419290D01*
X21609305Y16250932D01*
X21710320Y16217260D01*
X21777664Y16217260D01*
X21878679Y16250932D01*
X21946023Y16318275D01*
X21979694Y16419290D01*
X21979694Y16486634D01*
X21946023Y16587649D01*
X21845007Y16756008D01*
X21811336Y16857023D01*
X21811336Y16924367D01*
X21845007Y17025382D01*
X21912351Y17092725D01*
X22013366Y17126397D01*
X22080710Y17126397D01*
X22181725Y17092725D01*
X22350084Y16924367D01*
X22417427Y16789680D01*
X22686801Y16587649D02*
X22148053Y15712184D01*
X22787816Y16082573D01*
X22417427Y15442810D01*
X23292893Y15981558D01*
X22619458Y15106092D02*
X23158206Y14567344D01*
X23393908Y14466329D02*
X24101015Y15173436D01*
X24370389Y14904062D01*
X24404061Y14803046D01*
X24404061Y14735703D01*
X24370389Y14634688D01*
X24269374Y14533672D01*
X24168358Y14500000D01*
X24101015Y14500000D01*
X24000000Y14533672D01*
X23730625Y14803046D01*
X24740778Y14533672D02*
X24505076Y13355161D01*
X25212183Y14062268D02*
X24033671Y13826565D01*
X25043824Y13355161D02*
X25582572Y12816413D01*
X26020305Y11839932D02*
X25616244Y12243993D01*
X25818274Y12041963D02*
X26525381Y12749069D01*
X26357022Y12715398D01*
X26222335Y12715398D01*
X26121320Y12749069D01*
%TO.C,SW_START1*%
X51619047Y121595239D02*
X51761904Y121547620D01*
X52000000Y121547620D01*
X52095238Y121595239D01*
X52142857Y121642858D01*
X52190476Y121738096D01*
X52190476Y121833334D01*
X52142857Y121928572D01*
X52095238Y121976191D01*
X52000000Y122023810D01*
X51809523Y122071429D01*
X51714285Y122119048D01*
X51666666Y122166667D01*
X51619047Y122261905D01*
X51619047Y122357143D01*
X51666666Y122452381D01*
X51714285Y122500000D01*
X51809523Y122547620D01*
X52047619Y122547620D01*
X52190476Y122500000D01*
X52523809Y122547620D02*
X52761904Y121547620D01*
X52952380Y122261905D01*
X53142857Y121547620D01*
X53380952Y122547620D01*
X53523809Y121452381D02*
X54285714Y121452381D01*
X54476190Y121595239D02*
X54619047Y121547620D01*
X54857142Y121547620D01*
X54952380Y121595239D01*
X55000000Y121642858D01*
X55047619Y121738096D01*
X55047619Y121833334D01*
X55000000Y121928572D01*
X54952380Y121976191D01*
X54857142Y122023810D01*
X54666666Y122071429D01*
X54571428Y122119048D01*
X54523809Y122166667D01*
X54476190Y122261905D01*
X54476190Y122357143D01*
X54523809Y122452381D01*
X54571428Y122500000D01*
X54666666Y122547620D01*
X54904761Y122547620D01*
X55047619Y122500000D01*
X55333333Y122547620D02*
X55904761Y122547620D01*
X55619047Y121547620D02*
X55619047Y122547620D01*
X56190476Y121833334D02*
X56666666Y121833334D01*
X56095238Y121547620D02*
X56428571Y122547620D01*
X56761904Y121547620D01*
X57666666Y121547620D02*
X57333333Y122023810D01*
X57095238Y121547620D02*
X57095238Y122547620D01*
X57476190Y122547620D01*
X57571428Y122500000D01*
X57619047Y122452381D01*
X57666666Y122357143D01*
X57666666Y122214286D01*
X57619047Y122119048D01*
X57571428Y122071429D01*
X57476190Y122023810D01*
X57095238Y122023810D01*
X57952380Y122547620D02*
X58523809Y122547620D01*
X58238095Y121547620D02*
X58238095Y122547620D01*
X59380952Y121547620D02*
X58809523Y121547620D01*
X59095238Y121547620D02*
X59095238Y122547620D01*
X59000000Y122404762D01*
X58904761Y122309524D01*
X58809523Y122261905D01*
%TO.C,SW_MACRO-3*%
X12642857Y4595239D02*
X12785714Y4547620D01*
X13023809Y4547620D01*
X13119047Y4595239D01*
X13166666Y4642858D01*
X13214285Y4738096D01*
X13214285Y4833334D01*
X13166666Y4928572D01*
X13119047Y4976191D01*
X13023809Y5023810D01*
X12833333Y5071429D01*
X12738095Y5119048D01*
X12690476Y5166667D01*
X12642857Y5261905D01*
X12642857Y5357143D01*
X12690476Y5452381D01*
X12738095Y5500000D01*
X12833333Y5547620D01*
X13071428Y5547620D01*
X13214285Y5500000D01*
X13547619Y5547620D02*
X13785714Y4547620D01*
X13976190Y5261905D01*
X14166666Y4547620D01*
X14404761Y5547620D01*
X14547619Y4452381D02*
X15309523Y4452381D01*
X15547619Y4547620D02*
X15547619Y5547620D01*
X15880952Y4833334D01*
X16214285Y5547620D01*
X16214285Y4547620D01*
X16642857Y4833334D02*
X17119047Y4833334D01*
X16547619Y4547620D02*
X16880952Y5547620D01*
X17214285Y4547620D01*
X18119047Y4642858D02*
X18071428Y4595239D01*
X17928571Y4547620D01*
X17833333Y4547620D01*
X17690476Y4595239D01*
X17595238Y4690477D01*
X17547619Y4785715D01*
X17500000Y4976191D01*
X17500000Y5119048D01*
X17547619Y5309524D01*
X17595238Y5404762D01*
X17690476Y5500000D01*
X17833333Y5547620D01*
X17928571Y5547620D01*
X18071428Y5500000D01*
X18119047Y5452381D01*
X19119047Y4547620D02*
X18785714Y5023810D01*
X18547619Y4547620D02*
X18547619Y5547620D01*
X18928571Y5547620D01*
X19023809Y5500000D01*
X19071428Y5452381D01*
X19119047Y5357143D01*
X19119047Y5214286D01*
X19071428Y5119048D01*
X19023809Y5071429D01*
X18928571Y5023810D01*
X18547619Y5023810D01*
X19738095Y5547620D02*
X19928571Y5547620D01*
X20023809Y5500000D01*
X20119047Y5404762D01*
X20166666Y5214286D01*
X20166666Y4880953D01*
X20119047Y4690477D01*
X20023809Y4595239D01*
X19928571Y4547620D01*
X19738095Y4547620D01*
X19642857Y4595239D01*
X19547619Y4690477D01*
X19500000Y4880953D01*
X19500000Y5214286D01*
X19547619Y5404762D01*
X19642857Y5500000D01*
X19738095Y5547620D01*
X20595238Y4928572D02*
X21357142Y4928572D01*
X21738095Y5547620D02*
X22357142Y5547620D01*
X22023809Y5166667D01*
X22166666Y5166667D01*
X22261904Y5119048D01*
X22309523Y5071429D01*
X22357142Y4976191D01*
X22357142Y4738096D01*
X22309523Y4642858D01*
X22261904Y4595239D01*
X22166666Y4547620D01*
X21880952Y4547620D01*
X21785714Y4595239D01*
X21738095Y4642858D01*
%TO.C,SW_MACRO-1*%
X11642857Y18595239D02*
X11785714Y18547620D01*
X12023809Y18547620D01*
X12119047Y18595239D01*
X12166666Y18642858D01*
X12214285Y18738096D01*
X12214285Y18833334D01*
X12166666Y18928572D01*
X12119047Y18976191D01*
X12023809Y19023810D01*
X11833333Y19071429D01*
X11738095Y19119048D01*
X11690476Y19166667D01*
X11642857Y19261905D01*
X11642857Y19357143D01*
X11690476Y19452381D01*
X11738095Y19500000D01*
X11833333Y19547620D01*
X12071428Y19547620D01*
X12214285Y19500000D01*
X12547619Y19547620D02*
X12785714Y18547620D01*
X12976190Y19261905D01*
X13166666Y18547620D01*
X13404761Y19547620D01*
X13547619Y18452381D02*
X14309523Y18452381D01*
X14547619Y18547620D02*
X14547619Y19547620D01*
X14880952Y18833334D01*
X15214285Y19547620D01*
X15214285Y18547620D01*
X15642857Y18833334D02*
X16119047Y18833334D01*
X15547619Y18547620D02*
X15880952Y19547620D01*
X16214285Y18547620D01*
X17119047Y18642858D02*
X17071428Y18595239D01*
X16928571Y18547620D01*
X16833333Y18547620D01*
X16690476Y18595239D01*
X16595238Y18690477D01*
X16547619Y18785715D01*
X16500000Y18976191D01*
X16500000Y19119048D01*
X16547619Y19309524D01*
X16595238Y19404762D01*
X16690476Y19500000D01*
X16833333Y19547620D01*
X16928571Y19547620D01*
X17071428Y19500000D01*
X17119047Y19452381D01*
X18119047Y18547620D02*
X17785714Y19023810D01*
X17547619Y18547620D02*
X17547619Y19547620D01*
X17928571Y19547620D01*
X18023809Y19500000D01*
X18071428Y19452381D01*
X18119047Y19357143D01*
X18119047Y19214286D01*
X18071428Y19119048D01*
X18023809Y19071429D01*
X17928571Y19023810D01*
X17547619Y19023810D01*
X18738095Y19547620D02*
X18928571Y19547620D01*
X19023809Y19500000D01*
X19119047Y19404762D01*
X19166666Y19214286D01*
X19166666Y18880953D01*
X19119047Y18690477D01*
X19023809Y18595239D01*
X18928571Y18547620D01*
X18738095Y18547620D01*
X18642857Y18595239D01*
X18547619Y18690477D01*
X18500000Y18880953D01*
X18500000Y19214286D01*
X18547619Y19404762D01*
X18642857Y19500000D01*
X18738095Y19547620D01*
X19595238Y18928572D02*
X20357142Y18928572D01*
X21357142Y18547620D02*
X20785714Y18547620D01*
X21071428Y18547620D02*
X21071428Y19547620D01*
X20976190Y19404762D01*
X20880952Y19309524D01*
X20785714Y19261905D01*
%TO.C,SW_100\u0025S1*%
X60309523Y36095239D02*
X60452380Y36047620D01*
X60690476Y36047620D01*
X60785714Y36095239D01*
X60833333Y36142858D01*
X60880952Y36238096D01*
X60880952Y36333334D01*
X60833333Y36428572D01*
X60785714Y36476191D01*
X60690476Y36523810D01*
X60500000Y36571429D01*
X60404761Y36619048D01*
X60357142Y36666667D01*
X60309523Y36761905D01*
X60309523Y36857143D01*
X60357142Y36952381D01*
X60404761Y37000000D01*
X60500000Y37047620D01*
X60738095Y37047620D01*
X60880952Y37000000D01*
X61214285Y37047620D02*
X61452380Y36047620D01*
X61642857Y36761905D01*
X61833333Y36047620D01*
X62071428Y37047620D01*
X62214285Y35952381D02*
X62976190Y35952381D01*
X63738095Y36047620D02*
X63166666Y36047620D01*
X63452380Y36047620D02*
X63452380Y37047620D01*
X63357142Y36904762D01*
X63261904Y36809524D01*
X63166666Y36761905D01*
X64357142Y37047620D02*
X64452380Y37047620D01*
X64547619Y37000000D01*
X64595238Y36952381D01*
X64642857Y36857143D01*
X64690476Y36666667D01*
X64690476Y36428572D01*
X64642857Y36238096D01*
X64595238Y36142858D01*
X64547619Y36095239D01*
X64452380Y36047620D01*
X64357142Y36047620D01*
X64261904Y36095239D01*
X64214285Y36142858D01*
X64166666Y36238096D01*
X64119047Y36428572D01*
X64119047Y36666667D01*
X64166666Y36857143D01*
X64214285Y36952381D01*
X64261904Y37000000D01*
X64357142Y37047620D01*
X65309523Y37047620D02*
X65404761Y37047620D01*
X65500000Y37000000D01*
X65547619Y36952381D01*
X65595238Y36857143D01*
X65642857Y36666667D01*
X65642857Y36428572D01*
X65595238Y36238096D01*
X65547619Y36142858D01*
X65500000Y36095239D01*
X65404761Y36047620D01*
X65309523Y36047620D01*
X65214285Y36095239D01*
X65166666Y36142858D01*
X65119047Y36238096D01*
X65071428Y36428572D01*
X65071428Y36666667D01*
X65119047Y36857143D01*
X65166666Y36952381D01*
X65214285Y37000000D01*
X65309523Y37047620D01*
X66023809Y36047620D02*
X66785714Y37047620D01*
X66166666Y37047620D02*
X66261904Y37000000D01*
X66309523Y36904762D01*
X66261904Y36809524D01*
X66166666Y36761905D01*
X66071428Y36809524D01*
X66023809Y36904762D01*
X66071428Y37000000D01*
X66166666Y37047620D01*
X66738095Y36095239D02*
X66785714Y36190477D01*
X66738095Y36285715D01*
X66642857Y36333334D01*
X66547619Y36285715D01*
X66500000Y36190477D01*
X66547619Y36095239D01*
X66642857Y36047620D01*
X66738095Y36095239D01*
X67166666Y36095239D02*
X67309523Y36047620D01*
X67547619Y36047620D01*
X67642857Y36095239D01*
X67690476Y36142858D01*
X67738095Y36238096D01*
X67738095Y36333334D01*
X67690476Y36428572D01*
X67642857Y36476191D01*
X67547619Y36523810D01*
X67357142Y36571429D01*
X67261904Y36619048D01*
X67214285Y36666667D01*
X67166666Y36761905D01*
X67166666Y36857143D01*
X67214285Y36952381D01*
X67261904Y37000000D01*
X67357142Y37047620D01*
X67595238Y37047620D01*
X67738095Y37000000D01*
X68690476Y36047620D02*
X68119047Y36047620D01*
X68404761Y36047620D02*
X68404761Y37047620D01*
X68309523Y36904762D01*
X68214285Y36809524D01*
X68119047Y36761905D01*
%TO.C,SW_PX+1*%
X48446023Y11373604D02*
X48580710Y11440947D01*
X48749068Y11609306D01*
X48782740Y11710321D01*
X48782740Y11777665D01*
X48749068Y11878680D01*
X48681725Y11946024D01*
X48580710Y11979695D01*
X48513366Y11979695D01*
X48412351Y11946024D01*
X48243992Y11845008D01*
X48142977Y11811337D01*
X48075633Y11811337D01*
X47974618Y11845008D01*
X47907275Y11912352D01*
X47873603Y12013367D01*
X47873603Y12080711D01*
X47907275Y12181726D01*
X48075633Y12350085D01*
X48210320Y12417428D01*
X48412351Y12686802D02*
X49287816Y12148054D01*
X48917427Y12787817D01*
X49557190Y12417428D01*
X49018442Y13292894D01*
X49893908Y12619459D02*
X50432656Y13158207D01*
X50533671Y13393909D02*
X49826564Y14101016D01*
X50095938Y14370390D01*
X50196954Y14404062D01*
X50264297Y14404062D01*
X50365312Y14370390D01*
X50466328Y14269375D01*
X50500000Y14168359D01*
X50500000Y14101016D01*
X50466328Y14000000D01*
X50196954Y13730626D01*
X50466328Y14740779D02*
X51644839Y14505077D01*
X50937732Y15212184D02*
X51173435Y14033672D01*
X51644839Y15043825D02*
X52183587Y15582573D01*
X52183587Y15043825D02*
X51644839Y15582573D01*
X53160068Y16020306D02*
X52756007Y15616245D01*
X52958037Y15818275D02*
X52250931Y16525382D01*
X52284602Y16357023D01*
X52284602Y16222336D01*
X52250931Y16121321D01*
%TO.C,SW_$HX1*%
X12809523Y51095239D02*
X12952380Y51047620D01*
X13190476Y51047620D01*
X13285714Y51095239D01*
X13333333Y51142858D01*
X13380952Y51238096D01*
X13380952Y51333334D01*
X13333333Y51428572D01*
X13285714Y51476191D01*
X13190476Y51523810D01*
X13000000Y51571429D01*
X12904761Y51619048D01*
X12857142Y51666667D01*
X12809523Y51761905D01*
X12809523Y51857143D01*
X12857142Y51952381D01*
X12904761Y52000000D01*
X13000000Y52047620D01*
X13238095Y52047620D01*
X13380952Y52000000D01*
X13714285Y52047620D02*
X13952380Y51047620D01*
X14142857Y51761905D01*
X14333333Y51047620D01*
X14571428Y52047620D01*
X14714285Y50952381D02*
X15476190Y50952381D01*
X15666666Y51095239D02*
X15809523Y51047620D01*
X16047619Y51047620D01*
X16142857Y51095239D01*
X16190476Y51142858D01*
X16238095Y51238096D01*
X16238095Y51333334D01*
X16190476Y51428572D01*
X16142857Y51476191D01*
X16047619Y51523810D01*
X15857142Y51571429D01*
X15761904Y51619048D01*
X15714285Y51666667D01*
X15666666Y51761905D01*
X15666666Y51857143D01*
X15714285Y51952381D01*
X15761904Y52000000D01*
X15857142Y52047620D01*
X16095238Y52047620D01*
X16238095Y52000000D01*
X15952380Y52190477D02*
X15952380Y50904762D01*
X16666666Y51047620D02*
X16666666Y52047620D01*
X16666666Y51571429D02*
X17238095Y51571429D01*
X17238095Y51047620D02*
X17238095Y52047620D01*
X17619047Y52047620D02*
X18285714Y51047620D01*
X18285714Y52047620D02*
X17619047Y51047620D01*
X19190476Y51047620D02*
X18619047Y51047620D01*
X18904761Y51047620D02*
X18904761Y52047620D01*
X18809523Y51904762D01*
X18714285Y51809524D01*
X18619047Y51761905D01*
%TO.C,SW_$H1*%
X58035714Y107095239D02*
X58178571Y107047620D01*
X58416666Y107047620D01*
X58511904Y107095239D01*
X58559523Y107142858D01*
X58607142Y107238096D01*
X58607142Y107333334D01*
X58559523Y107428572D01*
X58511904Y107476191D01*
X58416666Y107523810D01*
X58226190Y107571429D01*
X58130952Y107619048D01*
X58083333Y107666667D01*
X58035714Y107761905D01*
X58035714Y107857143D01*
X58083333Y107952381D01*
X58130952Y108000000D01*
X58226190Y108047620D01*
X58464285Y108047620D01*
X58607142Y108000000D01*
X58940476Y108047620D02*
X59178571Y107047620D01*
X59369047Y107761905D01*
X59559523Y107047620D01*
X59797619Y108047620D01*
X59940476Y106952381D02*
X60702380Y106952381D01*
X60892857Y107095239D02*
X61035714Y107047620D01*
X61273809Y107047620D01*
X61369047Y107095239D01*
X61416666Y107142858D01*
X61464285Y107238096D01*
X61464285Y107333334D01*
X61416666Y107428572D01*
X61369047Y107476191D01*
X61273809Y107523810D01*
X61083333Y107571429D01*
X60988095Y107619048D01*
X60940476Y107666667D01*
X60892857Y107761905D01*
X60892857Y107857143D01*
X60940476Y107952381D01*
X60988095Y108000000D01*
X61083333Y108047620D01*
X61321428Y108047620D01*
X61464285Y108000000D01*
X61178571Y108190477D02*
X61178571Y106904762D01*
X61892857Y107047620D02*
X61892857Y108047620D01*
X61892857Y107571429D02*
X62464285Y107571429D01*
X62464285Y107047620D02*
X62464285Y108047620D01*
X63464285Y107047620D02*
X62892857Y107047620D01*
X63178571Y107047620D02*
X63178571Y108047620D01*
X63083333Y107904762D01*
X62988095Y107809524D01*
X62892857Y107761905D01*
%TO.C,SW_MACRO-2*%
X53642857Y18595239D02*
X53785714Y18547620D01*
X54023809Y18547620D01*
X54119047Y18595239D01*
X54166666Y18642858D01*
X54214285Y18738096D01*
X54214285Y18833334D01*
X54166666Y18928572D01*
X54119047Y18976191D01*
X54023809Y19023810D01*
X53833333Y19071429D01*
X53738095Y19119048D01*
X53690476Y19166667D01*
X53642857Y19261905D01*
X53642857Y19357143D01*
X53690476Y19452381D01*
X53738095Y19500000D01*
X53833333Y19547620D01*
X54071428Y19547620D01*
X54214285Y19500000D01*
X54547619Y19547620D02*
X54785714Y18547620D01*
X54976190Y19261905D01*
X55166666Y18547620D01*
X55404761Y19547620D01*
X55547619Y18452381D02*
X56309523Y18452381D01*
X56547619Y18547620D02*
X56547619Y19547620D01*
X56880952Y18833334D01*
X57214285Y19547620D01*
X57214285Y18547620D01*
X57642857Y18833334D02*
X58119047Y18833334D01*
X57547619Y18547620D02*
X57880952Y19547620D01*
X58214285Y18547620D01*
X59119047Y18642858D02*
X59071428Y18595239D01*
X58928571Y18547620D01*
X58833333Y18547620D01*
X58690476Y18595239D01*
X58595238Y18690477D01*
X58547619Y18785715D01*
X58500000Y18976191D01*
X58500000Y19119048D01*
X58547619Y19309524D01*
X58595238Y19404762D01*
X58690476Y19500000D01*
X58833333Y19547620D01*
X58928571Y19547620D01*
X59071428Y19500000D01*
X59119047Y19452381D01*
X60119047Y18547620D02*
X59785714Y19023810D01*
X59547619Y18547620D02*
X59547619Y19547620D01*
X59928571Y19547620D01*
X60023809Y19500000D01*
X60071428Y19452381D01*
X60119047Y19357143D01*
X60119047Y19214286D01*
X60071428Y19119048D01*
X60023809Y19071429D01*
X59928571Y19023810D01*
X59547619Y19023810D01*
X60738095Y19547620D02*
X60928571Y19547620D01*
X61023809Y19500000D01*
X61119047Y19404762D01*
X61166666Y19214286D01*
X61166666Y18880953D01*
X61119047Y18690477D01*
X61023809Y18595239D01*
X60928571Y18547620D01*
X60738095Y18547620D01*
X60642857Y18595239D01*
X60547619Y18690477D01*
X60500000Y18880953D01*
X60500000Y19214286D01*
X60547619Y19404762D01*
X60642857Y19500000D01*
X60738095Y19547620D01*
X61595238Y18928572D02*
X62357142Y18928572D01*
X62785714Y19452381D02*
X62833333Y19500000D01*
X62928571Y19547620D01*
X63166666Y19547620D01*
X63261904Y19500000D01*
X63309523Y19452381D01*
X63357142Y19357143D01*
X63357142Y19261905D01*
X63309523Y19119048D01*
X62738095Y18547620D01*
X63357142Y18547620D01*
%TO.C,SW_$HY1*%
X34357142Y51095239D02*
X34500000Y51047620D01*
X34738095Y51047620D01*
X34833333Y51095239D01*
X34880952Y51142858D01*
X34928571Y51238096D01*
X34928571Y51333334D01*
X34880952Y51428572D01*
X34833333Y51476191D01*
X34738095Y51523810D01*
X34547619Y51571429D01*
X34452380Y51619048D01*
X34404761Y51666667D01*
X34357142Y51761905D01*
X34357142Y51857143D01*
X34404761Y51952381D01*
X34452380Y52000000D01*
X34547619Y52047620D01*
X34785714Y52047620D01*
X34928571Y52000000D01*
X35261904Y52047620D02*
X35500000Y51047620D01*
X35690476Y51761905D01*
X35880952Y51047620D01*
X36119047Y52047620D01*
X36261904Y50952381D02*
X37023809Y50952381D01*
X37214285Y51095239D02*
X37357142Y51047620D01*
X37595238Y51047620D01*
X37690476Y51095239D01*
X37738095Y51142858D01*
X37785714Y51238096D01*
X37785714Y51333334D01*
X37738095Y51428572D01*
X37690476Y51476191D01*
X37595238Y51523810D01*
X37404761Y51571429D01*
X37309523Y51619048D01*
X37261904Y51666667D01*
X37214285Y51761905D01*
X37214285Y51857143D01*
X37261904Y51952381D01*
X37309523Y52000000D01*
X37404761Y52047620D01*
X37642857Y52047620D01*
X37785714Y52000000D01*
X37500000Y52190477D02*
X37500000Y50904762D01*
X38214285Y51047620D02*
X38214285Y52047620D01*
X38214285Y51571429D02*
X38785714Y51571429D01*
X38785714Y51047620D02*
X38785714Y52047620D01*
X39452380Y51523810D02*
X39452380Y51047620D01*
X39119047Y52047620D02*
X39452380Y51523810D01*
X39785714Y52047620D01*
X40642857Y51047620D02*
X40071428Y51047620D01*
X40357142Y51047620D02*
X40357142Y52047620D01*
X40261904Y51904762D01*
X40166666Y51809524D01*
X40071428Y51761905D01*
%TO.C,SW_PY-1*%
X34238095Y2720239D02*
X34380952Y2672620D01*
X34619047Y2672620D01*
X34714285Y2720239D01*
X34761904Y2767858D01*
X34809523Y2863096D01*
X34809523Y2958334D01*
X34761904Y3053572D01*
X34714285Y3101191D01*
X34619047Y3148810D01*
X34428571Y3196429D01*
X34333333Y3244048D01*
X34285714Y3291667D01*
X34238095Y3386905D01*
X34238095Y3482143D01*
X34285714Y3577381D01*
X34333333Y3625000D01*
X34428571Y3672620D01*
X34666666Y3672620D01*
X34809523Y3625000D01*
X35142857Y3672620D02*
X35380952Y2672620D01*
X35571428Y3386905D01*
X35761904Y2672620D01*
X36000000Y3672620D01*
X36142857Y2577381D02*
X36904761Y2577381D01*
X37142857Y2672620D02*
X37142857Y3672620D01*
X37523809Y3672620D01*
X37619047Y3625000D01*
X37666666Y3577381D01*
X37714285Y3482143D01*
X37714285Y3339286D01*
X37666666Y3244048D01*
X37619047Y3196429D01*
X37523809Y3148810D01*
X37142857Y3148810D01*
X38333333Y3148810D02*
X38333333Y2672620D01*
X38000000Y3672620D02*
X38333333Y3148810D01*
X38666666Y3672620D01*
X39000000Y3053572D02*
X39761904Y3053572D01*
X40761904Y2672620D02*
X40190476Y2672620D01*
X40476190Y2672620D02*
X40476190Y3672620D01*
X40380952Y3529762D01*
X40285714Y3434524D01*
X40190476Y3386905D01*
%TO.C,SW_PZ-1*%
X34190476Y11845239D02*
X34333333Y11797620D01*
X34571428Y11797620D01*
X34666666Y11845239D01*
X34714285Y11892858D01*
X34761904Y11988096D01*
X34761904Y12083334D01*
X34714285Y12178572D01*
X34666666Y12226191D01*
X34571428Y12273810D01*
X34380952Y12321429D01*
X34285714Y12369048D01*
X34238095Y12416667D01*
X34190476Y12511905D01*
X34190476Y12607143D01*
X34238095Y12702381D01*
X34285714Y12750000D01*
X34380952Y12797620D01*
X34619047Y12797620D01*
X34761904Y12750000D01*
X35095238Y12797620D02*
X35333333Y11797620D01*
X35523809Y12511905D01*
X35714285Y11797620D01*
X35952380Y12797620D01*
X36095238Y11702381D02*
X36857142Y11702381D01*
X37095238Y11797620D02*
X37095238Y12797620D01*
X37476190Y12797620D01*
X37571428Y12750000D01*
X37619047Y12702381D01*
X37666666Y12607143D01*
X37666666Y12464286D01*
X37619047Y12369048D01*
X37571428Y12321429D01*
X37476190Y12273810D01*
X37095238Y12273810D01*
X38000000Y12797620D02*
X38666666Y12797620D01*
X38000000Y11797620D01*
X38666666Y11797620D01*
X39047619Y12178572D02*
X39809523Y12178572D01*
X40809523Y11797620D02*
X40238095Y11797620D01*
X40523809Y11797620D02*
X40523809Y12797620D01*
X40428571Y12654762D01*
X40333333Y12559524D01*
X40238095Y12511905D01*
%TO.C,SW_L-CLICK1*%
X9619047Y107095239D02*
X9761904Y107047620D01*
X10000000Y107047620D01*
X10095238Y107095239D01*
X10142857Y107142858D01*
X10190476Y107238096D01*
X10190476Y107333334D01*
X10142857Y107428572D01*
X10095238Y107476191D01*
X10000000Y107523810D01*
X9809523Y107571429D01*
X9714285Y107619048D01*
X9666666Y107666667D01*
X9619047Y107761905D01*
X9619047Y107857143D01*
X9666666Y107952381D01*
X9714285Y108000000D01*
X9809523Y108047620D01*
X10047619Y108047620D01*
X10190476Y108000000D01*
X10523809Y108047620D02*
X10761904Y107047620D01*
X10952380Y107761905D01*
X11142857Y107047620D01*
X11380952Y108047620D01*
X11523809Y106952381D02*
X12285714Y106952381D01*
X13000000Y107047620D02*
X12523809Y107047620D01*
X12523809Y108047620D01*
X13333333Y107428572D02*
X14095238Y107428572D01*
X15142857Y107142858D02*
X15095238Y107095239D01*
X14952380Y107047620D01*
X14857142Y107047620D01*
X14714285Y107095239D01*
X14619047Y107190477D01*
X14571428Y107285715D01*
X14523809Y107476191D01*
X14523809Y107619048D01*
X14571428Y107809524D01*
X14619047Y107904762D01*
X14714285Y108000000D01*
X14857142Y108047620D01*
X14952380Y108047620D01*
X15095238Y108000000D01*
X15142857Y107952381D01*
X16047619Y107047620D02*
X15571428Y107047620D01*
X15571428Y108047620D01*
X16380952Y107047620D02*
X16380952Y108047620D01*
X17428571Y107142858D02*
X17380952Y107095239D01*
X17238095Y107047620D01*
X17142857Y107047620D01*
X17000000Y107095239D01*
X16904761Y107190477D01*
X16857142Y107285715D01*
X16809523Y107476191D01*
X16809523Y107619048D01*
X16857142Y107809524D01*
X16904761Y107904762D01*
X17000000Y108000000D01*
X17142857Y108047620D01*
X17238095Y108047620D01*
X17380952Y108000000D01*
X17428571Y107952381D01*
X17857142Y107047620D02*
X17857142Y108047620D01*
X18428571Y107047620D02*
X18000000Y107619048D01*
X18428571Y108047620D02*
X17857142Y107476191D01*
X19380952Y107047620D02*
X18809523Y107047620D01*
X19095238Y107047620D02*
X19095238Y108047620D01*
X19000000Y107904762D01*
X18904761Y107809524D01*
X18809523Y107761905D01*
%TO.C,SW_100\u0025F1*%
X6357142Y36095239D02*
X6500000Y36047620D01*
X6738095Y36047620D01*
X6833333Y36095239D01*
X6880952Y36142858D01*
X6928571Y36238096D01*
X6928571Y36333334D01*
X6880952Y36428572D01*
X6833333Y36476191D01*
X6738095Y36523810D01*
X6547619Y36571429D01*
X6452380Y36619048D01*
X6404761Y36666667D01*
X6357142Y36761905D01*
X6357142Y36857143D01*
X6404761Y36952381D01*
X6452380Y37000000D01*
X6547619Y37047620D01*
X6785714Y37047620D01*
X6928571Y37000000D01*
X7261904Y37047620D02*
X7500000Y36047620D01*
X7690476Y36761905D01*
X7880952Y36047620D01*
X8119047Y37047620D01*
X8261904Y35952381D02*
X9023809Y35952381D01*
X9785714Y36047620D02*
X9214285Y36047620D01*
X9500000Y36047620D02*
X9500000Y37047620D01*
X9404761Y36904762D01*
X9309523Y36809524D01*
X9214285Y36761905D01*
X10404761Y37047620D02*
X10500000Y37047620D01*
X10595238Y37000000D01*
X10642857Y36952381D01*
X10690476Y36857143D01*
X10738095Y36666667D01*
X10738095Y36428572D01*
X10690476Y36238096D01*
X10642857Y36142858D01*
X10595238Y36095239D01*
X10500000Y36047620D01*
X10404761Y36047620D01*
X10309523Y36095239D01*
X10261904Y36142858D01*
X10214285Y36238096D01*
X10166666Y36428572D01*
X10166666Y36666667D01*
X10214285Y36857143D01*
X10261904Y36952381D01*
X10309523Y37000000D01*
X10404761Y37047620D01*
X11357142Y37047620D02*
X11452380Y37047620D01*
X11547619Y37000000D01*
X11595238Y36952381D01*
X11642857Y36857143D01*
X11690476Y36666667D01*
X11690476Y36428572D01*
X11642857Y36238096D01*
X11595238Y36142858D01*
X11547619Y36095239D01*
X11452380Y36047620D01*
X11357142Y36047620D01*
X11261904Y36095239D01*
X11214285Y36142858D01*
X11166666Y36238096D01*
X11119047Y36428572D01*
X11119047Y36666667D01*
X11166666Y36857143D01*
X11214285Y36952381D01*
X11261904Y37000000D01*
X11357142Y37047620D01*
X12071428Y36047620D02*
X12833333Y37047620D01*
X12214285Y37047620D02*
X12309523Y37000000D01*
X12357142Y36904762D01*
X12309523Y36809524D01*
X12214285Y36761905D01*
X12119047Y36809524D01*
X12071428Y36904762D01*
X12119047Y37000000D01*
X12214285Y37047620D01*
X12785714Y36095239D02*
X12833333Y36190477D01*
X12785714Y36285715D01*
X12690476Y36333334D01*
X12595238Y36285715D01*
X12547619Y36190477D01*
X12595238Y36095239D01*
X12690476Y36047620D01*
X12785714Y36095239D01*
X13595238Y36571429D02*
X13261904Y36571429D01*
X13261904Y36047620D02*
X13261904Y37047620D01*
X13738095Y37047620D01*
X14642857Y36047620D02*
X14071428Y36047620D01*
X14357142Y36047620D02*
X14357142Y37047620D01*
X14261904Y36904762D01*
X14166666Y36809524D01*
X14071428Y36761905D01*
%TD*%
M02*
