%TF.GenerationSoftware,KiCad,Pcbnew,5.1.9-1.fc33*%
%TF.CreationDate,2021-01-18T19:28:24+01:00*%
%TF.ProjectId,Pendant PCB,50656e64-616e-4742-9050-43422e6b6963,rev?*%
%TF.SameCoordinates,PX3b9aca0PYa299fa0*%
%TF.FileFunction,Legend,Bot*%
%TF.FilePolarity,Positive*%
%FSLAX46Y46*%
G04 Gerber Fmt 4.6, Leading zero omitted, Abs format (unit mm)*
G04 Created by KiCad (PCBNEW 5.1.9-1.fc33) date 2021-01-18 19:28:24*
%MOMM*%
%LPD*%
G01*
G04 APERTURE LIST*
%ADD10C,0.120000*%
%ADD11C,0.150000*%
G04 APERTURE END LIST*
D10*
%TO.C,SW_RST2*%
X35800000Y5720000D02*
X39200000Y5720000D01*
X34160000Y5720000D02*
X34700000Y5720000D01*
X41360000Y8550000D02*
X41360000Y9060000D01*
X40840000Y9060000D02*
X41360000Y9060000D01*
X40840000Y8550000D02*
X40840000Y9060000D01*
X40300000Y5720000D02*
X40840000Y5720000D01*
X33640000Y8550000D02*
X33640000Y9060000D01*
X34160000Y8550000D02*
X34160000Y9060000D01*
X40840000Y5720000D02*
X40840000Y5950000D01*
X33640000Y2050000D02*
X33640000Y5950000D01*
X33640000Y9060000D02*
X34160000Y9060000D01*
X41360000Y2050000D02*
X41360000Y5950000D01*
X33640000Y2050000D02*
X41360000Y2050000D01*
X34160000Y5720000D02*
X34160000Y5950000D01*
%TO.C,J6*%
X38720000Y29280000D02*
X41380000Y29280000D01*
X38720000Y29220000D02*
X38720000Y29280000D01*
X41380000Y29220000D02*
X41380000Y29280000D01*
X38720000Y29220000D02*
X41380000Y29220000D01*
X38720000Y27950000D02*
X38720000Y26620000D01*
X38720000Y26620000D02*
X40050000Y26620000D01*
%TO.C,J1*%
X31206000Y26630000D02*
X28546000Y26630000D01*
X31206000Y72410000D02*
X31206000Y26630000D01*
X28546000Y72410000D02*
X28546000Y26630000D01*
X31206000Y72410000D02*
X28546000Y72410000D01*
X31206000Y73680000D02*
X31206000Y75010000D01*
X31206000Y75010000D02*
X29876000Y75010000D01*
%TO.C,J2*%
X43786000Y29170000D02*
X45116000Y29170000D01*
X43786000Y30500000D02*
X43786000Y29170000D01*
X43786000Y31770000D02*
X46446000Y31770000D01*
X46446000Y31770000D02*
X46446000Y75010000D01*
X43786000Y31770000D02*
X43786000Y75010000D01*
X43786000Y75010000D02*
X46446000Y75010000D01*
%TO.C,J5*%
X36170000Y44550000D02*
X41370000Y44550000D01*
X36170000Y41950000D02*
X36170000Y44550000D01*
X41370000Y39350000D02*
X41370000Y44550000D01*
X36170000Y41950000D02*
X38770000Y41950000D01*
X38770000Y41950000D02*
X38770000Y39350000D01*
X38770000Y39350000D02*
X41370000Y39350000D01*
X36170000Y40680000D02*
X36170000Y39350000D01*
X36170000Y39350000D02*
X37500000Y39350000D01*
%TO.C,J4*%
X31090001Y120580000D02*
X31090001Y119250000D01*
X32420001Y120580000D02*
X31090001Y120580000D01*
X33690001Y120580000D02*
X33690001Y117920000D01*
X33690001Y117920000D02*
X43910001Y117920000D01*
X33690001Y120580000D02*
X43910001Y120580000D01*
X43910001Y120580000D02*
X43910001Y117920000D01*
%TO.C,SW_RST2*%
D11*
X40571428Y8595239D02*
X40428571Y8547620D01*
X40190476Y8547620D01*
X40095238Y8595239D01*
X40047619Y8642858D01*
X40000000Y8738096D01*
X40000000Y8833334D01*
X40047619Y8928572D01*
X40095238Y8976191D01*
X40190476Y9023810D01*
X40380952Y9071429D01*
X40476190Y9119048D01*
X40523809Y9166667D01*
X40571428Y9261905D01*
X40571428Y9357143D01*
X40523809Y9452381D01*
X40476190Y9500000D01*
X40380952Y9547620D01*
X40142857Y9547620D01*
X40000000Y9500000D01*
X39666666Y9547620D02*
X39428571Y8547620D01*
X39238095Y9261905D01*
X39047619Y8547620D01*
X38809523Y9547620D01*
X38666666Y8452381D02*
X37904761Y8452381D01*
X37095238Y8547620D02*
X37428571Y9023810D01*
X37666666Y8547620D02*
X37666666Y9547620D01*
X37285714Y9547620D01*
X37190476Y9500000D01*
X37142857Y9452381D01*
X37095238Y9357143D01*
X37095238Y9214286D01*
X37142857Y9119048D01*
X37190476Y9071429D01*
X37285714Y9023810D01*
X37666666Y9023810D01*
X36714285Y8595239D02*
X36571428Y8547620D01*
X36333333Y8547620D01*
X36238095Y8595239D01*
X36190476Y8642858D01*
X36142857Y8738096D01*
X36142857Y8833334D01*
X36190476Y8928572D01*
X36238095Y8976191D01*
X36333333Y9023810D01*
X36523809Y9071429D01*
X36619047Y9119048D01*
X36666666Y9166667D01*
X36714285Y9261905D01*
X36714285Y9357143D01*
X36666666Y9452381D01*
X36619047Y9500000D01*
X36523809Y9547620D01*
X36285714Y9547620D01*
X36142857Y9500000D01*
X35857142Y9547620D02*
X35285714Y9547620D01*
X35571428Y8547620D02*
X35571428Y9547620D01*
X35000000Y9452381D02*
X34952380Y9500000D01*
X34857142Y9547620D01*
X34619047Y9547620D01*
X34523809Y9500000D01*
X34476190Y9452381D01*
X34428571Y9357143D01*
X34428571Y9261905D01*
X34476190Y9119048D01*
X35047619Y8547620D01*
X34428571Y8547620D01*
%TO.C,J6*%
X40383333Y26167620D02*
X40383333Y25453334D01*
X40430952Y25310477D01*
X40526190Y25215239D01*
X40669047Y25167620D01*
X40764285Y25167620D01*
X39478571Y26167620D02*
X39669047Y26167620D01*
X39764285Y26120000D01*
X39811904Y26072381D01*
X39907142Y25929524D01*
X39954761Y25739048D01*
X39954761Y25358096D01*
X39907142Y25262858D01*
X39859523Y25215239D01*
X39764285Y25167620D01*
X39573809Y25167620D01*
X39478571Y25215239D01*
X39430952Y25262858D01*
X39383333Y25358096D01*
X39383333Y25596191D01*
X39430952Y25691429D01*
X39478571Y25739048D01*
X39573809Y25786667D01*
X39764285Y25786667D01*
X39859523Y25739048D01*
X39907142Y25691429D01*
X39954761Y25596191D01*
%TO.C,J1*%
X30209333Y76557620D02*
X30209333Y75843334D01*
X30256952Y75700477D01*
X30352190Y75605239D01*
X30495047Y75557620D01*
X30590285Y75557620D01*
X29209333Y75557620D02*
X29780761Y75557620D01*
X29495047Y75557620D02*
X29495047Y76557620D01*
X29590285Y76414762D01*
X29685523Y76319524D01*
X29780761Y76271905D01*
%TO.C,J2*%
X45449333Y28717620D02*
X45449333Y28003334D01*
X45496952Y27860477D01*
X45592190Y27765239D01*
X45735047Y27717620D01*
X45830285Y27717620D01*
X45020761Y28622381D02*
X44973142Y28670000D01*
X44877904Y28717620D01*
X44639809Y28717620D01*
X44544571Y28670000D01*
X44496952Y28622381D01*
X44449333Y28527143D01*
X44449333Y28431905D01*
X44496952Y28289048D01*
X45068380Y27717620D01*
X44449333Y27717620D01*
%TO.C,J5*%
X37833333Y38897620D02*
X37833333Y38183334D01*
X37880952Y38040477D01*
X37976190Y37945239D01*
X38119047Y37897620D01*
X38214285Y37897620D01*
X36880952Y38897620D02*
X37357142Y38897620D01*
X37404761Y38421429D01*
X37357142Y38469048D01*
X37261904Y38516667D01*
X37023809Y38516667D01*
X36928571Y38469048D01*
X36880952Y38421429D01*
X36833333Y38326191D01*
X36833333Y38088096D01*
X36880952Y37992858D01*
X36928571Y37945239D01*
X37023809Y37897620D01*
X37261904Y37897620D01*
X37357142Y37945239D01*
X37404761Y37992858D01*
%TO.C,J4*%
X29542381Y119583334D02*
X30256667Y119583334D01*
X30399524Y119630953D01*
X30494762Y119726191D01*
X30542381Y119869048D01*
X30542381Y119964286D01*
X29875715Y118678572D02*
X30542381Y118678572D01*
X29494762Y118916667D02*
X30209048Y119154762D01*
X30209048Y118535715D01*
%TD*%
M02*
