%TF.GenerationSoftware,KiCad,Pcbnew,5.1.9-1.fc33*%
%TF.CreationDate,2021-01-18T19:28:24+01:00*%
%TF.ProjectId,Pendant PCB,50656e64-616e-4742-9050-43422e6b6963,rev?*%
%TF.SameCoordinates,PX3b9aca0PYa299fa0*%
%TF.FileFunction,Profile,NP*%
%FSLAX46Y46*%
G04 Gerber Fmt 4.6, Leading zero omitted, Abs format (unit mm)*
G04 Created by KiCad (PCBNEW 5.1.9-1.fc33) date 2021-01-18 19:28:24*
%MOMM*%
%LPD*%
G01*
G04 APERTURE LIST*
%TA.AperFunction,Profile*%
%ADD10C,0.100000*%
%TD*%
G04 APERTURE END LIST*
D10*
X63500000Y15500000D02*
G75*
G02*
X67500000Y19500000I4000000J0D01*
G01*
X7500000Y19500000D02*
G75*
G02*
X11500000Y15500000I0J-4000000D01*
G01*
X11500000Y125500000D02*
G75*
G02*
X7500000Y121500000I-4000000J0D01*
G01*
X67500000Y121500000D02*
G75*
G02*
X63500000Y125500000I0J4000000D01*
G01*
X27500000Y8000000D02*
X11500000Y8000000D01*
X33500000Y2000000D02*
X27500000Y8000000D01*
X41500000Y2000000D02*
X33500000Y2000000D01*
X47500000Y8000000D02*
X41500000Y2000000D01*
X63500000Y8000000D02*
X47500000Y8000000D01*
X7500000Y74500000D02*
G75*
G02*
X7500000Y66500000I0J-4000000D01*
G01*
X67500000Y66500000D02*
G75*
G02*
X67500000Y74500000I0J4000000D01*
G01*
X31500000Y132000000D02*
X11500000Y132000000D01*
X31500000Y128250000D02*
X31500000Y132000000D01*
X43500000Y128250000D02*
X31500000Y128250000D01*
X43500000Y132000000D02*
X43500000Y128250000D01*
X63500000Y132000000D02*
X43500000Y132000000D01*
X73000000Y121500000D02*
X73000000Y74500000D01*
X73000000Y19500000D02*
X73000000Y66500000D01*
X2000000Y74500000D02*
X2000000Y121500000D01*
X2000000Y19500000D02*
X2000000Y66500000D01*
X52500000Y102000000D02*
G75*
G03*
X52500000Y102000000I-15000000J0D01*
G01*
X11500000Y15500000D02*
X11500000Y8000000D01*
X11500000Y132000000D02*
X11500000Y125500000D01*
X63500000Y125500000D02*
X63500000Y132000000D01*
X73000000Y66500000D02*
X67500000Y66500000D01*
X67500000Y19500000D02*
X73000000Y19500000D01*
X63500000Y8000000D02*
X63500000Y15500000D01*
X2000000Y19500000D02*
X7500000Y19500000D01*
X7500000Y66500000D02*
X2000000Y66500000D01*
X2000000Y74500000D02*
X7500000Y74500000D01*
X7500000Y121500000D02*
X2000000Y121500000D01*
X73000000Y121500000D02*
X67500000Y121500000D01*
X67500000Y74500000D02*
X73000000Y74500000D01*
M02*
