%TF.GenerationSoftware,KiCad,Pcbnew,5.1.9-1.fc33*%
%TF.CreationDate,2021-01-04T23:25:46+01:00*%
%TF.ProjectId,Pendant PCB,50656e64-616e-4742-9050-43422e6b6963,rev?*%
%TF.SameCoordinates,Original*%
%TF.FileFunction,Profile,NP*%
%FSLAX46Y46*%
G04 Gerber Fmt 4.6, Leading zero omitted, Abs format (unit mm)*
G04 Created by KiCad (PCBNEW 5.1.9-1.fc33) date 2021-01-04 23:25:46*
%MOMM*%
%LPD*%
G01*
G04 APERTURE LIST*
%TA.AperFunction,Profile*%
%ADD10C,0.100000*%
%TD*%
G04 APERTURE END LIST*
D10*
X130500000Y-150500000D02*
X130500000Y-104500000D01*
X130500000Y-49500000D02*
X130500000Y-95500000D01*
X125000000Y-104500000D02*
G75*
G02*
X125000000Y-95500000I0J4500000D01*
G01*
X110000000Y-68500000D02*
G75*
G03*
X110000000Y-68500000I-15000000J0D01*
G01*
X130500000Y-104500000D02*
X125000000Y-104500000D01*
X125000000Y-95500000D02*
X130500000Y-95500000D01*
X69500000Y-40500000D02*
X120500000Y-40500000D01*
X59500000Y-95500000D02*
X59500000Y-49500000D01*
X59500000Y-150500000D02*
X59500000Y-104500000D01*
X120500000Y-161000000D02*
X69500000Y-161000000D01*
X65000000Y-150500000D02*
G75*
G02*
X69500000Y-155000000I0J-4500000D01*
G01*
X120500000Y-155000000D02*
G75*
G02*
X125000000Y-150500000I4500000J0D01*
G01*
X69500000Y-45000000D02*
G75*
G02*
X65000000Y-49500000I-4500000J0D01*
G01*
X125000000Y-49500000D02*
G75*
G02*
X120500000Y-45000000I0J4500000D01*
G01*
X65000000Y-95500000D02*
G75*
G02*
X65000000Y-104500000I0J-4500000D01*
G01*
X69500000Y-155000000D02*
X69500000Y-161000000D01*
X69500000Y-40500000D02*
X69500000Y-45000000D01*
X120500000Y-45000000D02*
X120500000Y-40500000D01*
X125000000Y-150500000D02*
X130500000Y-150500000D01*
X120500000Y-161000000D02*
X120500000Y-155000000D01*
X59500000Y-150500000D02*
X65000000Y-150500000D01*
X65000000Y-104500000D02*
X59500000Y-104500000D01*
X59500000Y-95500000D02*
X65000000Y-95500000D01*
X65000000Y-49500000D02*
X59500000Y-49500000D01*
X130500000Y-49500000D02*
X125000000Y-49500000D01*
M02*
