M48
; DRILL file {KiCad 5.1.9-1.fc33} date Mon Jan  4 23:26:13 2021
; FORMAT={-:-/ absolute / metric / decimal}
; #@! TF.CreationDate,2021-01-04T23:26:13+01:00
; #@! TF.GenerationSoftware,Kicad,Pcbnew,5.1.9-1.fc33
; #@! TF.FileFunction,Plated,1,2,PTH
FMAT,2
METRIC
T1C1.000
T2C1.100
T3C1.500
%
G90
G05
T1
X66.782Y-88.818
X70.318Y-85.282
X76.0Y-120.0
X76.0Y-122.5
X76.0Y-125.0
X77.036Y-99.071
X78.803Y-97.303
X80.571Y-95.536
X87.376Y-95.0
X87.376Y-97.54
X87.376Y-100.08
X87.376Y-102.62
X87.376Y-105.16
X87.376Y-107.7
X87.376Y-110.24
X87.376Y-112.78
X87.376Y-115.32
X87.376Y-117.86
X87.376Y-120.4
X87.376Y-122.94
X87.376Y-125.48
X87.376Y-128.02
X87.376Y-130.56
X87.376Y-133.1
X87.376Y-135.64
X87.376Y-138.18
X87.376Y-140.72
X87.376Y-143.26
X89.92Y-51.25
X90.5Y-120.0
X90.5Y-125.0
X92.46Y-51.25
X92.5Y-85.0
X92.5Y-99.5
X95.0Y-99.5
X95.0Y-128.0
X95.0Y-130.54
X95.0Y-51.25
X97.5Y-85.0
X97.5Y-99.5
X97.54Y-128.0
X97.54Y-130.54
X97.54Y-51.25
X99.5Y-120.0
X99.5Y-125.0
X100.08Y-51.25
X102.616Y-95.0
X102.616Y-97.54
X102.616Y-100.08
X102.616Y-102.62
X102.616Y-105.16
X102.616Y-107.7
X102.616Y-110.24
X102.616Y-112.78
X102.616Y-115.32
X102.616Y-117.86
X102.616Y-120.4
X102.616Y-122.94
X102.616Y-125.48
X102.616Y-128.02
X102.616Y-130.56
X102.616Y-133.1
X102.616Y-135.64
X102.616Y-138.18
X102.616Y-140.72
X102.616Y-143.26
X109.429Y-95.536
X111.197Y-97.303
X112.964Y-99.071
X114.0Y-120.0
X114.0Y-122.5
X114.0Y-125.0
X119.682Y-85.282
X123.218Y-88.818
T2
X64.75Y-120.25
X64.75Y-124.75
X69.625Y-58.25
X69.625Y-64.75
X69.625Y-72.25
X69.625Y-78.75
X69.75Y-105.25
X69.75Y-109.75
X71.25Y-120.25
X71.25Y-124.75
X73.0Y-135.5
X73.0Y-142.0
X73.0Y-149.5
X73.0Y-156.0
X73.75Y-43.75
X73.75Y-48.25
X74.125Y-58.25
X74.125Y-64.75
X74.125Y-72.25
X74.125Y-78.75
X76.25Y-105.25
X76.25Y-109.75
X77.5Y-135.5
X77.5Y-142.0
X77.5Y-149.5
X77.5Y-156.0
X80.25Y-43.75
X80.25Y-48.25
X80.968Y-145.057
X84.15Y-141.875
X85.564Y-149.653
X88.746Y-146.471
X91.75Y-43.75
X91.75Y-48.25
X91.75Y-105.25
X91.75Y-109.75
X91.75Y-133.25
X91.75Y-137.75
X91.75Y-153.625
X91.75Y-158.125
X92.75Y-142.5
X92.75Y-149.0
X97.25Y-142.5
X97.25Y-149.0
X98.25Y-43.75
X98.25Y-48.25
X98.25Y-105.25
X98.25Y-109.75
X98.25Y-133.25
X98.25Y-137.75
X98.25Y-153.625
X98.25Y-158.125
X101.25Y-146.5
X104.432Y-149.682
X105.846Y-141.904
X109.028Y-145.086
X109.75Y-43.75
X109.75Y-48.25
X112.375Y-135.5
X112.375Y-142.0
X112.375Y-149.5
X112.375Y-156.0
X113.25Y-105.25
X113.25Y-109.75
X115.875Y-58.25
X115.875Y-64.75
X115.875Y-72.25
X115.875Y-78.75
X116.25Y-43.75
X116.25Y-48.25
X116.875Y-135.5
X116.875Y-142.0
X116.875Y-149.5
X116.875Y-156.0
X118.75Y-120.25
X118.75Y-124.75
X119.75Y-105.25
X119.75Y-109.75
X120.375Y-58.25
X120.375Y-64.75
X120.375Y-72.25
X120.375Y-78.75
X125.25Y-120.25
X125.25Y-124.75
T3
G00X70.0Y-96.419
M15
G01X69.081Y-95.5
M16
G05
G00X77.919Y-88.5
M15
G01X77.0Y-87.581
M16
G05
G00X82.85Y-116.9
M15
G01X84.15Y-116.9
M16
G05
G00X82.85Y-128.1
M15
G01X84.15Y-128.1
M16
G05
G00X89.4Y-92.65
M15
G01X89.4Y-91.35
M16
G05
G00X100.6Y-92.65
M15
G01X100.6Y-91.35
M16
G05
G00X107.15Y-116.9
M15
G01X105.85Y-116.9
M16
G05
G00X107.15Y-128.1
M15
G01X105.85Y-128.1
M16
G05
G00X112.081Y-88.5
M15
G01X113.0Y-87.581
M16
G05
G00X120.0Y-96.419
M15
G01X120.919Y-95.5
M16
G05
T0
M30
