M48
; DRILL file {KiCad 5.1.9-1.fc33} date Mon Jan 18 19:28:04 2021
; FORMAT={-:-/ absolute / metric / decimal}
; #@! TF.CreationDate,2021-01-18T19:28:04+01:00
; #@! TF.GenerationSoftware,Kicad,Pcbnew,5.1.9-1.fc33
; #@! TF.FileFunction,Plated,1,2,PTH
FMAT,2
METRIC
T1C0.990
T2C1.000
T3C1.100
T4C1.300
T5C1.500
%
G90
G05
T1
X35.25Y4.75
X39.75Y4.75
T2
X8.688Y78.835
X11.188Y83.165
X18.5Y49.5
X18.5Y47.0
X18.5Y44.5
X21.245Y71.585
X22.495Y73.75
X23.745Y75.915
X29.876Y73.68
X29.876Y71.14
X29.876Y68.6
X29.876Y66.06
X29.876Y63.52
X29.876Y60.98
X29.876Y58.44
X29.876Y55.9
X29.876Y53.36
X29.876Y50.82
X29.876Y48.28
X29.876Y45.74
X29.876Y43.2
X29.876Y40.66
X29.876Y38.12
X29.876Y35.58
X29.876Y33.04
X29.876Y30.5
X29.876Y27.96
X32.42Y119.25
X33.0Y49.5
X33.0Y44.5
X34.96Y119.25
X35.0Y84.5
X35.0Y70.0
X37.5Y70.0
X37.5Y43.22
X37.5Y40.68
X37.5Y119.25
X40.0Y84.5
X40.0Y70.0
X40.04Y43.22
X40.04Y40.68
X40.04Y119.25
X40.05Y27.95
X42.0Y49.5
X42.0Y44.5
X42.58Y119.25
X45.116Y73.68
X45.116Y71.14
X45.116Y68.6
X45.116Y66.06
X45.116Y63.52
X45.116Y60.98
X45.116Y58.44
X45.116Y55.9
X45.116Y53.36
X45.116Y50.82
X45.116Y48.28
X45.116Y45.74
X45.116Y43.2
X45.116Y40.66
X45.116Y38.12
X45.116Y35.58
X45.116Y33.04
X45.116Y30.5
X51.235Y75.925
X52.485Y73.76
X53.735Y71.595
X56.5Y49.5
X56.5Y47.0
X56.5Y44.5
X63.792Y83.175
X66.292Y78.845
T3
X7.25Y49.25
X7.25Y44.75
X12.125Y112.25
X12.125Y105.75
X12.125Y98.25
X12.125Y91.75
X12.75Y64.25
X12.75Y59.75
X13.75Y49.25
X13.75Y44.75
X15.5Y34.0
X15.5Y27.5
X15.5Y20.0
X15.5Y13.5
X16.25Y126.75
X16.25Y122.25
X16.625Y112.25
X16.625Y105.75
X16.625Y98.25
X16.625Y91.75
X19.25Y64.25
X19.25Y59.75
X20.0Y34.0
X20.0Y27.5
X20.0Y20.0
X20.0Y13.5
X22.75Y126.75
X22.75Y122.25
X23.468Y24.443
X26.65Y27.625
X28.064Y19.847
X31.246Y23.029
X33.618Y24.418
X34.25Y126.75
X34.25Y122.25
X34.25Y64.25
X34.25Y59.75
X34.25Y36.25
X34.25Y31.75
X34.25Y15.875
X34.25Y11.375
X36.8Y27.6
X38.214Y19.822
X40.75Y126.75
X40.75Y122.25
X40.75Y64.25
X40.75Y59.75
X40.75Y36.25
X40.75Y31.75
X40.75Y15.875
X40.75Y11.375
X41.396Y23.004
X43.768Y24.418
X46.95Y27.6
X48.364Y19.822
X51.546Y23.004
X52.25Y126.75
X52.25Y122.25
X54.875Y34.0
X54.875Y27.5
X54.875Y20.0
X54.875Y13.5
X55.75Y64.25
X55.75Y59.75
X58.375Y112.25
X58.375Y105.75
X58.375Y98.25
X58.375Y91.75
X58.75Y126.75
X58.75Y122.25
X59.375Y34.0
X59.375Y27.5
X59.375Y20.0
X59.375Y13.5
X61.25Y49.25
X61.25Y44.75
X62.25Y64.25
X62.25Y59.75
X62.875Y112.25
X62.875Y105.75
X62.875Y98.25
X62.875Y91.75
X67.75Y49.25
X67.75Y44.75
T4
X34.0Y7.24
X41.01Y7.24
T5
G00X13.763Y72.325
M15
G01X12.637Y72.975
M16
G05
G00X19.363Y82.025
M15
G01X18.237Y82.675
M16
G05
G00X25.35Y52.6
M15
G01X26.65Y52.6
M16
G05
G00X25.35Y41.4
M15
G01X26.65Y41.4
M16
G05
G00X31.9Y76.85
M15
G01X31.9Y78.15
M16
G05
G00X43.1Y76.85
M15
G01X43.1Y78.15
M16
G05
G00X49.65Y52.6
M15
G01X48.35Y52.6
M16
G05
G00X49.65Y41.4
M15
G01X48.35Y41.4
M16
G05
G00X55.617Y82.035
M15
G01X56.743Y82.685
M16
G05
G00X61.217Y72.335
M15
G01X62.343Y72.985
M16
G05
T0
M30
