M48
; DRILL file {KiCad 5.1.9-1.fc33} date Thu Jan  7 16:59:59 2021
; FORMAT={-:-/ absolute / metric / decimal}
; #@! TF.CreationDate,2021-01-07T16:59:59+01:00
; #@! TF.GenerationSoftware,Kicad,Pcbnew,5.1.9-1.fc33
; #@! TF.FileFunction,Plated,1,2,PTH
FMAT,2
METRIC
T1C1.000
T2C1.100
T3C1.500
%
G90
G05
T1
X9.282Y74.682
X12.818Y78.218
X18.5Y43.5
X18.5Y41.0
X18.5Y38.5
X19.536Y64.429
X21.303Y66.197
X23.071Y67.964
X29.876Y68.5
X29.876Y65.96
X29.876Y63.42
X29.876Y60.88
X29.876Y58.34
X29.876Y55.8
X29.876Y53.26
X29.876Y50.72
X29.876Y48.18
X29.876Y45.64
X29.876Y43.1
X29.876Y40.56
X29.876Y38.02
X29.876Y35.48
X29.876Y32.94
X29.876Y30.4
X29.876Y27.86
X29.876Y25.32
X29.876Y22.78
X29.876Y20.24
X32.42Y112.25
X33.0Y43.5
X33.0Y38.5
X34.96Y112.25
X35.0Y78.5
X35.0Y64.0
X37.5Y64.0
X37.5Y35.5
X37.5Y32.96
X37.5Y112.25
X40.0Y78.5
X40.0Y64.0
X40.04Y35.5
X40.04Y32.96
X40.04Y112.25
X42.0Y43.5
X42.0Y38.5
X42.58Y112.25
X45.116Y68.5
X45.116Y65.96
X45.116Y63.42
X45.116Y60.88
X45.116Y58.34
X45.116Y55.8
X45.116Y53.26
X45.116Y50.72
X45.116Y48.18
X45.116Y45.64
X45.116Y43.1
X45.116Y40.56
X45.116Y38.02
X45.116Y35.48
X45.116Y32.94
X45.116Y30.4
X45.116Y27.86
X45.116Y25.32
X45.116Y22.78
X45.116Y20.24
X51.929Y67.964
X53.697Y66.197
X55.464Y64.429
X56.5Y43.5
X56.5Y41.0
X56.5Y38.5
X62.182Y78.218
X65.718Y74.682
T2
X7.25Y43.25
X7.25Y38.75
X12.125Y105.25
X12.125Y98.75
X12.125Y91.25
X12.125Y84.75
X12.75Y58.25
X12.75Y53.75
X13.75Y43.25
X13.75Y38.75
X15.5Y28.0
X15.5Y21.5
X15.5Y14.0
X15.5Y7.5
X16.25Y119.75
X16.25Y115.25
X16.625Y105.25
X16.625Y98.75
X16.625Y91.25
X16.625Y84.75
X19.25Y58.25
X19.25Y53.75
X20.0Y28.0
X20.0Y21.5
X20.0Y14.0
X20.0Y7.5
X22.75Y119.75
X22.75Y115.25
X23.468Y18.443
X26.65Y21.625
X28.064Y13.847
X31.246Y17.029
X34.25Y119.75
X34.25Y115.25
X34.25Y58.25
X34.25Y53.75
X34.25Y30.25
X34.25Y25.75
X34.25Y9.875
X34.25Y5.375
X35.25Y21.0
X35.25Y14.5
X39.75Y21.0
X39.75Y14.5
X40.75Y119.75
X40.75Y115.25
X40.75Y58.25
X40.75Y53.75
X40.75Y30.25
X40.75Y25.75
X40.75Y9.875
X40.75Y5.375
X43.75Y17.0
X46.932Y13.818
X48.346Y21.596
X51.528Y18.414
X52.25Y119.75
X52.25Y115.25
X54.875Y28.0
X54.875Y21.5
X54.875Y14.0
X54.875Y7.5
X55.75Y58.25
X55.75Y53.75
X58.375Y105.25
X58.375Y98.75
X58.375Y91.25
X58.375Y84.75
X58.75Y119.75
X58.75Y115.25
X59.375Y28.0
X59.375Y21.5
X59.375Y14.0
X59.375Y7.5
X61.25Y43.25
X61.25Y38.75
X62.25Y58.25
X62.25Y53.75
X62.875Y105.25
X62.875Y98.75
X62.875Y91.25
X62.875Y84.75
X67.75Y43.25
X67.75Y38.75
T3
G00X12.5Y67.081
M15
G01X11.581Y68.0
M16
G05
G00X20.419Y75.0
M15
G01X19.5Y75.919
M16
G05
G00X25.35Y46.6
M15
G01X26.65Y46.6
M16
G05
G00X25.35Y35.4
M15
G01X26.65Y35.4
M16
G05
G00X31.9Y70.85
M15
G01X31.9Y72.15
M16
G05
G00X43.1Y70.85
M15
G01X43.1Y72.15
M16
G05
G00X49.65Y46.6
M15
G01X48.35Y46.6
M16
G05
G00X49.65Y35.4
M15
G01X48.35Y35.4
M16
G05
G00X54.581Y75.0
M15
G01X55.5Y75.919
M16
G05
G00X62.5Y67.081
M15
G01X63.419Y68.0
M16
G05
T0
M30
